<svg width="24" height="22" viewBox="0 0 24 22" fill="none" xmlns="http://www.w3.org/2000/svg">
<path d="M15.4975 15.4975H17.9137M9.45687 4.62437H3.41625C2.77542 4.62437 2.16084 4.87894 1.7077 5.33208C1.25457 5.78521 1 6.3998 1 7.04062V17.9137C1 18.5546 1.25457 19.1692 1.7077 19.6223C2.16084 20.0754 2.77542 20.33 3.41625 20.33H20.33C20.9708 20.33 21.5854 20.0754 22.0385 19.6223C22.4917 19.1692 22.7462 18.5546 22.7462 17.9137V7.04062C22.7462 6.3998 22.4917 5.78521 22.0385 5.33208C21.5854 4.87894 20.9708 4.62437 20.33 4.62437H14.2894H9.45687ZM9.45687 4.62437V3.41625C9.45687 2.77542 9.71144 2.16084 10.1646 1.7077C10.6177 1.25457 11.2323 1 11.8731 1C12.514 1 13.1285 1.25457 13.5817 1.7077C14.0348 2.16084 14.2894 2.77542 14.2894 3.41625V4.62437H9.45687ZM9.45687 4.62437C9.45687 5.2652 9.71144 5.87979 10.1646 6.33292C10.6177 6.78606 11.2323 7.04062 11.8731 7.04062C12.514 7.04062 13.1285 6.78606 13.5817 6.33292C14.0348 5.87979 14.2894 5.2652 14.2894 4.62437H9.45687ZM8.24875 14.2894C8.88958 14.2894 9.50416 14.0348 9.9573 13.5817C10.4104 13.1285 10.665 12.514 10.665 11.8731C10.665 11.2323 10.4104 10.6177 9.9573 10.1646C9.50416 9.71144 8.88958 9.45687 8.24875 9.45687C7.60792 9.45687 6.99334 9.71144 6.5402 10.1646C6.08707 10.6177 5.8325 11.2323 5.8325 11.8731C5.8325 12.514 6.08707 13.1285 6.5402 13.5817C6.99334 14.0348 7.60792 14.2894 8.24875 14.2894ZM8.24875 14.2894C9.82656 14.2894 11.1688 15.2982 11.6677 16.7056L8.24875 14.2894ZM8.24875 14.2894C7.49897 14.2892 6.76756 14.5214 6.15525 14.9541C5.54294 15.3869 5.07985 15.9988 4.82976 16.7056L8.24875 14.2894ZM15.4975 10.665H19.1219H15.4975Z" stroke="#959595" stroke-width="2" stroke-linecap="round" stroke-linejoin="round"/>
</svg>
