<svg width="24" height="24" viewBox="0 0 24 24" fill="none" xmlns="http://www.w3.org/2000/svg">
<path d="M19 11H5C3.89543 11 3 11.8954 3 13V20C3 21.1046 3.89543 22 5 22H19C20.1046 22 21 21.1046 21 20V13C21 11.8954 20.1046 11 19 11Z" stroke="#959595" stroke-width="2" stroke-linecap="round" stroke-linejoin="round"/>
<path d="M7 11V7C7 5.67392 7.52678 4.40215 8.46447 3.46447C9.40215 2.52678 10.6739 2 12 2C13.3261 2 14.5979 2.52678 15.5355 3.46447C16.4732 4.40215 17 5.67392 17 7V11" stroke="#959595" stroke-width="2" stroke-linecap="round" stroke-linejoin="round"/>
<path d="M5.68555 17.0742C5.68555 16.793 5.78711 16.5586 5.99023 16.3711C6.19336 16.1797 6.45508 16.084 6.77539 16.084C7.09961 16.084 7.36133 16.1797 7.56055 16.3711C7.76367 16.5586 7.86523 16.793 7.86523 17.0742C7.86523 17.3555 7.76367 17.5918 7.56055 17.7832C7.36133 17.9707 7.09961 18.0645 6.77539 18.0645C6.45508 18.0645 6.19336 17.9707 5.99023 17.7832C5.78711 17.5918 5.68555 17.3555 5.68555 17.0742ZM9.31836 17.0742C9.31836 16.793 9.41992 16.5586 9.62305 16.3711C9.82617 16.1797 10.0879 16.084 10.4082 16.084C10.7324 16.084 10.9941 16.1797 11.1934 16.3711C11.3965 16.5586 11.498 16.793 11.498 17.0742C11.498 17.3555 11.3965 17.5918 11.1934 17.7832C10.9941 17.9707 10.7324 18.0645 10.4082 18.0645C10.0879 18.0645 9.82617 17.9707 9.62305 17.7832C9.41992 17.5918 9.31836 17.3555 9.31836 17.0742ZM12.9512 17.0742C12.9512 16.793 13.0527 16.5586 13.2559 16.3711C13.459 16.1797 13.7207 16.084 14.041 16.084C14.3652 16.084 14.627 16.1797 14.8262 16.3711C15.0293 16.5586 15.1309 16.793 15.1309 17.0742C15.1309 17.3555 15.0293 17.5918 14.8262 17.7832C14.627 17.9707 14.3652 18.0645 14.041 18.0645C13.7207 18.0645 13.459 17.9707 13.2559 17.7832C13.0527 17.5918 12.9512 17.3555 12.9512 17.0742ZM16.584 17.0742C16.584 16.793 16.6855 16.5586 16.8887 16.3711C17.0918 16.1797 17.3535 16.084 17.6738 16.084C17.998 16.084 18.2598 16.1797 18.459 16.3711C18.6621 16.5586 18.7637 16.793 18.7637 17.0742C18.7637 17.3555 18.6621 17.5918 18.459 17.7832C18.2598 17.9707 17.998 18.0645 17.6738 18.0645C17.3535 18.0645 17.0918 17.9707 16.8887 17.7832C16.6855 17.5918 16.584 17.3555 16.584 17.0742Z" fill="#959595"/>
</svg>
