<svg width="52" height="40" viewBox="0 0 52 40" fill="none" xmlns="http://www.w3.org/2000/svg">
<g clip-path="url(#clip0_153_3425)">
<path d="M37.5597 26.0365L30.85 22.5771C30.7488 22.5248 30.6725 22.4345 30.6379 22.326C30.6032 22.2176 30.6129 22.0997 30.665 21.9985L31.0801 21.1934C31.1324 21.0923 31.2227 21.016 31.3312 20.9813C31.4396 20.9466 31.5574 20.9564 31.6587 21.0085L38.3684 24.4678C38.4696 24.5201 38.5459 24.6104 38.5806 24.7189C38.6152 24.8274 38.6055 24.9452 38.5534 25.0465L38.1383 25.8515C38.1126 25.9017 38.0771 25.9463 38.034 25.9827C37.9909 26.0191 37.941 26.0466 37.8872 26.0636C37.8447 26.0773 37.8003 26.0843 37.7557 26.0843C37.6875 26.0843 37.6202 26.0679 37.5597 26.0365V26.0365Z" fill="#FFC900"/>
<path d="M35.5139 22.8004C35.5669 22.7797 35.6235 22.7698 35.6803 22.7713C35.7372 22.7728 35.7931 22.7856 35.845 22.809L38.0438 24.0248C38.2844 24.1577 38.4648 24.378 38.5477 24.6401C38.6305 24.9023 38.6095 25.1862 38.4889 25.4333L38.4614 25.4199L38.489 25.4333C38.3738 25.6694 38.176 25.8551 37.9331 25.9551C37.6902 26.0551 37.419 26.0625 37.171 25.9759L34.7863 25.1424C34.7347 25.1196 34.6881 25.0869 34.6491 25.046C34.6101 25.0052 34.5796 24.9571 34.5592 24.9045C34.5388 24.8518 34.529 24.7957 34.5304 24.7392C34.5317 24.6828 34.5442 24.6272 34.5671 24.5756L35.2761 23.0273C35.2884 22.9992 35.3037 22.9726 35.3217 22.9478C35.3702 22.8811 35.437 22.8299 35.5139 22.8004V22.8004Z" fill="#2F2E41"/>
<path d="M40.5731 22.4289C42.387 22.4289 43.8575 20.9585 43.8575 19.1446C43.8575 17.3307 42.387 15.8603 40.5731 15.8603C38.7593 15.8603 37.2888 17.3307 37.2888 19.1446C37.2888 20.9585 38.7593 22.4289 40.5731 22.4289Z" fill="#FFC900"/>
<path d="M40.1702 39.5704V32.0214C40.1703 31.9075 40.2156 31.7983 40.2961 31.7178C40.3767 31.6373 40.4858 31.592 40.5997 31.5919H41.5055C41.6194 31.592 41.7286 31.6373 41.8091 31.7178C41.8896 31.7983 41.9349 31.9075 41.935 32.0214V39.5704C41.9349 39.6843 41.8896 39.7935 41.8091 39.874C41.7286 39.9546 41.6194 39.9999 41.5055 40H40.5997C40.4858 39.9999 40.3767 39.9546 40.2961 39.874C40.2156 39.7935 40.1703 39.6843 40.1702 39.5704V39.5704Z" fill="#FFC900"/>
<path d="M38.2065 39.5704V32.0214C38.2067 31.9075 38.252 31.7983 38.3325 31.7178C38.413 31.6373 38.5222 31.592 38.6361 31.5919H39.5418C39.6557 31.592 39.7649 31.6373 39.8455 31.7178C39.926 31.7983 39.9713 31.9075 39.9714 32.0214V39.5704C39.9713 39.6843 39.926 39.7935 39.8455 39.874C39.7649 39.9546 39.6557 39.9999 39.5418 40H38.6361C38.5222 39.9999 38.413 39.9546 38.3325 39.874C38.252 39.7935 38.2067 39.6843 38.2065 39.5704V39.5704Z" fill="#FFC900"/>
<path d="M40.6422 20.3619L40.6456 20.2392C40.4173 20.2328 40.216 20.2185 40.0647 20.108C40.0218 20.0749 39.9866 20.0329 39.9614 19.9849C39.9362 19.937 39.9216 19.8842 39.9186 19.8301C39.9159 19.797 39.9209 19.7638 39.9332 19.733C39.9455 19.7022 39.9647 19.6746 39.9893 19.6524C40.0897 19.5676 40.2513 19.5951 40.3691 19.6491L40.4706 19.6957L40.2759 18.2725L40.1543 18.2892L40.3199 19.4997C40.1599 19.4527 40.0117 19.473 39.9101 19.5587C39.8711 19.5928 39.8405 19.6354 39.8207 19.6832C39.8009 19.731 39.7924 19.7828 39.7959 19.8344C39.7995 19.9071 39.819 19.9781 39.8529 20.0425C39.8868 20.1069 39.9344 20.163 39.9923 20.2071C40.1867 20.3491 40.4393 20.3562 40.6422 20.3619Z" fill="#2F2E41"/>
<path d="M39.5529 18.3936H38.8918V18.5163H39.5529V18.3936Z" fill="#2F2E41"/>
<path d="M41.6395 18.3936H40.9785V18.5163H41.6395V18.3936Z" fill="#2F2E41"/>
<path d="M43.7162 33.2706L42.5803 25.8075C42.5633 25.6949 42.5916 25.5801 42.6591 25.4884C42.7266 25.3967 42.8277 25.3355 42.9403 25.3182L43.8357 25.1819C43.9483 25.1649 44.0631 25.1933 44.1548 25.2608C44.2466 25.3283 44.3078 25.4294 44.325 25.542L45.461 33.005C45.478 33.1177 45.4496 33.2324 45.3821 33.3242C45.3146 33.4159 45.2135 33.4771 45.1009 33.4944L44.2055 33.6306C44.1497 33.6392 44.0928 33.6366 44.038 33.6232C43.9832 33.6097 43.9317 33.5855 43.8862 33.5521C43.8408 33.5187 43.8024 33.4766 43.7732 33.4283C43.744 33.38 43.7246 33.3264 43.7162 33.2706V33.2706Z" fill="#FFC900"/>
<path d="M42.8381 28.4804C42.7903 28.4497 42.7491 28.4097 42.7169 28.3628C42.6847 28.316 42.6622 28.2631 42.6506 28.2075L42.3426 25.7138C42.3088 25.441 42.3811 25.1656 42.5445 24.9446C42.708 24.7235 42.9501 24.5737 43.2209 24.5261L43.2262 24.5563L43.2209 24.5261C43.4796 24.4805 43.746 24.5315 43.9697 24.6693C44.1933 24.8071 44.3586 25.0222 44.4343 25.2738L45.1608 27.6932C45.1727 27.7484 45.1736 27.8053 45.1635 27.8609C45.1533 27.9164 45.1323 27.9694 45.1017 28.0168C45.0711 28.0642 45.0314 28.1051 44.9849 28.1372C44.9385 28.1692 44.8862 28.1918 44.831 28.2037L43.1615 28.5396C43.1315 28.5461 43.101 28.5493 43.0704 28.5494C42.9879 28.5493 42.9073 28.5253 42.8381 28.4804V28.4804Z" fill="#2F2E41"/>
<path d="M42.9265 33.8747H34.1496C34.0605 33.8747 33.973 33.8519 33.8953 33.8085C33.8176 33.7652 33.7522 33.7026 33.7055 33.6268C33.6588 33.551 33.6323 33.4646 33.6284 33.3756C33.6246 33.2867 33.6435 33.1983 33.6835 33.1187L37.927 24.68C38.2219 24.0937 38.7059 23.624 39.3008 23.3468C39.8957 23.0697 40.5667 23.0014 41.2053 23.1529C41.8439 23.3044 42.4127 23.6669 42.8197 24.1818C43.2267 24.6966 43.4481 25.3337 43.4481 25.99V33.3531C43.4479 33.4914 43.3929 33.624 43.2951 33.7218C43.1973 33.8196 43.0648 33.8746 42.9265 33.8747V33.8747Z" fill="#2F2E41"/>
<path d="M40.6896 16.435C40.0172 16.5851 39.4502 17.0233 38.7742 17.1595C38.4661 17.2216 38.1269 17.2191 37.8439 17.0675C37.6344 16.9537 37.4742 16.7667 37.3938 16.5422C37.3144 16.3126 37.2939 16.0667 37.3343 15.8271C37.3747 15.5876 37.4747 15.362 37.625 15.1712C38.0045 14.7066 38.6095 14.4926 39.19 14.4323C40.3517 14.3115 41.5449 14.6943 42.4905 15.3612C43.4668 16.0497 44.2157 17.0836 44.467 18.2603C44.6013 18.8892 44.588 19.5583 44.3587 20.164C44.1382 20.7436 43.7041 21.2167 43.1456 21.4862C43.0123 21.5505 42.8733 21.6023 42.7304 21.6408C42.7076 21.6479 42.6885 21.6636 42.677 21.6846C42.6656 21.7056 42.6628 21.7302 42.6691 21.7532C42.6755 21.7762 42.6905 21.7959 42.7111 21.808C42.7316 21.8202 42.7561 21.8238 42.7793 21.8183C43.4073 21.6468 43.9491 21.2479 44.2992 20.699C44.6589 20.1237 44.7795 19.4194 44.7241 18.75C44.617 17.4552 43.905 16.2652 42.9096 15.4504C41.9534 14.6677 40.7164 14.1915 39.4726 14.2294C38.8488 14.2483 38.2014 14.4067 37.7163 14.8177C37.5073 14.9945 37.3455 15.2204 37.2454 15.4752C37.1454 15.73 37.1102 16.0057 37.1431 16.2775C37.1709 16.5317 37.2719 16.7724 37.4337 16.9705C37.6315 17.1941 37.9057 17.3357 38.2025 17.3676C38.9379 17.4633 39.5756 17.0465 40.2255 16.7785C40.3914 16.7086 40.5631 16.653 40.7385 16.6125C40.8541 16.5867 40.8052 16.4092 40.6896 16.435V16.435Z" fill="#2F2E41"/>
<path d="M42.5367 15.1339C42.2727 14.1454 42.9618 13.1166 43.8981 12.8079C44.4354 12.6407 45.0118 12.6471 45.5452 12.8263C46.0653 13.0023 46.5322 13.3072 46.9025 13.7125C47.7233 14.5857 48.0869 15.7641 48.257 16.926C48.4327 18.1257 48.3335 19.4397 48.9474 20.5299C49.2019 20.9818 49.5797 21.3776 50.0678 21.5722C50.5231 21.7538 51.0687 21.7546 51.5049 21.5187C51.6099 21.4612 51.707 21.3903 51.7937 21.3077C51.8801 21.2263 51.7497 21.0962 51.6635 21.1776C51.2982 21.5223 50.7537 21.5873 50.2842 21.452C49.7721 21.3045 49.3779 20.9109 49.1181 20.4577C48.8177 19.9335 48.6927 19.3345 48.6244 18.74C48.55 18.0912 48.5213 17.4388 48.4218 16.7926C48.2425 15.627 47.8549 14.457 47.0327 13.5823C46.6567 13.1738 46.1878 12.8619 45.6658 12.6728C45.1283 12.4804 44.5459 12.451 43.9918 12.5883C43.4882 12.7188 43.0442 13.0173 42.7334 13.4345C42.4314 13.8305 42.2778 14.3199 42.2994 14.8175C42.3072 14.941 42.3273 15.0633 42.3592 15.1828C42.3664 15.2056 42.3821 15.2247 42.403 15.2362C42.424 15.2476 42.4486 15.2504 42.4716 15.2441C42.4946 15.2377 42.5143 15.2227 42.5265 15.2021C42.5386 15.1816 42.5423 15.1571 42.5367 15.1339L42.5367 15.1339Z" fill="#2F2E41"/>
<path d="M6.39813 23.5036H1.04324C0.766653 23.5033 0.501481 23.3933 0.305903 23.1977C0.110324 23.0022 0.000311369 22.737 0 22.4604V1.04324C0.000311369 0.766654 0.110324 0.501482 0.305903 0.305903C0.501481 0.110325 0.766653 0.000311369 1.04324 0H15.5677L18.2261 2.37357V6.68903H18.1033V2.42853L15.5209 0.122734H1.04324C0.799194 0.123011 0.565219 0.220081 0.39265 0.39265C0.220081 0.565219 0.123011 0.799194 0.122734 1.04324V22.4604C0.123011 22.7045 0.220081 22.9384 0.39265 23.111C0.565219 23.2836 0.799194 23.3806 1.04324 23.3809H6.39813V23.5036Z" fill="black"/>
<path d="M18.1648 2.45469H16.5078C16.2313 2.45438 15.9661 2.34437 15.7705 2.14879C15.5749 1.95321 15.4649 1.68804 15.4646 1.41145V0.0613673C15.4646 0.0450917 15.4711 0.0294826 15.4826 0.017974C15.4941 0.00646541 15.5097 0 15.526 0C15.5422 0 15.5579 0.00646541 15.5694 0.017974C15.5809 0.0294826 15.5873 0.0450917 15.5873 0.0613673V1.41145C15.5876 1.6555 15.6847 1.88947 15.8573 2.06204C16.0298 2.23461 16.2638 2.33168 16.5078 2.33196H18.1648C18.181 2.33196 18.1967 2.33842 18.2082 2.34993C18.2197 2.36144 18.2261 2.37705 18.2261 2.39332C18.2261 2.4096 18.2197 2.42521 18.2082 2.43672C18.1967 2.44823 18.181 2.45469 18.1648 2.45469Z" fill="black"/>
<path d="M16.1113 5.55374H2.1196C1.9894 5.55374 1.86452 5.60546 1.77245 5.69753C1.68039 5.7896 1.62866 5.91447 1.62866 6.04468C1.62866 6.17488 1.68039 6.29976 1.77245 6.39182C1.86452 6.48389 1.9894 6.53562 2.1196 6.53562H16.1113C16.2415 6.53562 16.3664 6.48389 16.4585 6.39182C16.5505 6.29976 16.6023 6.17488 16.6023 6.04468C16.6023 5.91447 16.5505 5.7896 16.4585 5.69753C16.3664 5.60546 16.2415 5.55374 16.1113 5.55374Z" fill="#1572A1"/>
<path d="M9.05409 3.46725H2.1196C1.98939 3.46725 1.86452 3.51898 1.77245 3.61105C1.68039 3.70312 1.62866 3.82799 1.62866 3.95819C1.62866 4.0884 1.68039 4.21327 1.77245 4.30534C1.86452 4.39741 1.98939 4.44913 2.1196 4.44913H9.05409C9.18429 4.44913 9.30916 4.39741 9.40123 4.30534C9.4933 4.21327 9.54502 4.0884 9.54502 3.95819C9.54502 3.82799 9.4933 3.70312 9.40123 3.61105C9.30916 3.51898 9.18429 3.46725 9.05409 3.46725Z" fill="#1572A1"/>
<path d="M2.1196 9.66534C1.9894 9.66534 1.86452 9.71707 1.77245 9.80914C1.68039 9.90121 1.62866 10.0261 1.62866 10.1563C1.62866 10.2865 1.68039 10.4114 1.77245 10.5034C1.86452 10.5955 1.9894 10.6472 2.1196 10.6472H6.5049V9.66534H2.1196Z" fill="#1572A1"/>
<path d="M2.1196 7.57886C2.05513 7.57886 1.99129 7.59156 1.93173 7.61623C1.87216 7.6409 1.81804 7.67706 1.77245 7.72265C1.72687 7.76823 1.6907 7.82235 1.66603 7.88192C1.64136 7.94148 1.62866 8.00532 1.62866 8.06979C1.62866 8.13426 1.64136 8.1981 1.66603 8.25766C1.6907 8.31722 1.72687 8.37134 1.77245 8.41693C1.81804 8.46252 1.87216 8.49868 1.93173 8.52335C1.99129 8.54802 2.05513 8.56072 2.1196 8.56072H6.5049V7.57886H2.1196Z" fill="#1572A1"/>
<path d="M6.53553 20.0671H2.60558C2.33712 20.0668 2.07975 19.96 1.88992 19.7702C1.7001 19.5804 1.59332 19.323 1.59302 19.0545V13.8997C1.59332 13.6312 1.7001 13.3738 1.88992 13.184C2.07975 12.9942 2.33712 12.8874 2.60558 12.8871H6.53553V20.0671Z" fill="#FFC900"/>
<path d="M12.8723 30.1006H7.51736C7.24077 30.1003 6.9756 29.9903 6.78002 29.7947C6.58444 29.5992 6.47443 29.334 6.47412 29.0574V7.64023C6.47443 7.36364 6.58444 7.09847 6.78002 6.90289C6.9756 6.70731 7.24077 6.5973 7.51736 6.59698H22.0418L24.7002 8.97056V13.0405H24.5775V9.02551L21.995 6.71972H7.51736C7.27331 6.72 7.03934 6.81707 6.86677 6.98963C6.6942 7.1622 6.59713 7.39618 6.59686 7.64023V29.0574C6.59713 29.3014 6.6942 29.5354 6.86677 29.708C7.03934 29.8806 7.27331 29.9776 7.51736 29.9779H12.8723V30.1006Z" fill="black"/>
<path d="M24.6389 9.05167H22.982C22.7054 9.05136 22.4402 8.94134 22.2446 8.74577C22.049 8.55019 21.939 8.28502 21.9387 8.00843V6.65835C21.9387 6.64208 21.9452 6.62647 21.9567 6.61496C21.9682 6.60345 21.9838 6.59698 22.0001 6.59698C22.0164 6.59698 22.032 6.60345 22.0435 6.61496C22.055 6.62647 22.0615 6.64208 22.0615 6.65835V8.00843C22.0617 8.25248 22.1588 8.48645 22.3314 8.65902C22.5039 8.83159 22.7379 8.92866 22.982 8.92893H24.6389C24.6552 8.92893 24.6708 8.9354 24.6823 8.94691C24.6938 8.95842 24.7002 8.97403 24.7002 8.9903C24.7002 9.00658 24.6938 9.02219 24.6823 9.03369C24.6708 9.0452 24.6552 9.05167 24.6389 9.05167Z" fill="black"/>
<path d="M22.5857 12.1507H8.59397C8.46376 12.1507 8.33889 12.2024 8.24682 12.2945C8.15475 12.3866 8.10303 12.5114 8.10303 12.6416C8.10303 12.7718 8.15475 12.8967 8.24682 12.9888C8.33889 13.0808 8.46376 13.1326 8.59397 13.1326H22.5857C22.7159 13.1326 22.8408 13.0808 22.9328 12.9888C23.0249 12.8967 23.0766 12.7718 23.0766 12.6416C23.0766 12.5114 23.0249 12.3866 22.9328 12.2945C22.8408 12.2024 22.7159 12.1507 22.5857 12.1507Z" fill="#E6E6E6"/>
<path d="M15.5285 10.0642H8.59397C8.46376 10.0642 8.33889 10.116 8.24682 10.208C8.15475 10.3001 8.10303 10.425 8.10303 10.5552C8.10303 10.6854 8.15475 10.8103 8.24682 10.9023C8.33889 10.9944 8.46376 11.0461 8.59397 11.0461H15.5285C15.6587 11.0461 15.7835 10.9944 15.8756 10.9023C15.9677 10.8103 16.0194 10.6854 16.0194 10.5552C16.0194 10.425 15.9677 10.3001 15.8756 10.208C15.7835 10.116 15.6587 10.0642 15.5285 10.0642Z" fill="#E6E6E6"/>
<path d="M22.5857 12.1507H8.59397C8.46376 12.1507 8.33889 12.2024 8.24682 12.2945C8.15475 12.3866 8.10303 12.5114 8.10303 12.6416C8.10303 12.7718 8.15475 12.8967 8.24682 12.9888C8.33889 13.0808 8.46376 13.1326 8.59397 13.1326H22.5857C22.7159 13.1326 22.8408 13.0808 22.9328 12.9888C23.0249 12.8967 23.0766 12.7718 23.0766 12.6416C23.0766 12.5114 23.0249 12.3866 22.9328 12.2945C22.8408 12.2024 22.7159 12.1507 22.5857 12.1507Z" fill="#E6E6E6"/>
<path d="M15.5285 10.0642H8.59397C8.46376 10.0642 8.33889 10.116 8.24682 10.208C8.15475 10.3001 8.10303 10.425 8.10303 10.5552C8.10303 10.6854 8.15475 10.8103 8.24682 10.9023C8.33889 10.9944 8.46376 11.0461 8.59397 11.0461H15.5285C15.6587 11.0461 15.7835 10.9944 15.8756 10.9023C15.9677 10.8103 16.0194 10.6854 16.0194 10.5552C16.0194 10.425 15.9677 10.3001 15.8756 10.208C15.7835 10.116 15.6587 10.0642 15.5285 10.0642Z" fill="#E6E6E6"/>
<path d="M8.59396 16.2623C8.46376 16.2623 8.33889 16.3141 8.24682 16.4061C8.15475 16.4982 8.10303 16.6231 8.10303 16.7533C8.10303 16.8835 8.15475 17.0083 8.24682 17.1004C8.33889 17.1925 8.46376 17.2442 8.59396 17.2442H12.9793V16.2623H8.59396Z" fill="#E6E6E6"/>
<path d="M8.59396 14.1758C8.46376 14.1758 8.33889 14.2276 8.24682 14.3196C8.15475 14.4117 8.10303 14.5366 8.10303 14.6668C8.10303 14.797 8.15475 14.9219 8.24682 15.0139C8.33889 15.106 8.46376 15.1577 8.59396 15.1577H12.9793V14.1758H8.59396Z" fill="#E6E6E6"/>
<path d="M8.59396 16.2623C8.46376 16.2623 8.33889 16.3141 8.24682 16.4061C8.15475 16.4982 8.10303 16.6231 8.10303 16.7533C8.10303 16.8835 8.15475 17.0083 8.24682 17.1004C8.33889 17.1925 8.46376 17.2442 8.59396 17.2442H12.9793V16.2623H8.59396Z" fill="#E6E6E6"/>
<path d="M8.59396 14.1758C8.46376 14.1758 8.33889 14.2276 8.24682 14.3196C8.15475 14.4117 8.10303 14.5366 8.10303 14.6668C8.10303 14.797 8.15475 14.9219 8.24682 15.0139C8.33889 15.106 8.46376 15.1577 8.59396 15.1577H12.9793V14.1758H8.59396Z" fill="#E6E6E6"/>
<path d="M13.0099 26.6641H9.07994C8.81149 26.6638 8.55412 26.557 8.36429 26.3672C8.17446 26.1773 8.06769 25.92 8.06738 25.6515V20.4967C8.06769 20.2282 8.17446 19.9708 8.36429 19.781C8.55412 19.5912 8.81149 19.4844 9.07994 19.4841H13.0099V26.6641Z" fill="#FFC900"/>
<path d="M13.356 13.2553C13.2035 13.3484 13.0774 13.4791 12.9899 13.635C12.9025 13.7908 12.8565 13.9665 12.8564 14.1451V14.2986H12.9792V14.1451C12.9794 13.9422 13.0466 13.745 13.1703 13.5841C13.294 13.4233 13.4674 13.3077 13.6634 13.2553H13.356ZM28.4241 13.1019H13.8997C13.6231 13.1022 13.3579 13.2122 13.1624 13.4078C12.9668 13.6034 12.8568 13.8686 12.8564 14.1451V35.5623C12.8568 35.8389 12.9669 36.104 13.1624 36.2996C13.358 36.4951 13.6231 36.6052 13.8997 36.6056H30.0393C30.3159 36.6052 30.581 36.4951 30.7765 36.2996C30.9721 36.104 31.0821 35.8389 31.0825 35.5623V15.4756L28.4241 13.1019ZM30.9598 35.5623C30.9595 35.8064 30.8624 36.0403 30.6899 36.2129C30.5173 36.3855 30.2833 36.4825 30.0393 36.4828H13.8997C13.6556 36.4825 13.4217 36.3855 13.2491 36.2129C13.0766 36.0403 12.9795 35.8064 12.9792 35.5623V14.1451C12.9794 13.9422 13.0466 13.745 13.1703 13.5841C13.294 13.4233 13.4674 13.3077 13.6634 13.2553C13.7405 13.2348 13.8199 13.2245 13.8997 13.2246H28.3775L30.9598 15.5302V35.5623ZM13.356 13.2553C13.2035 13.3484 13.0774 13.4791 12.9899 13.635C12.9025 13.7908 12.8565 13.9665 12.8564 14.1451V14.2986H12.9792V14.1451C12.9794 13.9422 13.0466 13.745 13.1703 13.5841C13.294 13.4233 13.4674 13.3077 13.6634 13.2553H13.356Z" fill="#3F3D56"/>
<path d="M31.0212 15.5566H29.3643C29.0877 15.5563 28.8225 15.4463 28.627 15.2507C28.4314 15.0551 28.3214 14.7899 28.321 14.5133V13.1633C28.321 13.147 28.3275 13.1314 28.339 13.1199C28.3505 13.1084 28.3661 13.1019 28.3824 13.1019C28.3987 13.1019 28.4143 13.1084 28.4258 13.1199C28.4373 13.1314 28.4438 13.147 28.4438 13.1633V14.5133C28.4441 14.7574 28.5411 14.9914 28.7137 15.1639C28.8863 15.3365 29.1203 15.4336 29.3643 15.4338H31.0212C31.0375 15.4338 31.0531 15.4403 31.0646 15.4518C31.0762 15.4633 31.0826 15.4789 31.0826 15.4952C31.0826 15.5115 31.0762 15.5271 31.0646 15.5386C31.0531 15.5501 31.0375 15.5566 31.0212 15.5566Z" fill="#3F3D56"/>
<path d="M28.9678 19.6375H14.976C14.8458 19.6375 14.721 19.5858 14.6289 19.4937C14.5368 19.4017 14.4851 19.2768 14.4851 19.1466C14.4851 19.0164 14.5368 18.8915 14.6289 18.7994C14.721 18.7074 14.8458 18.6556 14.976 18.6556H28.9678C29.098 18.6556 29.2228 18.7074 29.3149 18.7994C29.407 18.8915 29.4587 19.0164 29.4587 19.1466C29.4587 19.2768 29.407 19.4017 29.3149 19.4937C29.2228 19.5858 29.098 19.6375 28.9678 19.6375Z" fill="#CCCCCC"/>
<path d="M21.9105 17.551H14.976C14.8458 17.551 14.721 17.4993 14.6289 17.4072C14.5368 17.3152 14.4851 17.1903 14.4851 17.0601C14.4851 16.9299 14.5368 16.805 14.6289 16.7129C14.721 16.6209 14.8458 16.5692 14.976 16.5692H21.9105C22.0407 16.5692 22.1656 16.6209 22.2577 16.7129C22.3498 16.805 22.4015 16.9299 22.4015 17.0601C22.4015 17.1903 22.3498 17.3152 22.2577 17.4072C22.1656 17.4993 22.0407 17.551 21.9105 17.551Z" fill="#CCCCCC"/>
<path d="M28.9678 23.7491H14.976C14.8458 23.7491 14.721 23.6974 14.6289 23.6053C14.5368 23.5133 14.4851 23.3884 14.4851 23.2582C14.4851 23.128 14.5368 23.0031 14.6289 22.911C14.721 22.819 14.8458 22.7672 14.976 22.7672H28.9678C29.098 22.7672 29.2228 22.819 29.3149 22.911C29.407 23.0031 29.4587 23.128 29.4587 23.2582C29.4587 23.3884 29.407 23.5133 29.3149 23.6053C29.2228 23.6974 29.098 23.7491 28.9678 23.7491Z" fill="#CCCCCC"/>
<path d="M21.9105 21.6626H14.976C14.8458 21.6626 14.721 21.6109 14.6289 21.5188C14.5368 21.4268 14.4851 21.3019 14.4851 21.1717C14.4851 21.0415 14.5368 20.9166 14.6289 20.8245C14.721 20.7325 14.8458 20.6808 14.976 20.6808H21.9105C22.0407 20.6808 22.1656 20.7325 22.2577 20.8245C22.3498 20.9166 22.4015 21.0415 22.4015 21.1717C22.4015 21.3019 22.3498 21.4268 22.2577 21.5188C22.1656 21.6109 22.0407 21.6626 21.9105 21.6626Z" fill="#CCCCCC"/>
<path d="M28.4719 33.169H15.462C15.1936 33.1687 14.9362 33.0619 14.7464 32.8721C14.5565 32.6823 14.4498 32.4249 14.4495 32.1564V27.0016C14.4498 26.7331 14.5565 26.4757 14.7464 26.2859C14.9362 26.0961 15.1936 25.9893 15.462 25.989H28.4719C28.7403 25.9893 28.9977 26.0961 29.1875 26.2859C29.3774 26.4757 29.4842 26.7331 29.4845 27.0016V32.1564C29.4842 32.4249 29.3774 32.6823 29.1876 32.8721C28.9977 33.0619 28.7403 33.1687 28.4719 33.169Z" fill="#FFC900"/>
</g>
<defs>
<clipPath id="clip0_153_3425">
<rect width="51.8222" height="40" fill="white"/>
</clipPath>
</defs>
</svg>
