<svg width="124" height="220" viewBox="0 0 124 220" fill="none" xmlns="http://www.w3.org/2000/svg">
<g clip-path="url(#clip0_68_95)">
<path d="M96.0951 206.447H30.4398C28.0473 206.447 25.6782 205.976 23.4679 205.06C21.2575 204.144 19.249 202.803 17.5573 201.111C15.8655 199.419 14.5236 197.411 13.608 195.2C12.6924 192.99 12.2212 190.621 12.2212 188.228V18.2186C12.2267 13.3884 14.1479 8.75763 17.5633 5.34216C20.9788 1.92668 25.6096 0.00546803 30.4398 0H96.0948C100.925 0.00545305 105.556 1.92666 108.971 5.34213C112.387 8.75761 114.308 13.3884 114.314 18.2186V48.925H115.445V71.5495H114.314V188.228C114.313 193.06 112.394 197.694 108.977 201.111C105.561 204.527 100.927 206.447 96.0951 206.447ZM30.4398 0.56578C25.7596 0.571065 21.2726 2.43261 17.9632 5.74202C14.6538 9.05143 12.7923 13.5384 12.787 18.2186V188.228C12.7869 190.546 13.2435 192.842 14.1306 194.984C15.0178 197.125 16.3181 199.071 17.9573 200.711C19.5965 202.35 21.5425 203.65 23.6843 204.537C25.826 205.424 28.1216 205.881 30.4398 205.881H96.0948C100.777 205.881 105.267 204.021 108.577 200.711C111.888 197.4 113.748 192.91 113.748 188.228V70.9837H114.879V49.4908H113.748V18.2186C113.742 13.5384 111.881 9.05143 108.571 5.74202C105.262 2.43261 100.775 0.571065 96.0949 0.56578H30.4398Z" fill="#3F3D56"/>
<path d="M96.8182 201.781H30.8483C27.222 201.777 23.7455 200.334 21.1813 197.77C18.6171 195.206 17.1747 191.73 17.1705 188.103V18.3438C17.1747 14.7175 18.6171 11.2409 21.1813 8.67677C23.7455 6.1126 27.222 4.67021 30.8483 4.66602H39.2718L39.1133 5.05554C38.7375 5.97895 38.5944 6.98055 38.6966 7.97224C38.7988 8.96392 39.1431 9.91531 39.6992 10.7427C40.2553 11.5701 41.0063 12.2482 41.8859 12.7173C42.7656 13.1864 43.7471 13.4321 44.744 13.4328H82.3569C83.3538 13.4321 84.3353 13.1863 85.2149 12.7172C86.0946 12.2481 86.8455 11.57 87.4016 10.7426C87.9577 9.91525 88.302 8.96387 88.4042 7.97219C88.5063 6.98052 88.3632 5.97894 87.9875 5.05554L87.829 4.66602H96.8182C100.445 4.67023 103.921 6.11263 106.485 8.6768C109.049 11.241 110.492 14.7175 110.496 18.3438V188.103C110.492 191.73 109.049 195.206 106.485 197.77C103.921 200.334 100.445 201.777 96.8182 201.781ZM30.8483 5.2318C27.372 5.23581 24.0393 6.61853 21.5812 9.07664C19.1231 11.5347 17.7403 14.8675 17.7363 18.3438V188.103C17.7404 191.58 19.1231 194.912 21.5812 197.37C24.0393 199.828 27.372 201.211 30.8483 201.215H96.8182C100.295 201.211 103.627 199.828 106.085 197.37C108.543 194.912 109.926 191.58 109.93 188.103V18.3438C109.926 14.8675 108.543 11.5348 106.085 9.07666C103.627 6.61856 100.295 5.23582 96.8182 5.2318H88.6562C88.9919 6.23147 89.085 7.29663 88.9279 8.33938C88.7707 9.38213 88.3679 10.3726 87.7526 11.2289C87.1373 12.0853 86.3271 12.7831 85.3889 13.2647C84.4508 13.7462 83.4116 13.9978 82.3571 13.9986H44.7438C43.6893 13.9978 42.6501 13.7463 41.7119 13.2647C40.7738 12.7832 39.9636 12.0854 39.3482 11.229C38.7329 10.3726 38.33 9.38219 38.1728 8.33943C38.0157 7.29667 38.1088 6.23149 38.4444 5.2318H30.8483Z" fill="#CCCCCC"/>
<path d="M117.752 110.544H5.97549C4.39123 110.542 2.87238 109.912 1.75214 108.792C0.631909 107.671 0.00178277 106.153 0 104.568V68.7155C0.00178277 67.1312 0.631909 65.6124 1.75214 64.4921C2.87238 63.3719 4.39123 62.7418 5.97549 62.74H117.752C119.337 62.7418 120.855 63.3719 121.976 64.4921C123.096 65.6124 123.726 67.1312 123.728 68.7155V104.568C123.726 106.153 123.096 107.671 121.976 108.792C120.855 109.912 119.336 110.542 117.752 110.544Z" fill="white"/>
<path d="M117.752 110.544H5.97549C4.39123 110.542 2.87238 109.912 1.75214 108.792C0.631909 107.671 0.00178277 106.153 0 104.568V68.7155C0.00178277 67.1312 0.631909 65.6124 1.75214 64.4921C2.87238 63.3719 4.39123 62.7418 5.97549 62.74H117.752C119.337 62.7418 120.855 63.3719 121.976 64.4921C123.096 65.6124 123.726 67.1312 123.728 68.7155V104.568C123.726 106.153 123.096 107.671 121.976 108.792C120.855 109.912 119.336 110.542 117.752 110.544ZM5.97549 63.443C4.57762 63.4446 3.23746 64.0006 2.24902 64.989C1.26058 65.9774 0.70458 67.3176 0.702995 68.7155V104.568C0.70458 105.966 1.26058 107.306 2.24902 108.295C3.23746 109.283 4.57762 109.839 5.97549 109.841H117.752C119.15 109.839 120.49 109.283 121.479 108.295C122.467 107.306 123.023 105.966 123.025 104.568V68.7155C123.023 67.3176 122.467 65.9774 121.479 64.989C120.49 64.0006 119.15 63.4446 117.752 63.443H5.97549Z" fill="#3F3D56"/>
<path d="M76.5217 84.7087H37.5054C36.7596 84.7087 36.0443 84.4125 35.517 83.8851C34.9896 83.3577 34.6934 82.6425 34.6934 81.8967C34.6934 81.1509 34.9896 80.4357 35.517 79.9083C36.0443 79.381 36.7596 79.0847 37.5054 79.0847H76.5217C77.2675 79.0847 77.9827 79.381 78.5101 79.9083C79.0374 80.4357 79.3337 81.1509 79.3337 81.8967C79.3337 82.6425 79.0374 83.3577 78.5101 83.8851C77.9827 84.4125 77.2675 84.7087 76.5217 84.7087Z" fill="#FFC900"/>
<path d="M112.726 94.1992H37.5054C36.7596 94.1992 36.0443 93.9029 35.517 93.3756C34.9896 92.8482 34.6934 92.133 34.6934 91.3872C34.6934 90.6414 34.9896 89.9262 35.517 89.3988C36.0443 88.8715 36.7596 88.5752 37.5054 88.5752H112.726C113.472 88.5752 114.187 88.8715 114.714 89.3988C115.242 89.9262 115.538 90.6414 115.538 91.3872C115.538 92.133 115.242 92.8482 114.714 93.3756C114.187 93.9029 113.472 94.1992 112.726 94.1992Z" fill="#FFC900"/>
<path d="M18.7347 97.1869C24.5585 97.1869 29.2796 92.4658 29.2796 86.642C29.2796 80.8181 24.5585 76.097 18.7347 76.097C12.9108 76.097 8.1897 80.8181 8.1897 86.642C8.1897 92.4658 12.9108 97.1869 18.7347 97.1869Z" fill="#FFC900"/>
<path d="M112.722 105.623H102.88C102.134 105.623 101.419 105.327 100.891 104.799C100.364 104.272 100.068 103.557 100.068 102.811C100.068 102.065 100.364 101.35 100.891 100.823C101.419 100.295 102.134 99.9989 102.88 99.9989H112.722C113.091 99.9989 113.457 100.072 113.798 100.213C114.139 100.354 114.449 100.561 114.71 100.823C114.971 101.084 115.178 101.394 115.32 101.735C115.461 102.076 115.534 102.442 115.534 102.811C115.534 103.18 115.461 103.546 115.32 103.887C115.178 104.228 114.971 104.538 114.71 104.799C114.449 105.06 114.139 105.268 113.798 105.409C113.457 105.55 113.091 105.623 112.722 105.623Z" fill="white"/>
<path d="M112.722 105.623H102.88C102.134 105.623 101.419 105.327 100.891 104.799C100.364 104.272 100.068 103.557 100.068 102.811C100.068 102.065 100.364 101.35 100.891 100.823C101.419 100.295 102.134 99.9989 102.88 99.9989H112.722C113.091 99.9989 113.457 100.072 113.798 100.213C114.139 100.354 114.449 100.561 114.71 100.823C114.971 101.084 115.178 101.394 115.32 101.735C115.461 102.076 115.534 102.442 115.534 102.811C115.534 103.18 115.461 103.546 115.32 103.887C115.178 104.228 114.971 104.538 114.71 104.799C114.449 105.06 114.139 105.268 113.798 105.409C113.457 105.55 113.091 105.623 112.722 105.623Z" fill="#CCCCCC"/>
<path d="M95.7912 53.548H33.5942C32.7126 53.547 31.8675 53.1963 31.2441 52.573C30.6208 51.9497 30.2702 51.1045 30.2692 50.223V30.273C30.2702 29.3915 30.6208 28.5463 31.2441 27.923C31.8675 27.2996 32.7126 26.949 33.5942 26.948H95.7912C96.6727 26.949 97.5178 27.2996 98.1412 27.923C98.7645 28.5463 99.1152 29.3915 99.1162 30.273V50.223C99.1152 51.1045 98.7645 51.9496 98.1412 52.573C97.5178 53.1963 96.6727 53.547 95.7912 53.548ZM33.5942 27.3392C32.8163 27.3401 32.0706 27.6494 31.5206 28.1994C30.9706 28.7494 30.6612 29.4952 30.6603 30.273V50.223C30.6612 51.0008 30.9706 51.7465 31.5206 52.2965C32.0706 52.8465 32.8163 53.1559 33.5942 53.1568H95.7912C96.569 53.1559 97.3147 52.8465 97.8647 52.2965C98.4147 51.7465 98.7241 51.0008 98.725 50.223V30.273C98.7241 29.4952 98.4147 28.7494 97.8647 28.1994C97.3147 27.6494 96.569 27.3401 95.7912 27.3392H33.5942Z" fill="#CCCCCC"/>
<path d="M72.8489 39.1722H51.1386C50.724 39.1717 50.3266 39.0066 50.0336 38.7132C49.7406 38.4198 49.576 38.0222 49.576 37.6075C49.576 37.1929 49.7406 36.7953 50.0336 36.5019C50.3266 36.2085 50.724 36.0434 51.1386 36.0428H72.8489C73.2635 36.0434 73.661 36.2085 73.954 36.5019C74.247 36.7953 74.4115 37.1929 74.4115 37.6075C74.4115 38.0222 74.247 38.4198 73.954 38.7132C73.661 39.0066 73.2635 39.1717 72.8489 39.1722Z" fill="#E6E6E6"/>
<path d="M92.9945 44.4531H51.1387C50.724 44.4526 50.3266 44.2875 50.0336 43.9941C49.7406 43.7007 49.576 43.303 49.576 42.8884C49.576 42.4738 49.7406 42.0761 50.0336 41.7828C50.3266 41.4894 50.724 41.3243 51.1387 41.3237H92.9945C93.2002 41.3235 93.4039 41.3637 93.5939 41.4422C93.784 41.5207 93.9567 41.636 94.1023 41.7813C94.2478 41.9266 94.3632 42.0992 94.442 42.2892C94.5208 42.4791 94.5613 42.6828 94.5613 42.8884C94.5613 43.0941 94.5208 43.2977 94.442 43.4877C94.3632 43.6777 94.2478 43.8503 94.1023 43.9956C93.9567 44.1409 93.784 44.2561 93.5939 44.3346C93.4039 44.4131 93.2002 44.4534 92.9945 44.4531Z" fill="#E6E6E6"/>
<path d="M40.6939 46.1156C43.9346 46.1156 46.5616 43.4886 46.5616 40.248C46.5616 37.0074 43.9346 34.3803 40.6939 34.3803C37.4533 34.3803 34.8263 37.0074 34.8263 40.248C34.8263 43.4886 37.4533 46.1156 40.6939 46.1156Z" fill="#E6E6E6"/>
<path d="M92.9921 50.8098H87.5157C87.31 50.81 87.1063 50.7698 86.9162 50.6913C86.7261 50.6127 86.5534 50.4975 86.4079 50.3522C86.2624 50.2069 86.1469 50.0343 86.0682 49.8443C85.9894 49.6543 85.9489 49.4507 85.9489 49.245C85.9489 49.0394 85.9894 48.8357 86.0682 48.6458C86.1469 48.4558 86.2624 48.2832 86.4079 48.1379C86.5534 47.9926 86.7261 47.8773 86.9162 47.7988C87.1063 47.7203 87.31 47.6801 87.5157 47.6803H92.9921C93.4068 47.6809 93.8042 47.846 94.0972 48.1394C94.3902 48.4327 94.5547 48.8304 94.5547 49.245C94.5547 49.6597 94.3902 50.0573 94.0972 50.3507C93.8042 50.6441 93.4068 50.8092 92.9921 50.8098Z" fill="white"/>
<path d="M92.9921 50.8098H87.5157C87.31 50.81 87.1063 50.7698 86.9162 50.6913C86.7261 50.6127 86.5534 50.4975 86.4079 50.3522C86.2624 50.2069 86.1469 50.0343 86.0682 49.8443C85.9894 49.6543 85.9489 49.4507 85.9489 49.245C85.9489 49.0394 85.9894 48.8357 86.0682 48.6458C86.1469 48.4558 86.2624 48.2832 86.4079 48.1379C86.5534 47.9926 86.7261 47.8773 86.9162 47.7988C87.1063 47.7203 87.31 47.6801 87.5157 47.6803H92.9921C93.4068 47.6809 93.8042 47.846 94.0972 48.1394C94.3902 48.4327 94.5547 48.8304 94.5547 49.245C94.5547 49.6597 94.3902 50.0573 94.0972 50.3507C93.8042 50.6441 93.4068 50.8092 92.9921 50.8098Z" fill="#CCCCCC"/>
<path d="M95.7912 145.77H33.5942C32.7126 145.769 31.8675 145.418 31.2441 144.795C30.6208 144.172 30.2702 143.327 30.2692 142.445V122.495C30.2702 121.614 30.6208 120.768 31.2441 120.145C31.8675 119.522 32.7126 119.171 33.5942 119.17H95.7912C96.6727 119.171 97.5178 119.522 98.1412 120.145C98.7645 120.768 99.1152 121.614 99.1162 122.495V142.445C99.1152 143.327 98.7645 144.172 98.1412 144.795C97.5178 145.418 96.6727 145.769 95.7912 145.77ZM33.5942 119.561C32.8163 119.562 32.0706 119.872 31.5206 120.422C30.9706 120.972 30.6612 121.717 30.6603 122.495V142.445C30.6612 143.223 30.9706 143.969 31.5206 144.519C32.0706 145.069 32.8163 145.378 33.5942 145.379H95.7912C96.569 145.378 97.3147 145.069 97.8647 144.519C98.4147 143.969 98.7241 143.223 98.725 142.445V122.495C98.7241 121.717 98.4147 120.972 97.8647 120.422C97.3147 119.872 96.569 119.562 95.7912 119.561H33.5942Z" fill="#CCCCCC"/>
<path d="M72.849 131.394H51.1387C50.7237 131.394 50.3257 131.23 50.0323 130.936C49.7388 130.643 49.574 130.245 49.574 129.83C49.574 129.415 49.7388 129.017 50.0323 128.723C50.3257 128.43 50.7237 128.265 51.1387 128.265H72.849C73.2636 128.265 73.661 128.431 73.954 128.724C74.247 129.017 74.4116 129.415 74.4116 129.83C74.4116 130.244 74.247 130.642 73.954 130.935C73.661 131.229 73.2636 131.394 72.849 131.394Z" fill="#E6E6E6"/>
<path d="M92.9945 136.675H51.1387C50.724 136.675 50.3266 136.51 50.0336 136.216C49.7406 135.923 49.576 135.525 49.576 135.111C49.576 134.696 49.7406 134.298 50.0336 134.005C50.3266 133.712 50.724 133.546 51.1387 133.546H92.9945C93.4095 133.546 93.8075 133.711 94.1009 134.004C94.3944 134.298 94.5592 134.696 94.5592 135.111C94.5592 135.526 94.3944 135.924 94.1009 136.217C93.8075 136.51 93.4095 136.675 92.9945 136.675Z" fill="#E6E6E6"/>
<path d="M40.6939 138.338C43.9346 138.338 46.5616 135.711 46.5616 132.47C46.5616 129.23 43.9346 126.602 40.6939 126.602C37.4533 126.602 34.8263 129.23 34.8263 132.47C34.8263 135.711 37.4533 138.338 40.6939 138.338Z" fill="#E6E6E6"/>
<path d="M92.9921 143.032H87.5156C87.1006 143.032 86.7027 142.867 86.4092 142.574C86.1158 142.28 85.9509 141.882 85.9509 141.467C85.9509 141.052 86.1158 140.654 86.4092 140.361C86.7027 140.067 87.1006 139.903 87.5156 139.903H92.9921C93.4067 139.903 93.8042 140.068 94.0972 140.362C94.3901 140.655 94.5547 141.053 94.5547 141.467C94.5547 141.882 94.3901 142.279 94.0972 142.573C93.8042 142.866 93.4067 143.031 92.9921 143.032Z" fill="white"/>
<path d="M92.9921 143.032H87.5156C87.1006 143.032 86.7027 142.867 86.4092 142.574C86.1158 142.28 85.9509 141.882 85.9509 141.467C85.9509 141.052 86.1158 140.654 86.4092 140.361C86.7027 140.067 87.1006 139.903 87.5156 139.903H92.9921C93.4067 139.903 93.8042 140.068 94.0972 140.362C94.3901 140.655 94.5547 141.053 94.5547 141.467C94.5547 141.882 94.3901 142.279 94.0972 142.573C93.8042 142.866 93.4067 143.031 92.9921 143.032Z" fill="#CCCCCC"/>
<path d="M95.7912 182.829H33.5942C32.7126 182.828 31.8675 182.477 31.2441 181.854C30.6208 181.23 30.2702 180.385 30.2692 179.504V159.554C30.2702 158.672 30.6208 157.827 31.2441 157.204C31.8675 156.58 32.7126 156.23 33.5942 156.229H95.7912C96.6727 156.23 97.5178 156.58 98.1412 157.204C98.7645 157.827 99.1152 158.672 99.1162 159.554V179.504C99.1152 180.385 98.7645 181.23 98.1412 181.854C97.5178 182.477 96.6727 182.828 95.7912 182.829ZM33.5942 156.62C32.8163 156.621 32.0706 156.93 31.5206 157.48C30.9706 158.03 30.6612 158.776 30.6603 159.554V179.504C30.6612 180.282 30.9706 181.027 31.5206 181.577C32.0706 182.127 32.8163 182.437 33.5942 182.438H95.7912C96.569 182.437 97.3147 182.127 97.8647 181.577C98.4147 181.027 98.7241 180.282 98.725 179.504V159.554C98.7241 158.776 98.4147 158.03 97.8647 157.48C97.3147 156.93 96.569 156.621 95.7912 156.62H33.5942Z" fill="#CCCCCC"/>
<path d="M72.849 168.453H51.1387C50.7237 168.453 50.3257 168.288 50.0323 167.995C49.7388 167.701 49.574 167.303 49.574 166.888C49.574 166.473 49.7388 166.075 50.0323 165.782C50.3257 165.488 50.7237 165.324 51.1387 165.324H72.849C73.2636 165.324 73.661 165.489 73.954 165.783C74.247 166.076 74.4116 166.474 74.4116 166.888C74.4116 167.303 74.247 167.701 73.954 167.994C73.661 168.287 73.2636 168.452 72.849 168.453Z" fill="#E6E6E6"/>
<path d="M92.9945 173.734H51.1387C50.724 173.733 50.3266 173.568 50.0336 173.275C49.7406 172.981 49.576 172.584 49.576 172.169C49.576 171.755 49.7406 171.357 50.0336 171.063C50.3266 170.77 50.724 170.605 51.1387 170.604H92.9945C93.4095 170.604 93.8075 170.769 94.1009 171.063C94.3944 171.356 94.5592 171.754 94.5592 172.169C94.5592 172.584 94.3944 172.982 94.1009 173.276C93.8075 173.569 93.4095 173.734 92.9945 173.734Z" fill="#E6E6E6"/>
<path d="M40.6939 175.396C43.9346 175.396 46.5616 172.769 46.5616 169.529C46.5616 166.288 43.9346 163.661 40.6939 163.661C37.4533 163.661 34.8263 166.288 34.8263 169.529C34.8263 172.769 37.4533 175.396 40.6939 175.396Z" fill="#E6E6E6"/>
<path d="M92.9921 180.09H87.5156C87.1006 180.09 86.7027 179.926 86.4092 179.632C86.1158 179.339 85.9509 178.941 85.9509 178.526C85.9509 178.111 86.1158 177.713 86.4092 177.419C86.7027 177.126 87.1006 176.961 87.5156 176.961H92.9921C93.4067 176.962 93.8042 177.127 94.0972 177.42C94.3901 177.713 94.5547 178.111 94.5547 178.526C94.5547 178.94 94.3901 179.338 94.0972 179.631C93.8042 179.925 93.4067 180.09 92.9921 180.09Z" fill="white"/>
<path d="M92.9921 180.09H87.5156C87.1006 180.09 86.7027 179.926 86.4092 179.632C86.1158 179.339 85.9509 178.941 85.9509 178.526C85.9509 178.111 86.1158 177.713 86.4092 177.419C86.7027 177.126 87.1006 176.961 87.5156 176.961H92.9921C93.4067 176.962 93.8042 177.127 94.0972 177.42C94.3901 177.713 94.5547 178.111 94.5547 178.526C94.5547 178.94 94.3901 179.338 94.0972 179.631C93.8042 179.925 93.4067 180.09 92.9921 180.09Z" fill="#CCCCCC"/>
<path d="M57.0467 216.638H60.515L62.1648 203.261L57.0461 203.261L57.0467 216.638Z" fill="#FFB8B8"/>
<path d="M56.1621 215.506L62.9921 215.506H62.9924C63.564 215.506 64.13 215.618 64.6581 215.837C65.1862 216.056 65.6661 216.376 66.0702 216.78C66.4744 217.185 66.7951 217.664 67.0138 218.192C67.2325 218.721 67.3451 219.287 67.3451 219.858V220L56.1623 220L56.1621 215.506Z" fill="#2F2E41"/>
<path d="M43.1851 216.638H46.6534L48.3032 203.261L43.1846 203.261L43.1851 216.638Z" fill="#FFB8B8"/>
<path d="M42.3004 215.506L49.1305 215.506H49.1307C49.7023 215.506 50.2683 215.618 50.7964 215.837C51.3245 216.056 51.8044 216.376 52.2086 216.78C52.6127 217.185 52.9334 217.664 53.1521 218.192C53.3708 218.721 53.4834 219.287 53.4834 219.858V220L42.3006 220L42.3004 215.506Z" fill="#2F2E41"/>
<path d="M57.739 124.025C61.5763 124.025 64.687 120.915 64.687 117.077C64.687 113.24 61.5763 110.129 57.739 110.129C53.9017 110.129 50.7909 113.24 50.7909 117.077C50.7909 120.915 53.9017 124.025 57.739 124.025Z" fill="#FFB8B8"/>
<path d="M62.4113 213.751H55.9754C55.8069 213.751 55.6401 213.717 55.4847 213.652C55.3292 213.588 55.1882 213.492 55.0698 213.372C54.9514 213.253 54.858 213.11 54.7949 212.954C54.7319 212.798 54.7005 212.631 54.7025 212.462L55.0765 181.901C55.0779 181.793 55.0376 181.688 54.9639 181.608C54.8903 181.528 54.7889 181.48 54.6805 181.473C54.5722 181.465 54.4652 181.5 54.3816 181.569C54.298 181.638 54.2441 181.737 54.2309 181.845L50.4853 212.632C50.4474 212.94 50.2981 213.224 50.0653 213.431C49.8326 213.637 49.5325 213.751 49.2216 213.751H42.7238C42.5483 213.751 42.3746 213.715 42.2138 213.644C42.053 213.574 41.9084 213.471 41.7892 213.342C41.67 213.213 41.5788 213.061 41.5212 212.895C41.4636 212.73 41.441 212.554 41.4547 212.379L45.7454 157.477L45.8621 157.464L66.4081 155.245L63.683 212.538C63.6678 212.865 63.5271 213.174 63.2903 213.4C63.0534 213.625 62.7386 213.751 62.4113 213.751Z" fill="#2F2E41"/>
<path d="M45.9954 160.847C45.6653 160.846 45.3485 160.717 45.1118 160.487C44.8751 160.257 44.7371 159.944 44.727 159.614C44.6148 156.143 44.4226 144.131 46.6569 135.312C47.2666 132.903 48.6353 130.755 50.5606 129.184C52.4859 127.612 54.8657 126.703 57.348 126.588C59.7914 126.455 62.2147 127.094 64.2741 128.416C66.3336 129.737 67.9247 131.674 68.8217 133.95C72.5772 143.485 76.1253 155.237 71.7017 157.08C65.9039 159.495 50.6198 160.572 46.0735 160.845C46.0474 160.846 46.0213 160.847 45.9954 160.847Z" fill="#FFC900"/>
<path d="M72.5507 110.055C72.6599 110.167 72.7777 110.27 72.9031 110.364L72.1738 124.374L69.14 125.928L70.8857 130.812L76.5236 128.585C76.979 128.405 77.3639 128.082 77.6202 127.665C77.8766 127.247 77.9907 126.758 77.9453 126.271L76.4683 110.378C76.9517 110.017 77.3137 109.518 77.5064 108.947C77.6991 108.375 77.7132 107.759 77.547 107.179C77.3807 106.6 77.0419 106.084 76.5756 105.702C76.1094 105.319 75.5377 105.088 74.9367 105.038C74.3358 104.989 73.7339 105.123 73.2113 105.424C72.6886 105.725 72.27 106.178 72.0109 106.722C71.7519 107.267 71.6648 107.877 71.7612 108.473C71.8576 109.068 72.133 109.62 72.5507 110.055H72.5507Z" fill="#FFB8B8"/>
<path d="M72.2313 124.896L74.3655 130.961C74.4262 131.133 74.449 131.317 74.4324 131.499C74.4158 131.681 74.3601 131.858 74.2691 132.016C74.1781 132.175 74.054 132.312 73.9052 132.419C73.7564 132.525 73.5864 132.598 73.4068 132.633L67.1138 133.852C66.2291 134.158 65.2593 134.1 64.417 133.692C63.5747 133.284 62.9286 132.558 62.6205 131.674C62.3124 130.79 62.3673 129.82 62.7733 128.977C63.1793 128.134 63.9032 127.486 64.7863 127.175L70.4366 124.193C70.5984 124.107 70.7767 124.058 70.9594 124.048C71.142 124.037 71.3247 124.067 71.495 124.133C71.6654 124.2 71.8193 124.303 71.9464 124.434C72.0734 124.566 72.1706 124.723 72.2313 124.896V124.896Z" fill="#FFC900"/>
<path d="M42.455 110.055C42.3459 110.167 42.228 110.27 42.1026 110.364L42.8319 124.374L45.8657 125.928L44.12 130.812L38.4821 128.585C38.0267 128.405 37.6418 128.082 37.3855 127.665C37.1291 127.247 37.0151 126.758 37.0604 126.271L38.5374 110.378C38.0541 110.017 37.692 109.518 37.4993 108.947C37.3066 108.375 37.2925 107.759 37.4587 107.179C37.625 106.6 37.9638 106.084 38.4301 105.702C38.8963 105.319 39.468 105.088 40.069 105.038C40.6699 104.989 41.2718 105.123 41.7944 105.424C42.3171 105.725 42.7357 106.178 42.9948 106.722C43.2538 107.267 43.3409 107.877 43.2445 108.473C43.1481 109.068 42.8727 109.62 42.455 110.055Z" fill="#FFB8B8"/>
<path d="M43.5107 124.133C43.681 124.066 43.8637 124.037 44.0464 124.047C44.229 124.058 44.4073 124.107 44.5691 124.193L50.2194 127.175C51.1024 127.486 51.8263 128.133 52.2323 128.977C52.6383 129.82 52.6933 130.79 52.3852 131.674C52.077 132.558 51.431 133.284 50.5887 133.692C49.7464 134.1 48.7766 134.158 47.8919 133.852L41.5989 132.633C41.4193 132.598 41.2493 132.525 41.1005 132.419C40.9517 132.312 40.8276 132.175 40.7366 132.016C40.6456 131.858 40.5899 131.681 40.5733 131.499C40.5566 131.317 40.5794 131.133 40.6402 130.961L42.7743 124.896C42.835 124.723 42.9322 124.566 43.0592 124.434C43.1863 124.303 43.3403 124.2 43.5107 124.133Z" fill="#FFC900"/>
<path d="M60.4375 118.262C60.401 117.375 60.6234 116.497 61.0776 115.736C61.5318 114.974 62.198 114.36 62.995 113.971C65.107 112.881 66.4338 110.555 65.8524 108.431C65.1082 105.713 61.4086 103.95 58.4109 104.885C57.5997 105.173 56.8172 105.537 56.074 105.971L54.1155 107.021C53.2789 107.44 52.4723 107.916 51.7014 108.446C50.5467 109.297 49.6416 110.443 49.0808 111.763C48.5199 113.083 48.3239 114.53 48.5131 115.951C48.8988 118.715 50.7085 121.249 53.1858 122.984C54.1332 123.692 55.2274 124.179 56.3878 124.408C57.5752 124.603 58.8971 124.381 59.7653 123.642C61.1221 122.488 60.9819 120.556 60.5431 118.942C60.4851 118.719 60.4497 118.491 60.4375 118.262Z" fill="#2F2E41"/>
</g>
<defs>
<clipPath id="clip0_68_95">
<rect width="123.728" height="220" fill="white"/>
</clipPath>
</defs>
</svg>
