<svg width="70" height="35" viewBox="0 0 70 35" fill="none" xmlns="http://www.w3.org/2000/svg">
<g clip-path="url(#clip0_55_399)">
<path d="M24.9608 30.3649L26.5292 29.788C26.7246 28.812 26.7117 27.7954 26.4914 26.8265C25.8613 28.451 24.0127 28.849 22.9595 30.1456C22.6336 30.553 22.391 31.0401 22.2496 31.5709C22.1082 32.1017 22.0716 32.6627 22.1426 33.2121L21.8126 34.51C22.5833 34.4337 23.3305 34.1645 24.0028 33.7211C24.6751 33.2776 25.2565 32.6704 25.707 31.9413C25.9562 31.5294 26.1596 31.0828 26.3126 30.6119C25.6437 30.5343 24.9608 30.3649 24.9608 30.3649Z" fill="#1572A1"/>
<path d="M23.285 27.9648L24.4668 26.6374C24.2664 25.6628 23.8638 24.7596 23.294 24.0063C23.3548 25.7861 21.8533 27.0984 21.4093 28.8036C21.2743 29.3366 21.2446 29.8981 21.3222 30.4463C21.3998 30.9946 21.5828 31.5155 21.8576 31.9706L22.0615 33.303C22.7219 32.8361 23.2872 32.2087 23.7183 31.4642C24.1495 30.7196 24.4364 29.8755 24.5591 28.99C24.6237 28.4924 24.6341 27.9874 24.5899 27.4869C23.9613 27.7633 23.285 27.9648 23.285 27.9648Z" fill="#F90716"/>
<path d="M46.1268 29.0859L46.6098 27.262C46.0287 26.5204 45.3002 25.9545 44.4877 25.6135C45.2815 27.1384 44.5123 29.1278 44.8329 30.8698C44.9364 31.4123 45.1439 31.9207 45.44 32.3575C45.7361 32.7943 46.1131 33.1483 46.5432 33.3932L47.2761 34.4461C47.6603 33.6678 47.8945 32.802 47.9624 31.9086C48.0303 31.0152 47.9303 30.1154 47.6694 29.2711C47.519 28.7991 47.3179 28.351 47.0709 27.9373C46.6354 28.531 46.1268 29.0859 46.1268 29.0859Z" fill="#1572A1"/>
<path d="M43.4712 29.3189L43.202 27.4367C42.3966 27.0735 41.527 26.9436 40.6686 27.0586C41.9656 28.013 42.0423 30.1913 42.9992 31.5848C43.3005 32.0167 43.6818 32.3645 44.1148 32.6023C44.5478 32.8402 45.0214 32.962 45.5005 32.9588L46.5615 33.5222C46.606 32.6268 46.4826 31.7309 46.1997 30.8961C45.9169 30.0614 45.4813 29.3077 44.9231 28.6869C44.6069 28.3423 44.2546 28.0451 43.8744 27.8026C43.713 28.5592 43.4712 29.3189 43.4712 29.3189Z" fill="#F90716"/>
<path d="M36.6511 16.5638C36.6796 16.5705 36.7076 16.5802 36.7346 16.5927L37.7907 13.2702L37.8894 9.85973C37.8956 9.6452 37.9718 9.44137 38.1025 9.28937C38.2332 9.13736 38.4088 9.04848 38.5938 9.04066C38.7788 9.03284 38.9594 9.10666 39.0993 9.24723C39.2392 9.38779 39.328 9.58465 39.3476 9.79809C39.4114 10.4898 39.3817 11.1888 39.2596 11.8699L38.8567 14.1183L37.0172 17.2896C36.9882 17.3926 36.9341 17.4837 36.8615 17.5519C36.7889 17.6201 36.7009 17.6626 36.608 17.6741C36.5151 17.6857 36.4212 17.6659 36.3378 17.617C36.2544 17.5682 36.1849 17.4925 36.1378 17.399C36.0906 17.3054 36.0677 17.1981 36.0719 17.0898C36.0761 16.9816 36.1072 16.8771 36.1614 16.7888C36.2157 16.7006 36.2907 16.6324 36.3776 16.5925C36.4645 16.5525 36.5594 16.5426 36.6511 16.5638H36.6511Z" fill="#FFB8B8"/>
<path d="M39.0144 13.2998L37.7285 13.0792L37.51 9.91076C37.5394 9.7389 37.5977 9.57544 37.6817 9.42972C37.7656 9.284 37.8734 9.15888 37.999 9.06151C38.1247 8.96414 38.2656 8.89643 38.4138 8.86224C38.562 8.82806 38.7146 8.82806 38.8628 8.86227C39.011 8.89647 39.1519 8.9642 39.2775 9.06158C39.4031 9.15897 39.511 9.28409 39.5949 9.42982C39.6788 9.57555 39.7371 9.73902 39.7665 9.91088C39.7959 10.0828 39.7958 10.2596 39.7662 10.4315L39.0144 13.2998Z" fill="#2F2E41"/>
<path d="M37.3009 16.488H40.0169V13.3387H37.3009V16.488Z" fill="#FFB8B8"/>
<path d="M38.3679 8.22103L38.9146 7.40621L39.6944 7.367L39.7722 8.13335L40.1586 8.33995C40.5444 10.0396 40.604 11.8167 40.3332 13.5459C40.2814 13.6024 40.2435 13.674 40.2236 13.7531C40.2036 13.8323 40.2021 13.9162 40.2195 13.9962L40.2445 14.112L40.2422 14.1162C40.16 14.2666 40.1321 14.4485 40.1645 14.6226L40.8709 16.0781C39.3708 16.787 38.2712 15.4649 37.2524 13.7323L36.6219 11.2016L38.3679 8.22103Z" fill="#FFC900"/>
<path d="M36.7244 12.9062L36.5772 11.1989L38.5318 7.84381L38.6121 7.90672L36.6772 11.2281L36.8209 12.895L36.7244 12.9062Z" fill="#2F2E41"/>
<path d="M36.7727 13.0694C36.853 13.0694 36.9182 12.9938 36.9182 12.9006C36.9182 12.8075 36.853 12.7319 36.7727 12.7319C36.6923 12.7319 36.6271 12.8075 36.6271 12.9006C36.6271 12.9938 36.6923 13.0694 36.7727 13.0694Z" fill="#2F2E41"/>
<path d="M38.9965 7.63122C39.7928 7.63122 40.4383 6.8827 40.4383 5.95935C40.4383 5.036 39.7928 4.28748 38.9965 4.28748C38.2002 4.28748 37.5547 5.036 37.5547 5.95935C37.5547 6.8827 38.2002 7.63122 38.9965 7.63122Z" fill="#FFB8B8"/>
<path d="M39.2141 3.92457L39.389 3.97856L39.4484 3.99689L40.1141 4.20236C40.7042 4.38448 41.0393 5.15611 40.8626 5.92584C41.1888 6.58166 40.9061 7.18986 40.3924 7.77999C39.7337 7.67518 39.0657 7.67611 38.4072 7.78276L38.4187 7.34084L38.1272 7.83754C37.9609 7.87485 37.7939 7.92029 37.6265 7.97386C38.0071 7.10483 38.2876 6.20723 38.3354 5.45745L38.0306 5.36336L38.1194 4.97653L37.9271 5.33142L37.3744 5.16085C37.4252 4.93961 37.5131 4.73213 37.633 4.55027C37.753 4.36841 37.9026 4.21572 38.0734 4.10092C38.2443 3.98612 38.4329 3.91146 38.6286 3.8812C38.8243 3.85094 39.0233 3.86568 39.2141 3.92457Z" fill="#2F2E41"/>
<path d="M40.4429 4.95796C40.8179 4.95796 41.1219 4.60546 41.1219 4.17063C41.1219 3.7358 40.8179 3.3833 40.4429 3.3833C40.0679 3.3833 39.7639 3.7358 39.7639 4.17063C39.7639 4.60546 40.0679 4.95796 40.4429 4.95796Z" fill="#2F2E41"/>
<path d="M38.042 17C38.0711 17.0001 38.1002 17.0033 38.1288 17.0095L38.6053 13.5118L38.1279 10.1446C38.0979 9.93283 38.1382 9.71569 38.2408 9.53702C38.3435 9.35835 38.5007 9.23144 38.6808 9.1819C38.8609 9.13235 39.0505 9.16385 39.2114 9.27005C39.3723 9.37624 39.4924 9.54923 39.5477 9.75412C39.7266 10.4181 39.8151 11.1104 39.8101 11.806L39.7935 14.1023L38.5232 17.629C38.5121 17.7366 38.4745 17.8382 38.4147 17.9215C38.355 18.0049 38.2758 18.0664 38.1866 18.0988C38.0975 18.1311 38.0021 18.1329 37.9121 18.1039C37.822 18.0749 37.7412 18.0164 37.6792 17.9353C37.6171 17.8543 37.5766 17.7542 37.5625 17.6471C37.5484 17.5399 37.5613 17.4304 37.5997 17.3316C37.638 17.2328 37.7001 17.1489 37.7786 17.0901C37.8571 17.0312 37.9485 17 38.042 17L38.042 17Z" fill="#FFB8B8"/>
<path d="M39.8103 13.2638L38.512 13.3387L37.7643 10.2806C37.7643 9.92685 37.8855 9.58761 38.1012 9.33748C38.3169 9.08736 38.6095 8.94684 38.9146 8.94684C39.2196 8.94684 39.5122 9.08736 39.7279 9.33748C39.9436 9.58761 40.0648 9.92685 40.0648 10.2806L39.8103 13.2638Z" fill="#2F2E41"/>
<path d="M33.1607 13.9251C33.127 13.8453 33.0787 13.7749 33.0191 13.7191C32.9594 13.6632 32.89 13.6232 32.8156 13.6018C32.7412 13.5805 32.6636 13.5783 32.5884 13.5954C32.5132 13.6126 32.4422 13.6487 32.3803 13.7011L30.8486 12.4708L30.8265 13.5932L32.2844 14.5894C32.3672 14.7042 32.4835 14.7797 32.6112 14.8016C32.7388 14.8236 32.869 14.7905 32.977 14.7086C33.085 14.6267 33.1634 14.5017 33.1972 14.3573C33.2311 14.2129 33.2181 14.0591 33.1607 13.9251Z" fill="#FFB6B6"/>
<path d="M31.7033 14.2935L28.7569 12.3915L28.7561 12.3748C28.7545 12.343 28.6013 9.18417 28.6615 8.51002C28.6943 8.10229 28.8463 7.71983 29.0924 7.42614L29.0989 7.4193L29.1076 7.41834C29.2854 7.39963 29.4634 7.45174 29.6123 7.56608C29.7611 7.68042 29.8719 7.85017 29.9264 8.04734C30.1851 9.00089 30.2492 10.0111 30.1135 10.9983L30.0358 11.5597L31.9981 13.2891L31.7033 14.2935Z" fill="#FFC900"/>
<path d="M29.4423 6.33712C30.148 6.33712 30.7201 5.67376 30.7201 4.85545C30.7201 4.03715 30.148 3.37378 29.4423 3.37378C28.7366 3.37378 28.1645 4.03715 28.1645 4.85545C28.1645 5.67376 28.7366 6.33712 29.4423 6.33712Z" fill="#FFB6B6"/>
<path d="M29.4846 6.27282C29.1858 6.43904 28.8181 6.38274 28.5329 6.18718C28.2476 5.99163 28.0377 5.6727 27.891 5.32817C27.7836 5.07585 27.7056 4.78689 27.7678 4.51489C27.83 4.2429 28.0782 4.015 28.3107 4.09556C28.1514 3.94683 28.17 3.6401 28.2987 3.45581C28.4274 3.27151 28.6305 3.1829 28.8267 3.11611C29.1116 3.01917 29.4108 2.95076 29.7045 3.00034C29.9983 3.04992 30.2875 3.23431 30.4257 3.5389C30.5216 3.56756 30.623 3.55852 30.7141 3.51319C30.8051 3.46786 30.8806 3.38879 30.9287 3.28838C30.9607 3.38491 30.9644 3.49098 30.9392 3.59018C30.914 3.68938 30.8613 3.77618 30.7893 3.83715L31.1871 3.58689C31.2885 3.74988 31.1963 3.99848 31.0424 4.09081C30.8884 4.18314 30.7023 4.15852 30.5343 4.10918C30.3663 4.05985 30.1474 4.16901 29.9741 4.17297C29.8008 4.17694 29.6134 4.2821 29.5637 4.47467C29.5378 4.57553 29.5529 4.68385 29.5452 4.78874C29.5376 4.89363 29.4942 5.01 29.4066 5.03732C29.3512 5.05459 29.2906 5.03171 29.2356 5.05089C29.2025 5.06615 29.1739 5.09229 29.1534 5.1261C29.1328 5.15991 29.1213 5.19994 29.1201 5.24127C29.1188 5.32394 29.1318 5.40606 29.1582 5.48287C29.2449 5.79281 29.3838 5.92138 29.4705 6.23132" fill="#2F2E41"/>
<path d="M27.6454 16.0635L27.6447 16.0634L27.6346 16.0614L27.6316 16.05C27.5949 15.9068 27.5481 15.7601 27.5029 15.6183C27.4364 15.4218 27.3801 15.2209 27.3346 15.0165C27.2987 14.8212 27.2739 14.6233 27.2602 14.4242C27.2476 14.2796 27.2345 14.1302 27.2124 13.983C27.212 13.9135 27.2348 13.8465 27.2759 13.796C27.3109 13.7532 27.3317 13.6974 27.3344 13.6385C27.3134 13.5754 27.2781 13.52 27.2322 13.4783C27.1799 13.4312 27.1408 13.367 27.1201 13.294C27.0177 12.4176 26.97 11.5337 26.9775 10.6493C26.9881 9.42567 27.0358 8.59162 27.1192 8.17029C27.3437 7.03741 28.3805 6.83066 28.5428 6.80514C28.5601 6.75175 28.5867 6.70306 28.6209 6.6621C28.6551 6.62113 28.6963 6.58877 28.7417 6.56703C28.7872 6.54529 28.836 6.53463 28.8852 6.53572C28.9344 6.53681 28.9828 6.54962 29.0275 6.57336L29.7643 6.96442C29.9137 7.04403 30.0474 7.15842 30.1571 7.30049C30.2668 7.44256 30.3502 7.60927 30.402 7.79026L30.5114 8.17714L30.5662 10.7743L30.2624 12.6031L30.7358 15.3095C27.5722 17.3235 27.6556 16.0635 27.6454 16.0635Z" fill="#FFC900"/>
<path d="M31.8415 14.969C31.8199 14.8837 31.7823 14.805 31.7316 14.7384C31.6809 14.6718 31.6182 14.6188 31.5479 14.5834C31.4776 14.5479 31.4015 14.5307 31.3248 14.533C31.2482 14.5353 31.173 14.5571 31.1044 14.5968L29.7717 13.087L29.5881 14.1893L30.8818 15.4541C30.9469 15.5833 31.0507 15.6802 31.1734 15.7266C31.2961 15.773 31.4292 15.7656 31.5475 15.7058C31.6658 15.646 31.761 15.538 31.8152 15.4022C31.8694 15.2664 31.8788 15.1123 31.8415 14.969L31.8415 14.969Z" fill="#FFB6B6"/>
<path d="M30.3515 15.0496L27.7208 12.6032L27.7224 12.5867C27.7255 12.555 28.0298 9.41092 28.1863 8.75792C28.2775 8.36228 28.4825 8.01468 28.7675 7.77283L28.7748 7.76733L28.7836 7.76808C28.9616 7.7841 29.1296 7.86998 29.2599 8.01157C29.3901 8.15316 29.4749 8.342 29.5002 8.54696C29.6178 9.53724 29.5353 10.5457 29.2592 11.4926L29.1016 12.0311L30.7871 14.1166L30.3515 15.0496Z" fill="#FFC900"/>
<path d="M18.4923 25.0055C18.4532 24.9129 18.3972 24.8313 18.328 24.7665C18.2588 24.7017 18.1782 24.6553 18.0919 24.6305C18.0056 24.6057 17.9157 24.6032 17.8284 24.6231C17.7412 24.643 17.6587 24.6848 17.5869 24.7456L15.8102 23.3185L15.7845 24.6205L17.4757 25.7762C17.5718 25.9093 17.7067 25.9968 17.8548 26.0223C18.0029 26.0478 18.1539 26.0094 18.2792 25.9144C18.4045 25.8194 18.4954 25.6744 18.5347 25.5069C18.5739 25.3394 18.5588 25.161 18.4923 25.0055L18.4923 25.0055Z" fill="#FFB6B6"/>
<path d="M16.8016 25.4329L13.3836 23.2265L13.3827 23.2072C13.3809 23.1703 13.2032 19.5058 13.273 18.7237C13.311 18.2508 13.4874 17.8071 13.7729 17.4664L13.7804 17.4584L13.7905 17.4573C13.9968 17.4356 14.2033 17.4961 14.376 17.6287C14.5486 17.7614 14.6772 17.9583 14.7404 18.187C15.0405 19.2932 15.1148 20.4651 14.9574 21.6103L14.8672 22.2616L17.1437 24.2678L16.8016 25.4329Z" fill="#FFC900"/>
<path d="M21.9649 33.8904L22.6224 33.563L21.8461 30.4666L20.8757 30.9499L21.9649 33.8904Z" fill="#FFB6B6"/>
<path d="M21.5014 33.7702L21.7151 33.6638L22.4039 32.8546L22.997 33.0254L22.997 33.0253C23.2498 32.8995 23.5354 32.8952 23.7909 33.0134C24.0464 33.1317 24.2509 33.3628 24.3595 33.6559L24.3728 33.6918L21.9241 34.9114L21.5014 33.7702Z" fill="#2F2E41"/>
<path d="M19.0072 33.9702L19.7228 33.9701L20.0632 30.7698H19.0071L19.0072 33.9702Z" fill="#FFB6B6"/>
<path d="M18.6222 33.6477L18.8549 33.6477L19.7631 33.2194L20.2499 33.6476H20.25C20.5251 33.6476 20.7889 33.7744 20.9835 33.9999C21.178 34.2255 21.2873 34.5314 21.2873 34.8504V34.8895L18.6223 34.8896L18.6222 33.6477Z" fill="#2F2E41"/>
<path d="M15.6106 30.5536H14.3376V32.9998H15.6106V30.5536Z" fill="#CACACA"/>
<path d="M15.5469 31.848L15.3835 32.1272L18.4388 34.5312L18.6021 34.252L15.5469 31.848Z" fill="#CACACA"/>
<path d="M14.4014 31.848L11.3461 34.252L11.5095 34.5312L14.5648 32.1272L14.4014 31.848Z" fill="#CACACA"/>
<path d="M18.5205 34.8555C18.7414 34.8555 18.9206 34.6478 18.9206 34.3916C18.9206 34.1354 18.7414 33.9277 18.5205 33.9277C18.2995 33.9277 18.1204 34.1354 18.1204 34.3916C18.1204 34.6478 18.2995 34.8555 18.5205 34.8555Z" fill="#CACACA"/>
<path d="M14.9559 34.8555C15.1769 34.8555 15.356 34.6478 15.356 34.3916C15.356 34.1354 15.1769 33.9277 14.9559 33.9277C14.735 33.9277 14.5558 34.1354 14.5558 34.3916C14.5558 34.6478 14.735 34.8555 14.9559 34.8555Z" fill="#CACACA"/>
<path d="M11.4278 34.8555C11.6488 34.8555 11.8279 34.6478 11.8279 34.3916C11.8279 34.1354 11.6488 33.9277 11.4278 33.9277C11.2068 33.9277 11.0277 34.1354 11.0277 34.3916C11.0277 34.6478 11.2068 34.8555 11.4278 34.8555Z" fill="#CACACA"/>
<path d="M15.1014 31.9875H14.8105V34.3916H15.1014V31.9875Z" fill="#CACACA"/>
<path d="M15.2469 28.4026H14.7013V31.6502H15.2469V28.4026Z" fill="#CACACA"/>
<path d="M12.2004 28.9087V28.1496C12.2005 28.0098 12.2485 27.8758 12.3337 27.777C12.419 27.6781 12.5345 27.6225 12.6551 27.6224H16.9066C17.0271 27.6225 17.1427 27.6781 17.2279 27.777C17.3132 27.8758 17.3611 28.0098 17.3612 28.1496V28.9087C17.3611 29.0485 17.3132 29.1825 17.2279 29.2814C17.1427 29.3802 17.0271 29.4358 16.9066 29.4359H12.6551C12.5345 29.4358 12.419 29.3802 12.3337 29.2814C12.2485 29.1825 12.2005 29.0485 12.2004 28.9087Z" fill="#3F3D56"/>
<path d="M30.9369 35H0.0716476C0.0526196 34.9999 0.0344084 34.991 0.0209924 34.9754C0.00757637 34.9597 4.57764e-05 34.9386 4.57764e-05 34.9165C4.57764e-05 34.8945 0.00757637 34.8733 0.0209924 34.8576C0.0344084 34.842 0.0526196 34.8331 0.0716476 34.833H30.9369C30.956 34.8331 30.9742 34.8419 30.9876 34.8576C31.0011 34.8732 31.0086 34.8944 31.0086 34.9165C31.0086 34.9386 31.0011 34.9598 30.9876 34.9754C30.9742 34.9911 30.956 34.9999 30.9369 35Z" fill="#CACACA"/>
<path d="M11.6225 23.866L14.7072 23.9362L14.8192 24.955C14.8192 24.955 20.2114 24.6375 20.6862 25.9369C21.7555 28.8629 22.6822 32.2491 22.6822 32.2491L21.3516 32.7401L18.7507 27.6903C18.7507 27.6903 11.5015 30.1782 12.0458 25.9701L11.6225 23.866Z" fill="#2F2E41"/>
<path d="M20.9538 26.8402C20.6373 29.9968 19.9604 32.9505 19.9604 32.9505L18.6902 32.7401L18.9795 26.7875" fill="#2F2E41"/>
<path d="M14.1788 16.2031C14.9974 16.2031 15.6611 15.4335 15.6611 14.4843C15.6611 13.535 14.9974 12.7654 14.1788 12.7654C13.3601 12.7654 12.6964 13.535 12.6964 14.4843C12.6964 15.4335 13.3601 16.2031 14.1788 16.2031Z" fill="#FFB6B6"/>
<path d="M14.2278 16.1285C13.8812 16.3213 13.4547 16.256 13.1238 16.0291C12.7929 15.8023 12.5494 15.4323 12.3792 15.0326C12.2546 14.7399 12.1641 14.4047 12.2362 14.0892C12.3084 13.7737 12.5963 13.5093 12.8661 13.6027C12.6813 13.4302 12.7028 13.0744 12.8521 12.8606C13.0014 12.6468 13.237 12.544 13.4647 12.4665C13.7951 12.3541 14.1423 12.2747 14.483 12.3322C14.8237 12.3897 15.1592 12.6036 15.3195 12.957C15.4308 12.9902 15.5485 12.9797 15.6541 12.9271C15.7597 12.8746 15.8473 12.7828 15.9031 12.6664C15.9403 12.7783 15.9445 12.9014 15.9153 13.0165C15.8861 13.1315 15.8249 13.2322 15.7413 13.303L16.2028 13.0126C16.3205 13.2017 16.2136 13.4901 16.035 13.5972C15.8564 13.7043 15.6405 13.6758 15.4456 13.6185C15.2507 13.5613 15.4806 14.0386 15.2796 14.0432C15.0786 14.0478 14.8611 14.1698 14.8035 14.3932C14.7734 14.5102 14.791 14.6359 14.7821 14.7575C14.7732 14.8792 14.7229 15.0142 14.6212 15.0459C14.5569 15.0659 14.4866 15.0394 14.4229 15.0616C14.3845 15.0794 14.3513 15.1097 14.3275 15.1489C14.3037 15.1881 14.2902 15.2346 14.2888 15.2825C14.2874 15.3784 14.3025 15.4737 14.3331 15.5628C14.4337 15.9223 14.1109 15.7208 14.2115 16.0803" fill="#2F2E41"/>
<path d="M12.0942 27.4863L12.0934 27.4862L12.0817 27.4838L12.0783 27.4706C12.0357 27.3044 11.9814 27.1343 11.929 26.9697C11.8518 26.7419 11.7865 26.5088 11.7337 26.2717C11.6921 26.0451 11.6633 25.8155 11.6474 25.5846C11.6328 25.4169 11.6176 25.2435 11.5919 25.0728C11.5805 24.997 11.6238 24.9252 11.6656 24.8558C11.7045 24.7914 11.7411 24.7306 11.7334 24.6731C11.7256 24.6143 11.6693 24.5497 11.6149 24.4873C11.5553 24.4188 11.4936 24.348 11.4849 24.2735C11.3661 23.2568 11.3108 22.2314 11.3194 21.2055C11.3317 19.786 11.387 18.8185 11.4839 18.3297C11.7442 17.0155 12.9471 16.7756 13.1354 16.746C13.1554 16.6841 13.1862 16.6276 13.2259 16.5801C13.2656 16.5326 13.3133 16.495 13.3661 16.4698C13.4188 16.4446 13.4755 16.4322 13.5325 16.4335C13.5896 16.4348 13.6458 16.4496 13.6976 16.4772L14.5523 16.9308C14.7256 17.0232 14.8808 17.1559 15.008 17.3207C15.1353 17.4855 15.232 17.6789 15.2921 17.8888L15.419 18.3376L15.4826 21.3504L15.1302 23.472L15.8188 24.6697C12.1488 27.0061 12.106 27.4863 12.0942 27.4863Z" fill="#FFC900"/>
<path d="M54.7462 25.2231C54.7748 25.2298 54.8027 25.2395 54.8298 25.2521L55.8859 21.9296L55.9846 18.5191C55.9908 18.3046 56.0669 18.1007 56.1976 17.9487C56.3284 17.7967 56.5039 17.7078 56.6889 17.7C56.8739 17.6922 57.0546 17.766 57.1945 17.9066C57.3344 18.0472 57.4231 18.244 57.4428 18.4575C57.5065 19.1492 57.4768 19.8482 57.3548 20.5293L56.9519 22.7776L55.1123 25.949C55.0833 26.052 55.0293 26.1431 54.9567 26.2113C54.8841 26.2795 54.796 26.3219 54.7031 26.3335C54.6102 26.345 54.5164 26.3252 54.433 26.2764C54.3496 26.2276 54.2801 26.1518 54.2329 26.0583C54.1857 25.9648 54.1629 25.8574 54.1671 25.7492C54.1713 25.641 54.2024 25.5364 54.2566 25.4482C54.3108 25.36 54.3859 25.2918 54.4728 25.2518C54.5596 25.2119 54.6546 25.2019 54.7462 25.2231L54.7462 25.2231Z" fill="#FFB8B8"/>
<path d="M57.1096 21.9591L55.8236 21.7386L55.6052 18.5701C55.6647 18.2232 55.8407 17.9179 56.0944 17.7214C56.22 17.6241 56.3609 17.5564 56.509 17.5223C56.6571 17.4882 56.8096 17.4882 56.9578 17.5224C57.1059 17.5566 57.2468 17.6242 57.3724 17.7216C57.498 17.8189 57.6058 17.9439 57.6897 18.0896C57.7736 18.2352 57.8319 18.3986 57.8614 18.5704C57.8908 18.7422 57.8908 18.919 57.8613 19.0908L57.1096 21.9591Z" fill="#2F2E41"/>
<path d="M55.3961 25.1473H58.1121V21.998H55.3961V25.1473Z" fill="#FFB8B8"/>
<path d="M48.9551 31.273L47.9178 30.8683L47.3402 34.1423L48.043 34.4164L48.9551 31.273Z" fill="#FFB6B6"/>
<path d="M50.7947 30.6501L49.7296 30.9422L50.7312 34.0756L51.4529 33.8776L50.7947 30.6501Z" fill="#FFB6B6"/>
<path d="M55.6624 30.5536H54.3893V32.9998H55.6624V30.5536Z" fill="#CACACA"/>
<path d="M54.4531 31.848L51.3978 34.252L51.5612 34.5312L54.6165 32.1272L54.4531 31.848Z" fill="#CACACA"/>
<path d="M55.5986 31.848L55.4352 32.1272L58.4905 34.5312L58.6539 34.252L55.5986 31.848Z" fill="#CACACA"/>
<path d="M51.4795 34.8555C51.7005 34.8555 51.8796 34.6478 51.8796 34.3916C51.8796 34.1354 51.7005 33.9277 51.4795 33.9277C51.2586 33.9277 51.0794 34.1354 51.0794 34.3916C51.0794 34.6478 51.2586 34.8555 51.4795 34.8555Z" fill="#CACACA"/>
<path d="M55.0441 34.8555C55.2651 34.8555 55.4442 34.6478 55.4442 34.3916C55.4442 34.1354 55.2651 33.9277 55.0441 33.9277C54.8231 33.9277 54.644 34.1354 54.644 34.3916C54.644 34.6478 54.8231 34.8555 55.0441 34.8555Z" fill="#CACACA"/>
<path d="M58.5722 34.8555C58.7932 34.8555 58.9723 34.6478 58.9723 34.3916C58.9723 34.1354 58.7932 33.9277 58.5722 33.9277C58.3512 33.9277 58.1721 34.1354 58.1721 34.3916C58.1721 34.6478 58.3512 34.8555 58.5722 34.8555Z" fill="#CACACA"/>
<path d="M55.1895 31.9875H54.8986V34.3916H55.1895V31.9875Z" fill="#CACACA"/>
<path d="M55.2986 28.4026H54.7531V31.6502H55.2986V28.4026Z" fill="#CACACA"/>
<path d="M57.3449 29.4359H53.0934C52.9729 29.4358 52.8573 29.3802 52.7721 29.2813C52.6868 29.1825 52.6389 29.0485 52.6387 28.9087V28.1496C52.6389 28.0098 52.6868 27.8758 52.7721 27.777C52.8573 27.6781 52.9729 27.6225 53.0934 27.6224H57.3449C57.4655 27.6225 57.581 27.6781 57.6663 27.777C57.7515 27.8758 57.7995 28.0098 57.7996 28.1496V28.9087C57.7995 29.0485 57.7515 29.1825 57.6663 29.2813C57.581 29.3802 57.4655 29.4358 57.3449 29.4359Z" fill="#3F3D56"/>
<path d="M58.0146 25.9701C58.559 30.1782 51.3098 27.6903 51.3098 27.6903L48.7089 32.7401L47.3782 32.2491C47.3782 32.2491 48.3049 28.8629 49.3742 25.9369C49.8491 24.6375 55.2413 24.955 55.2413 24.955L55.3533 23.9362L58.438 23.866L58.0146 25.9701Z" fill="#2F2E41"/>
<path d="M51.0809 26.7875L51.3703 32.7401L50.1001 32.9505C50.1001 32.9505 49.4232 29.9968 49.1067 26.8402" fill="#2F2E41"/>
<path d="M56.463 16.8804L57.0097 16.0656L57.7895 16.0264L57.8674 16.7927L58.2538 16.9993C58.6396 18.6989 58.6992 20.476 58.4283 22.2052C58.3765 22.2618 58.3387 22.3333 58.3187 22.4124C58.2987 22.4916 58.2973 22.5755 58.3146 22.6555L58.3397 22.7713L58.3373 22.7755C58.2551 22.926 58.2272 23.1079 58.2597 23.2819L58.9661 24.7374C57.466 25.4463 56.3663 24.1243 55.3475 22.3917L54.717 19.861L56.463 16.8804Z" fill="#FFC900"/>
<path d="M54.8195 21.5656L54.6723 19.8582L56.6269 16.5032L56.7073 16.5661L54.7723 19.8875L54.9161 21.5544L54.8195 21.5656Z" fill="#2F2E41"/>
<path d="M54.8678 21.7287C54.9482 21.7287 55.0133 21.6532 55.0133 21.56C55.0133 21.4668 54.9482 21.3913 54.8678 21.3913C54.7875 21.3913 54.7224 21.4668 54.7224 21.56C54.7224 21.6532 54.7875 21.7287 54.8678 21.7287Z" fill="#2F2E41"/>
<path d="M57.0916 16.2906C57.8879 16.2906 58.5334 15.5421 58.5334 14.6187C58.5334 13.6954 57.8879 12.9468 57.0916 12.9468C56.2953 12.9468 55.6498 13.6954 55.6498 14.6187C55.6498 15.5421 56.2953 16.2906 57.0916 16.2906Z" fill="#FFB8B8"/>
<path d="M57.3092 12.5839L57.4842 12.6379L57.5436 12.6563L58.2093 12.8617C58.7994 13.0438 59.1345 13.8155 58.9578 14.5852C59.284 15.241 59.0013 15.8492 58.4875 16.4394C57.8289 16.3345 57.1609 16.3355 56.5024 16.4421L56.5139 16.0002L56.2224 16.4969C56.056 16.5342 55.8891 16.5797 55.7217 16.6332C56.1023 15.7642 56.3828 14.8666 56.4306 14.1168L56.1258 14.0227L56.2146 13.6359L56.0223 13.9908L55.4696 13.8202C55.5204 13.599 55.6083 13.3915 55.7282 13.2096C55.8481 13.0278 55.9978 12.8751 56.1686 12.7603C56.3394 12.6455 56.5281 12.5708 56.7238 12.5406C56.9195 12.5103 57.1184 12.525 57.3092 12.5839Z" fill="#2F2E41"/>
<path d="M58.538 13.6173C58.913 13.6173 59.217 13.2648 59.217 12.83C59.217 12.3952 58.913 12.0427 58.538 12.0427C58.163 12.0427 57.859 12.3952 57.859 12.83C57.859 13.2648 58.163 13.6173 58.538 13.6173Z" fill="#2F2E41"/>
<path d="M56.1371 25.6594C56.1663 25.6595 56.1953 25.6627 56.2239 25.6689L56.7004 22.1712L56.2231 18.804C56.193 18.5922 56.2334 18.375 56.336 18.1964C56.4386 18.0177 56.5958 17.8908 56.776 17.8413C56.9561 17.7917 57.1457 17.8232 57.3066 17.9294C57.4675 18.0356 57.5876 18.2086 57.6429 18.4135C57.8218 19.0775 57.9104 19.7697 57.9053 20.4653L57.8887 22.7617L56.6184 26.2884C56.6073 26.396 56.5696 26.4976 56.5099 26.5809C56.4502 26.6642 56.371 26.7258 56.2818 26.7581C56.1926 26.7905 56.0973 26.7923 56.0072 26.7633C55.9172 26.7343 55.8363 26.6757 55.7743 26.5947C55.7123 26.5136 55.6718 26.4135 55.6577 26.3064C55.6436 26.1993 55.6565 26.0898 55.6948 25.9909C55.7331 25.8921 55.7953 25.8083 55.8738 25.7494C55.9522 25.6906 56.0437 25.6593 56.1371 25.6594Z" fill="#FFB8B8"/>
<path d="M57.9055 21.9232L56.6072 21.998L55.8595 18.9399C55.8595 18.5862 55.9807 18.247 56.1964 17.9968C56.4121 17.7467 56.7047 17.6062 57.0097 17.6062C57.3148 17.6062 57.6074 17.7467 57.8231 17.9968C58.0388 18.247 58.16 18.5862 58.16 18.9399L57.9055 21.9232Z" fill="#2F2E41"/>
<path d="M48.6594 34.8773H48.1933L48.1101 34.3671L47.8971 34.8773H46.661C46.6017 34.8773 46.544 34.8554 46.4963 34.8146C46.4486 34.7739 46.4133 34.7166 46.3957 34.651C46.378 34.5854 46.379 34.515 46.3983 34.45C46.4176 34.3851 46.4543 34.329 46.5031 34.29L47.4902 33.4995V32.9836L48.5284 33.0555L48.6594 34.8773Z" fill="#2F2E41"/>
<path d="M51.7181 34.6751L51.2559 34.744L51.1172 34.2503L50.962 34.7879L49.736 34.9708C49.6772 34.9796 49.6176 34.9663 49.5658 34.933C49.514 34.8997 49.4727 34.8481 49.448 34.7856C49.4233 34.7232 49.4164 34.6532 49.4284 34.5859C49.4404 34.5186 49.4707 34.4576 49.5148 34.4116L50.4068 33.4815L50.35 32.9699L51.3877 32.8875L51.7181 34.6751Z" fill="#2F2E41"/>
<path d="M38.9913 34.9168C38.9913 34.9058 38.9931 34.895 38.9967 34.8848C39.0003 34.8747 39.0056 34.8654 39.0123 34.8577C39.0189 34.8499 39.0268 34.8437 39.0356 34.8395C39.0443 34.8352 39.0536 34.833 39.0631 34.833H69.9284C69.9474 34.8331 69.9656 34.842 69.9791 34.8576C69.9925 34.8733 70 34.8945 70 34.9165C70 34.9386 69.9925 34.9597 69.9791 34.9754C69.9656 34.991 69.9474 34.9999 69.9284 35H39.0631C39.0441 35 39.0259 34.9912 39.0124 34.9756C38.999 34.96 38.9914 34.9388 38.9913 34.9168Z" fill="#CACACA"/>
<path d="M55.6624 15.0902L54.9422 15.0276C54.8807 15.0221 54.8236 14.9887 54.7834 14.9345C54.7432 14.8803 54.7232 14.8099 54.7277 14.7386L54.7965 13.6746C54.8011 13.6033 54.83 13.5371 54.8767 13.4905C54.9234 13.4439 54.9842 13.4206 55.0457 13.4259L55.7659 13.4885H55.766C55.8275 13.4939 55.8846 13.5273 55.9248 13.5815C55.965 13.6357 55.985 13.7062 55.9804 13.7775C56.088 14.0811 56.4912 14.2692 55.9117 14.8414C55.9094 14.8767 55.9011 14.9112 55.8874 14.9428C55.8736 14.9744 55.8546 15.0026 55.8315 15.0257C55.8083 15.0488 55.7815 15.0664 55.7525 15.0774C55.7235 15.0885 55.6929 15.0928 55.6624 15.0901V15.0902Z" fill="#3F3D56"/>
<path d="M55.0093 13.4133L55.1721 13.4321L55.0539 15.0729L54.8911 15.0542C54.8603 15.0506 54.8305 15.04 54.8033 15.0229C54.7762 15.0059 54.7522 14.9827 54.7329 14.9547C54.6929 14.8979 54.6736 14.8253 54.679 14.7522L54.7575 13.6622C54.7613 13.6041 54.781 13.5489 54.8139 13.5049C54.8468 13.4609 54.891 13.4303 54.9401 13.4177C54.9628 13.4121 54.9862 13.4107 55.0093 13.4133Z" fill="#FFC900"/>
<path d="M58.8361 14.8482L55.5842 14.5657C55.5444 14.5622 55.5075 14.5405 55.4815 14.5055C55.4555 14.4705 55.4426 14.4249 55.4455 14.3788L55.4637 14.0973L55.4637 14.0972C55.4652 14.0744 55.4705 14.0521 55.4794 14.0317C55.4883 14.0113 55.5006 13.9931 55.5156 13.9781C55.5305 13.9632 55.5479 13.9519 55.5666 13.9447C55.5854 13.9375 55.6052 13.9347 55.6249 13.9365L58.8768 14.219H58.8768C58.9165 14.2225 58.9535 14.2441 58.9795 14.2792C59.0055 14.3142 59.0184 14.3598 59.0155 14.4059L58.9973 14.6874C58.9958 14.7103 58.9905 14.7325 58.9816 14.753C58.9727 14.7734 58.9604 14.7916 58.9454 14.8066C58.9304 14.8215 58.9131 14.8329 58.8943 14.84C58.8756 14.8472 58.8558 14.85 58.8361 14.8482V14.8482Z" fill="#3F3D56"/>
<path d="M55.153 14.092L55.153 14.092C55.1204 14.0882 55.0904 14.0696 55.0696 14.0401C55.0488 14.0107 55.0389 13.973 55.0421 13.9351L55.0617 13.7068L55.0618 13.705C55.0653 13.6672 55.0815 13.6325 55.107 13.6086C55.1325 13.5847 55.1652 13.5735 55.1978 13.5775C55.2304 13.5814 55.2603 13.6003 55.281 13.6299C55.3016 13.6594 55.3113 13.6973 55.3078 13.7351L55.2883 13.9634C55.2867 13.9822 55.2819 14.0004 55.2743 14.017C55.2666 14.0336 55.2562 14.0483 55.2436 14.0602C55.2311 14.0721 55.2166 14.0811 55.2011 14.0866C55.1855 14.092 55.1692 14.0939 55.153 14.092L55.153 14.092Z" fill="#3F3D56"/>
<path d="M55.1291 14.6905H55.1291C55.0963 14.6885 55.0656 14.6715 55.0436 14.6433C55.0216 14.615 55.0103 14.5778 55.012 14.5398L55.0223 14.3107C55.024 14.2727 55.0387 14.2371 55.0631 14.2117C55.0874 14.1863 55.1195 14.1731 55.1522 14.1751C55.1849 14.1771 55.2156 14.1941 55.2376 14.2223C55.2595 14.2505 55.2709 14.2876 55.2693 14.3256L55.259 14.5547C55.2582 14.5735 55.2542 14.592 55.2472 14.609C55.2402 14.626 55.2304 14.6413 55.2183 14.6539C55.2063 14.6665 55.1922 14.6762 55.1769 14.6825C55.1615 14.6888 55.1453 14.6915 55.1291 14.6905Z" fill="#3F3D56"/>
<path d="M59.1354 23.783L58.9498 23.7805C58.7719 23.7779 58.6022 23.6936 58.4778 23.5461C58.3534 23.3986 58.2846 23.1999 58.2864 22.9936L58.288 21.0819C58.2902 20.8756 58.3629 20.6788 58.4901 20.5346C58.6173 20.3904 58.7887 20.3106 58.9666 20.3127L59.1522 20.3151C59.3301 20.3177 59.4998 20.402 59.6242 20.5495C59.7485 20.697 59.8173 20.8957 59.8155 21.102L59.814 23.0137C59.8118 23.22 59.7391 23.4168 59.6119 23.5611C59.4846 23.7053 59.3133 23.7851 59.1354 23.783Z" fill="#3F3D56"/>
<path d="M55.7062 28.5493L55.8458 28.3202C56.1821 28.5949 56.5835 28.7423 56.995 28.7424C58.0974 28.7425 59.2937 24.7938 59.2938 23.5154H59.5358C59.5344 24.9479 58.2308 29.0213 56.9954 29.0229C56.5337 29.0241 56.0831 28.8586 55.7062 28.5493Z" fill="#3F3D56"/>
<path d="M16.962 26.2165C16.9369 26.1176 16.8933 26.0263 16.8345 25.949C16.7756 25.8717 16.7029 25.8103 16.6214 25.7691C16.5398 25.728 16.4515 25.7081 16.3626 25.7108C16.2737 25.7134 16.1864 25.7387 16.1069 25.7848L14.5609 24.0333L14.3479 25.312L15.8486 26.7792C15.9242 26.9291 16.0446 27.0416 16.1869 27.0954C16.3292 27.1492 16.4836 27.1406 16.6209 27.0713C16.7581 27.0019 16.8686 26.8766 16.9315 26.719C16.9944 26.5615 17.0052 26.3827 16.962 26.2165V26.2165Z" fill="#FFB6B6"/>
<path d="M15.2335 26.3101L12.1817 23.4722L12.1836 23.453C12.1871 23.4162 12.5402 19.7689 12.7218 19.0114C12.8275 18.5524 13.0654 18.1492 13.396 17.8686L13.4045 17.8622L13.4146 17.8631C13.6211 17.8817 13.816 17.9813 13.9671 18.1456C14.1183 18.3098 14.2166 18.5289 14.2459 18.7666C14.3824 19.9154 14.2866 21.0853 13.9664 22.1838L13.7835 22.8084L15.7387 25.2277L15.2335 26.3101Z" fill="#FFC900"/>
<path d="M9.86569 23.6909L9.83988 21.5706C9.8353 21.3644 9.90145 21.1645 10.0238 21.0148C10.1462 20.865 10.3148 20.7777 10.4926 20.7719L10.6782 20.7661C10.856 20.7608 11.0284 20.8375 11.1575 20.9794C11.2867 21.1213 11.362 21.3168 11.367 21.523L11.3928 23.6433C11.3974 23.8495 11.3312 24.0494 11.2088 24.1992C11.0865 24.3489 10.9179 24.4362 10.74 24.442L10.5545 24.4478C10.3767 24.4531 10.2043 24.3764 10.0751 24.2345C9.94599 24.0926 9.87067 23.8971 9.86569 23.6909Z" fill="#3F3D56"/>
<path d="M12.8232 28.7755C11.5877 28.7739 10.2237 25.4388 10.2223 24.0063H10.4642C10.4644 25.2847 11.7211 28.4951 12.8236 28.495C13.235 28.4949 13.6364 28.3474 13.9728 28.0727L14.1123 28.3019C13.7354 28.6111 13.2849 28.7767 12.8232 28.7755Z" fill="#3F3D56"/>
<path d="M15.505 15.4281C15.455 15.4136 15.4102 15.381 15.3773 15.3349C15.3444 15.2889 15.325 15.2318 15.322 15.1721C14.73 14.5654 15.1515 14.3791 15.2682 14.0663C15.2646 13.9922 15.2865 13.9195 15.3291 13.8641C15.3718 13.8088 15.4316 13.7753 15.4955 13.7711H15.4955L16.2441 13.7221C16.308 13.718 16.3707 13.7434 16.4185 13.7929C16.4662 13.8423 16.4951 13.9117 16.4987 13.9858L16.5526 15.0916C16.5561 15.1657 16.5342 15.2384 16.4915 15.2937C16.4489 15.349 16.3891 15.3825 16.3252 15.3868L15.5766 15.4358C15.5526 15.4374 15.5284 15.4348 15.505 15.4281Z" fill="#3F3D56"/>
<path d="M16.3539 13.7159C16.4046 13.7301 16.45 13.7628 16.4834 13.8092C16.5168 13.8557 16.5364 13.9133 16.5393 13.9737L16.6029 15.1068C16.6073 15.1827 16.5861 15.2577 16.5436 15.3158C16.5231 15.3444 16.4978 15.3679 16.4694 15.385C16.4409 15.4022 16.4098 15.4125 16.3778 15.4156L16.2085 15.4314L16.1128 13.7257L16.2821 13.7099C16.3061 13.7076 16.3303 13.7097 16.3539 13.7159Z" fill="#FFC900"/>
<path d="M12.2403 15.1095C12.2079 15.1001 12.179 15.079 12.1577 15.0493C12.1364 15.0195 12.1239 14.9826 12.122 14.944L12.1077 14.6514C12.1054 14.6035 12.1195 14.5564 12.1471 14.5206C12.1747 14.4848 12.2134 14.4632 12.2547 14.4605H12.2547L15.6346 14.2392C15.6551 14.2378 15.6756 14.2412 15.6949 14.249C15.7143 14.2569 15.7321 14.269 15.7474 14.2849C15.7627 14.3007 15.7751 14.3199 15.784 14.3413C15.7929 14.3627 15.7981 14.3859 15.7993 14.4096L15.7993 14.4097L15.8135 14.7023C15.8158 14.7502 15.8016 14.7972 15.7741 14.833C15.7465 14.8687 15.7078 14.8904 15.6665 14.8931L12.2866 15.1145C12.271 15.1155 12.2554 15.1138 12.2403 15.1095Z" fill="#3F3D56"/>
<path d="M16.0807 14.4072C16.0545 14.3997 16.0311 14.3829 16.0137 14.3591C15.9963 14.3353 15.9857 14.3057 15.9835 14.2746L15.967 14.0373C15.9655 14.0178 15.9674 13.9982 15.9725 13.9795C15.9776 13.9609 15.9858 13.9436 15.9966 13.9286C16.0074 13.9136 16.0207 13.9013 16.0357 13.8923C16.0506 13.8833 16.067 13.8777 16.0838 13.876C16.1006 13.8744 16.1175 13.8765 16.1336 13.8824C16.1496 13.8883 16.1646 13.8978 16.1775 13.9104C16.1904 13.9229 16.201 13.9383 16.2088 13.9557C16.2166 13.973 16.2213 13.992 16.2228 14.0115L16.2229 14.0133L16.2394 14.2507C16.2421 14.2901 16.2313 14.329 16.2092 14.3591C16.1872 14.3892 16.1557 14.4079 16.1218 14.4111L16.1218 14.4111C16.108 14.4124 16.0941 14.4111 16.0807 14.4072Z" fill="#3F3D56"/>
<path d="M16.1014 15.0285C16.0743 15.0206 16.0502 15.0027 16.0327 14.9776C16.0151 14.9524 16.0051 14.9213 16.0042 14.889L15.9973 14.6509C15.9967 14.6314 15.9995 14.6119 16.0054 14.5936C16.0113 14.5753 16.0203 14.5586 16.0318 14.5443C16.0433 14.53 16.0571 14.5185 16.0725 14.5104C16.0878 14.5023 16.1044 14.4978 16.1213 14.4972C16.1381 14.4965 16.1549 14.4997 16.1707 14.5066C16.1865 14.5134 16.2009 14.5238 16.2133 14.5372C16.2256 14.5505 16.2355 14.5666 16.2425 14.5844C16.2494 14.6022 16.2533 14.6214 16.2539 14.6409L16.2608 14.879C16.2614 14.8985 16.2586 14.918 16.2527 14.9363C16.2468 14.9546 16.2378 14.9714 16.2263 14.9857C16.2148 14.9999 16.2009 15.0114 16.1856 15.0195C16.1702 15.0276 16.1537 15.0321 16.1368 15.0328H16.1368C16.1249 15.0332 16.1129 15.0318 16.1014 15.0285Z" fill="#3F3D56"/>
<path opacity="0.54" d="M25.8128 3.02099L43.1828 0.0811157V19.3669L25.8128 16.4271V3.02099Z" fill="#F2F2F2"/>
<path d="M43.2433 19.448L25.7523 16.4878V2.96035L43.2433 0V19.448ZM25.8733 16.3665L43.1224 19.2858V0.162258L25.8733 3.08165L25.8733 16.3665Z" fill="#3F3D56"/>
</g>
<defs>
<clipPath id="clip0_55_399">
<rect width="70" height="35" fill="white"/>
</clipPath>
</defs>
</svg>
