<svg width="204" height="135" viewBox="0 0 204 135" fill="none" xmlns="http://www.w3.org/2000/svg">
<g clip-path="url(#clip0_64_24)">
<path d="M72.866 77.6937C79.8276 65.4475 93.107 56.0444 107.164 56.9502C96.7953 68.2262 90.7488 82.8064 90.0948 98.1113C89.864 104.015 90.2219 110.605 86.3023 115.025C83.8635 117.775 80.1356 119.108 76.4703 119.387C72.8049 119.666 69.1403 119.004 65.5238 118.345L64.6465 118.614C64.3125 104.531 65.9044 89.9399 72.866 77.6937Z" fill="#FFC900"/>
<path d="M107.185 57.2451C96.79 62.2493 87.9262 70.607 82.485 80.7999C81.3086 83.0035 80.307 85.3414 79.8701 87.8132C79.433 90.2861 79.7383 92.6401 80.583 94.9889C81.3552 97.1361 82.3937 99.2431 82.6304 101.541C82.88 103.962 81.989 106.227 80.385 108.024C78.4225 110.223 75.787 111.585 73.1634 112.828C70.2503 114.208 67.2027 115.595 65.1395 118.171C64.8895 118.483 64.4199 118.077 64.6695 117.765C68.2592 113.284 74.4039 112.442 78.6649 108.832C80.6532 107.148 82.1459 104.854 82.0517 102.166C81.9693 99.8162 80.9002 97.6426 80.0996 95.4752C79.2589 93.1995 78.8397 90.9112 79.1412 88.4849C79.4496 86.0029 80.3618 83.621 81.4767 81.3969C83.9911 76.3811 87.432 71.7762 91.3738 67.7955C95.9041 63.2198 101.184 59.4529 106.984 56.6576C107.343 56.4847 107.542 57.0733 107.185 57.2451Z" fill="white"/>
<path d="M84.0789 77.3934C82.4852 76.2282 81.3577 74.5344 80.8976 72.6145C80.4376 70.6947 80.6749 68.6739 81.5673 66.9129C81.7491 66.5572 82.3103 66.8229 82.1283 67.1791C81.2943 68.8174 81.0734 70.6999 81.5055 72.4867C81.9376 74.2736 82.9941 75.8472 84.4845 76.9234C84.8081 77.1577 84.4006 77.6263 84.0789 77.3934Z" fill="white"/>
<path d="M80.048 93.9517C84.0413 93.3682 87.6679 91.3011 90.2048 88.1625C90.4559 87.8513 90.9256 88.2574 90.6748 88.5682C88.0288 91.8294 84.2503 93.9729 80.0935 94.5709C79.6972 94.6276 79.6539 94.0081 80.048 93.9517V93.9517Z" fill="white"/>
<path d="M96.2109 63.9838C96.7335 64.5631 97.3919 65.0036 98.1269 65.2656C98.8618 65.5277 99.6504 65.603 100.422 65.485C100.817 65.4233 100.86 66.0429 100.467 66.1042C99.6144 66.2306 98.7436 66.1463 97.9309 65.8586C97.1183 65.5709 96.3884 65.0886 95.8052 64.4538C95.7452 64.3985 95.7085 64.3225 95.7025 64.2412C95.6966 64.1599 95.7218 64.0793 95.773 64.0159C95.8271 63.954 95.9034 63.9158 95.9854 63.9098C96.0673 63.9038 96.1484 63.9304 96.2109 63.9838Z" fill="white"/>
<path d="M135.134 95.5826C134.888 95.6282 134.643 95.6737 134.395 95.724C131.094 96.3537 127.85 97.2505 124.694 98.4055C124.449 98.4909 124.201 98.5812 123.959 98.6735C116.386 101.537 109.411 105.782 103.388 111.192C100.993 113.347 98.7653 115.681 96.7247 118.174C93.9066 121.617 91.1251 125.575 87.4426 127.82C87.061 128.058 86.665 128.273 86.2569 128.463L65.0431 119.663C65.0049 119.619 64.9645 119.58 64.9261 119.535L64.063 119.223C64.1593 119.087 64.262 118.948 64.3583 118.812C64.4138 118.733 64.474 118.656 64.5296 118.577C64.5681 118.525 64.6068 118.473 64.6386 118.423C64.6513 118.406 64.6643 118.389 64.6751 118.376C64.7069 118.327 64.7416 118.285 64.7714 118.24C65.3436 117.462 65.9224 116.687 66.5076 115.914C66.5096 115.909 66.5096 115.909 66.5164 115.906C70.9904 110.03 75.9943 104.476 81.6822 99.8578C81.8534 99.7189 82.0263 99.575 82.2072 99.4402C84.7826 97.3727 87.5226 95.5192 90.4 93.8982C91.9784 93.0156 93.6005 92.2135 95.26 91.495C99.5515 89.6466 104.107 88.4848 108.76 88.0521C118.034 87.1908 127.482 89.3054 134.595 95.1321C134.777 95.2813 134.954 95.4286 135.134 95.5826Z" fill="#FFC900"/>
<path d="M134.975 95.8321C123.662 93.5691 111.553 94.9056 101.071 99.768C98.8054 100.819 96.5982 102.083 94.7611 103.793C92.9233 105.505 91.7497 107.568 91.01 109.952C90.3338 112.131 89.8944 114.439 88.7002 116.416C87.4414 118.5 85.3667 119.771 83.004 120.24C80.1132 120.815 77.1885 120.316 74.3454 119.729C71.1887 119.077 67.9201 118.349 64.7221 119.163C64.3346 119.262 64.2041 118.655 64.5911 118.557C70.1551 117.14 75.5685 120.167 81.1439 119.85C83.7456 119.702 86.3184 118.77 87.8613 116.567C89.2106 114.641 89.6656 112.262 90.3313 110.049C91.0302 107.726 92.0732 105.647 93.7747 103.891C95.5153 102.095 97.6777 100.742 99.907 99.6377C104.934 97.1466 110.454 95.5415 115.998 94.7364C122.37 93.8106 128.854 93.9816 135.168 95.242C135.559 95.3201 135.363 95.9098 134.975 95.8321V95.8321Z" fill="white"/>
<path d="M104.395 98.0077C103.824 96.1179 103.944 94.0866 104.732 92.2767C105.521 90.4669 106.927 88.9962 108.7 88.1274C109.059 87.9529 109.347 88.503 108.987 88.6778C107.335 89.4838 106.025 90.8538 105.294 92.5407C104.564 94.2275 104.46 96.1201 105.002 97.8767C105.119 98.2586 104.512 98.3874 104.395 98.0077Z" fill="white"/>
<path d="M91.2073 108.802C94.747 110.74 98.8872 111.273 102.802 110.294C103.19 110.197 103.321 110.804 102.933 110.901C98.8573 111.912 94.5499 111.349 90.8708 109.324C90.5203 109.13 90.8587 108.61 91.2073 108.802Z" fill="white"/>
<path d="M122.155 94.6052C122.224 95.3824 122.484 96.1305 122.913 96.7822C123.342 97.4339 123.927 97.9689 124.613 98.339C124.966 98.5277 124.627 99.0483 124.277 98.8608C123.52 98.4483 122.875 97.8567 122.4 97.1377C121.924 96.4187 121.632 95.5942 121.548 94.7362C121.534 94.656 121.55 94.5732 121.594 94.5046C121.638 94.4361 121.707 94.387 121.786 94.3672C121.867 94.3503 121.951 94.3658 122.02 94.4103C122.089 94.4549 122.137 94.5249 122.155 94.6052Z" fill="white"/>
<path d="M94.7234 110.1C91.7524 95.7346 88.0387 90.9452 88.0387 90.9452L86.62 89.845L84.9139 88.5198L84.9221 88.3494L84.5174 88.2118L84.4224 88.138L84.2666 88.0184L84.2416 88.0453L84.1887 88.1001L76.4682 85.4758L66.6735 82.1488L62.138 76.2535C61.3993 75.2933 60.4483 74.5173 59.3595 73.9862C58.2707 73.4552 57.0737 73.1834 55.8624 73.1924L41.3772 73.2996C39.4187 73.3141 37.5364 74.0607 36.1004 75.3927L26.5796 84.224L11.7443 91.3092L11.7192 91.2842L11.5634 91.3954L9.27124 92.4914L9.36583 92.9838L7.94711 94.0075C7.94711 94.0075 4.23342 98.464 1.26246 111.83C0.506679 115.231 0.134657 122.527 0.000377355 131.517C-0.00636752 131.972 0.0773669 132.424 0.24671 132.846C0.416053 133.268 0.667627 133.652 0.986804 133.976C1.30598 134.301 1.68639 134.558 2.10592 134.734C2.52545 134.909 2.97572 135 3.43056 135H82.6689V135H92.5588C93.0133 135 93.4633 134.909 93.8826 134.734C94.3018 134.558 94.682 134.301 95.0012 133.978C95.3203 133.654 95.5719 133.27 95.7415 132.848C95.9111 132.427 95.9952 131.976 95.989 131.521C95.8579 121.738 95.486 113.788 94.7234 110.1Z" fill="#3F3D56"/>
<path d="M104.89 12.5275C101.807 12.5275 98.8504 13.7521 96.6705 15.932C94.4906 18.1119 93.266 21.0685 93.266 24.1513C93.266 27.2342 94.4906 30.1907 96.6705 32.3706C98.8504 34.5505 101.807 35.7752 104.89 35.7752H191.515C194.598 35.7752 197.554 34.5505 199.734 32.3706C201.914 30.1907 203.139 27.2342 203.139 24.1513C203.139 21.0685 201.914 18.1119 199.734 15.932C197.554 13.7521 194.598 12.5275 191.515 12.5275H104.89Z" fill="#1572A1"/>
<path d="M104.89 14.8799C102.431 14.8799 100.073 15.8567 98.3339 17.5955C96.5952 19.3342 95.6184 21.6924 95.6184 24.1513C95.6184 26.6102 96.5952 28.9685 98.3339 30.7072C100.073 32.4459 102.431 33.4227 104.89 33.4227H191.515C193.974 33.4227 196.332 32.4459 198.071 30.7072C199.81 28.9685 200.786 26.6102 200.786 24.1513C200.786 21.6924 199.81 19.3342 198.071 17.5955C196.332 15.8567 193.974 14.8799 191.515 14.8799H104.89Z" fill="white"/>
<path d="M50.8945 67.7507C61.3751 67.7507 69.8714 59.2544 69.8714 48.7738C69.8714 38.2931 61.3751 29.7969 50.8945 29.7969C40.4138 29.7969 31.9176 38.2931 31.9176 48.7738C31.9176 59.2544 40.4138 67.7507 50.8945 67.7507Z" fill="#9E616A"/>
<path d="M46.0399 66.8214C45.9588 66.6429 45.878 66.4638 45.7974 66.2841C45.8284 66.2851 45.8592 66.2896 45.8903 66.2904L46.0399 66.8214Z" fill="#2F2E41"/>
<path d="M31.3899 30.6598C32.3497 29.8942 33.4715 29.1897 34.6986 29.2293C35.9257 29.2688 37.1701 30.3772 36.9159 31.5783C39.1699 27.5874 42.7575 24.518 47.0491 22.9088C51.3407 21.2995 56.062 21.2533 60.3843 22.7783C63.4342 23.8543 66.4251 26.007 67.1257 29.1644C67.3056 29.9749 67.3442 30.8636 67.8503 31.5218C68.4883 32.3516 69.7091 32.5393 70.7144 32.2474C70.7244 32.2445 70.7345 32.2415 70.7445 32.2385C70.9143 32.1805 71.0976 32.1748 71.2707 32.2222C71.4438 32.2695 71.5987 32.3677 71.7154 32.504C71.8321 32.6403 71.9052 32.8085 71.9253 32.9868C71.9453 33.1652 71.9114 33.3454 71.8279 33.5042L70.9649 35.1137C72.0528 35.3562 73.1831 35.3321 74.2596 35.0436C74.4384 34.9967 74.6274 35.0063 74.8006 35.071C74.9738 35.1358 75.1227 35.2525 75.2269 35.4052C75.3311 35.5579 75.3855 35.7391 75.3826 35.924C75.3798 36.1088 75.3198 36.2883 75.2109 36.4377C72.3654 40.3445 67.6114 42.8673 62.7601 42.8376C59.3121 42.8166 55.8286 41.6283 52.4729 42.4212C51.1747 42.7279 49.9617 43.3214 48.9228 44.1581C47.8839 44.9948 47.0455 46.0535 46.4691 47.2565C45.8927 48.4595 45.593 49.7762 45.5919 51.1102C45.5908 52.4441 45.8883 53.7614 46.4627 54.9653C45.4318 53.8377 43.439 54.1047 42.3845 55.2103C41.33 56.3158 41.057 57.9659 41.1633 59.49C41.3258 61.8211 42.2391 64.0177 43.2019 66.1555C35.1294 65.9014 27.4941 60.2386 24.924 52.5795C22.3432 44.8884 25.048 35.719 31.3899 30.6598Z" fill="#2F2E41"/>
<path opacity="0.2" d="M18.6782 105.763L24.0008 134.722L27.1944 135L18.6782 105.763Z" fill="black"/>
<path opacity="0.2" d="M77.3075 103.579L71.9849 134.701L68.7913 135L77.3075 103.579Z" fill="black"/>
<path d="M35.9296 20.9137C34.9091 21.3398 33.8442 20.8728 33.3976 19.8033C32.9442 18.7174 33.3677 17.6151 34.4046 17.1821C35.4415 16.7491 36.4875 17.2173 36.9482 18.3207C37.402 19.4075 36.9831 20.4738 35.9296 20.9137ZM33.9747 15.0448L33.1633 15.3836C32.9605 15.4673 32.7338 15.4718 32.5279 15.3963C32.3221 15.3208 32.152 15.1707 32.0515 14.9759L32.0113 14.8974C31.1382 13.3228 31.0383 11.409 31.7158 9.21238C32.3434 7.24186 32.6041 5.85601 32.0799 4.6005C31.4737 3.14889 30.1794 2.69417 28.5288 3.35288C27.8886 3.62019 27.6849 3.61593 27.1812 4.11569C27.0716 4.22572 26.9409 4.31256 26.7971 4.37102C26.6532 4.42948 26.499 4.45838 26.3438 4.45598C26.1937 4.45421 26.0454 4.42223 25.908 4.36195C25.7705 4.30167 25.6465 4.21432 25.5436 4.10511C25.3451 3.89464 25.234 3.61672 25.2325 3.32747C25.231 3.03822 25.3394 2.7592 25.5357 2.54674C26.3825 1.66033 27.4038 0.959073 28.5352 0.48721C32.0816 -0.993628 33.8668 1.19262 34.6838 3.1491C35.4829 5.06277 35.0334 6.83833 34.3111 9.13785C33.7059 11.0486 33.7411 12.4645 34.4287 13.8723C34.4783 13.9787 34.5059 14.0941 34.5098 14.2114C34.5138 14.3288 34.494 14.4458 34.4516 14.5553C34.4092 14.6648 34.3451 14.7646 34.2631 14.8487C34.1812 14.9329 34.0831 14.9995 33.9747 15.0448L33.9747 15.0448Z" fill="#FFC900"/>
<path d="M124.024 29.6951H106.789C106.734 29.6955 106.68 29.685 106.629 29.6643C106.579 29.6436 106.533 29.6131 106.494 29.5745C106.455 29.5359 106.424 29.49 106.403 29.4395C106.382 29.3889 106.371 29.3347 106.371 29.28C106.371 29.2252 106.382 29.171 106.403 29.1204C106.424 29.0699 106.455 29.024 106.494 28.9854C106.533 28.9468 106.579 28.9163 106.629 28.8956C106.68 28.8749 106.734 28.8645 106.789 28.8648H124.024C124.134 28.8656 124.239 28.9096 124.316 28.9874C124.393 29.0652 124.437 29.1703 124.437 29.28C124.437 29.3896 124.393 29.4947 124.316 29.5725C124.239 29.6503 124.134 29.6944 124.024 29.6951Z" fill="#FFC900"/>
<path d="M145.888 29.8335H128.653C128.598 29.8338 128.544 29.8234 128.493 29.8027C128.442 29.782 128.396 29.7515 128.357 29.7129C128.319 29.6743 128.288 29.6284 128.267 29.5779C128.246 29.5273 128.235 29.4731 128.235 29.4183C128.235 29.3636 128.246 29.3094 128.267 29.2588C128.288 29.2083 128.319 29.1624 128.357 29.1238C128.396 29.0852 128.442 29.0547 128.493 29.034C128.544 29.0133 128.598 29.0028 128.653 29.0032H145.888C145.943 29.0028 145.997 29.0133 146.048 29.034C146.099 29.0547 146.145 29.0852 146.183 29.1238C146.222 29.1624 146.253 29.2083 146.274 29.2588C146.295 29.3094 146.306 29.3636 146.306 29.4183C146.306 29.4731 146.295 29.5273 146.274 29.5779C146.253 29.6284 146.222 29.6743 146.183 29.7129C146.145 29.7515 146.099 29.782 146.048 29.8027C145.997 29.8234 145.943 29.8338 145.888 29.8335Z" fill="#FFC900"/>
<path d="M167.752 29.9718H150.517C150.407 29.9711 150.302 29.927 150.225 29.8493C150.148 29.7715 150.104 29.6663 150.104 29.5567C150.104 29.4471 150.148 29.3419 150.225 29.2642C150.302 29.1864 150.407 29.1423 150.517 29.1416H167.752C167.807 29.1412 167.861 29.1517 167.912 29.1724C167.962 29.1931 168.009 29.2236 168.047 29.2622C168.086 29.3008 168.117 29.3466 168.138 29.3972C168.159 29.4477 168.17 29.502 168.17 29.5567C168.17 29.6115 168.159 29.6657 168.138 29.7162C168.117 29.7668 168.086 29.8127 168.047 29.8513C168.009 29.8898 167.962 29.9204 167.912 29.9411C167.861 29.9618 167.807 29.9722 167.752 29.9718H167.752Z" fill="#FFC900"/>
<path d="M189.616 30.1102H172.381C172.271 30.1095 172.166 30.0654 172.089 29.9876C172.012 29.9099 171.968 29.8047 171.968 29.6951C171.968 29.5855 172.012 29.4803 172.089 29.4025C172.166 29.3248 172.271 29.2807 172.381 29.28H189.616C189.726 29.2807 189.83 29.3248 189.908 29.4025C189.985 29.4803 190.028 29.5855 190.028 29.6951C190.028 29.8047 189.985 29.9099 189.908 29.9876C189.83 30.0654 189.726 30.1095 189.616 30.1102Z" fill="#FFC900"/>
<path d="M115.369 25.8745C117.138 25.8745 118.572 24.4404 118.572 22.6713C118.572 20.9021 117.138 19.468 115.369 19.468C113.6 19.468 112.165 20.9021 112.165 22.6713C112.165 24.4404 113.6 25.8745 115.369 25.8745Z" fill="#FFC900"/>
<path d="M137.365 25.8745C139.134 25.8745 140.568 24.4404 140.568 22.6713C140.568 20.9021 139.134 19.468 137.365 19.468C135.595 19.468 134.161 20.9021 134.161 22.6713C134.161 24.4404 135.595 25.8745 137.365 25.8745Z" fill="#FFC900"/>
<path d="M159.361 25.8745C161.13 25.8745 162.564 24.4404 162.564 22.6713C162.564 20.9021 161.13 19.468 159.361 19.468C157.591 19.468 156.157 20.9021 156.157 22.6713C156.157 24.4404 157.591 25.8745 159.361 25.8745Z" fill="#FFC900"/>
<path d="M181.357 25.8745C183.126 25.8745 184.56 24.4404 184.56 22.6713C184.56 20.9021 183.126 19.468 181.357 19.468C179.587 19.468 178.153 20.9021 178.153 22.6713C178.153 24.4404 179.587 25.8745 181.357 25.8745Z" fill="#FFC900"/>
</g>
<defs>
<clipPath id="clip0_64_24">
<rect width="203.139" height="135" fill="white"/>
</clipPath>
</defs>
</svg>
