<svg width="179" height="140" viewBox="0 0 179 140" fill="none" xmlns="http://www.w3.org/2000/svg">
<g clip-path="url(#clip0_21_5)">
<path d="M162.314 127.805C158.896 131.465 154.979 134.625 150.679 137.192C150.581 137.253 150.48 137.31 150.38 137.369L143.419 131.208C143.492 131.14 143.573 131.063 143.66 130.98C148.847 126.055 174.596 91.6191 176.312 83.2335C176.193 83.9322 177.86 111.329 162.314 127.805Z" fill="#F0F0F0"/>
<path d="M152.023 138.381C151.891 138.412 151.757 138.442 151.623 138.469L146.4 133.846C146.502 133.811 146.622 133.768 146.758 133.721C148.999 132.928 155.672 130.533 162.314 127.805C169.45 124.872 176.552 121.559 178.08 119.436C177.752 119.929 167.659 134.884 152.023 138.381Z" fill="#F0F0F0"/>
<path d="M162.218 36.6656H161.474V16.2918C161.474 14.7433 161.169 13.21 160.576 11.7793C159.984 10.3487 159.115 9.04877 158.02 7.9538C156.925 6.85883 155.625 5.99025 154.195 5.39766C152.764 4.80506 151.231 4.50006 149.682 4.50006H106.518C104.969 4.50006 103.436 4.80506 102.005 5.39765C100.574 5.99023 99.2745 6.85881 98.1796 7.95377C97.0846 9.04874 96.216 10.3487 95.6234 11.7793C95.0308 13.2099 94.7258 14.7433 94.7258 16.2918V128.064C94.7258 129.612 95.0308 131.146 95.6234 132.576C96.216 134.007 97.0846 135.307 98.1796 136.402C99.2745 137.497 100.574 138.365 102.005 138.958C103.436 139.551 104.969 139.856 106.518 139.856H149.682C151.231 139.856 152.764 139.551 154.195 138.958C155.625 138.365 156.925 137.497 158.02 136.402C159.115 135.307 159.984 134.007 160.576 132.576C161.169 131.146 161.474 129.612 161.474 128.064V51.168H162.218V36.6656Z" fill="#3F3D56"/>
<path d="M158.964 16.3729V127.982C158.964 129.139 158.736 130.284 158.293 131.352C157.851 132.421 157.202 133.391 156.384 134.209C155.566 135.027 154.595 135.675 153.527 136.117C152.458 136.56 151.313 136.787 150.157 136.787H106.784C105.628 136.787 104.483 136.559 103.415 136.117C102.347 135.674 101.376 135.026 100.559 134.208C99.7409 133.391 99.0924 132.42 98.65 131.352C98.2076 130.284 97.9799 129.139 97.98 127.982V16.3729C97.9799 15.2167 98.2076 14.0718 98.65 13.0036C99.0924 11.9353 99.7409 10.9647 100.559 10.1472C101.376 9.32962 102.347 8.68112 103.415 8.2387C104.483 7.79628 105.628 7.56861 106.784 7.5687H112.048C111.789 8.20398 111.691 8.89302 111.761 9.57521C111.832 10.2574 112.069 10.9118 112.451 11.481C112.834 12.0501 113.351 12.5165 113.956 12.8391C114.561 13.1617 115.236 13.3307 115.922 13.3311H140.65C141.336 13.3318 142.012 13.1635 142.618 12.8412C143.224 12.5189 143.741 12.0524 144.124 11.483C144.507 10.9135 144.743 10.2586 144.813 9.57595C144.883 8.8933 144.784 8.20394 144.525 7.5687H150.157C151.313 7.56828 152.458 7.79569 153.527 8.23796C154.595 8.68022 155.566 9.32867 156.384 10.1463C157.202 10.9638 157.851 11.9345 158.293 13.0029C158.736 14.0713 158.964 15.2164 158.964 16.3729Z" fill="white"/>
<path d="M145.472 74.371H107.349C106.682 74.3703 106.041 74.1047 105.569 73.6325C105.097 73.1604 104.831 72.5202 104.831 71.8525V70.5988C104.831 69.9311 105.097 69.2909 105.569 68.8188C106.041 68.3466 106.682 68.081 107.349 68.0802H145.472C146.14 68.081 146.78 68.3466 147.252 68.8188C147.725 69.2909 147.99 69.9311 147.991 70.5988V71.8525C147.99 72.5202 147.725 73.1604 147.252 73.6325C146.78 74.1047 146.14 74.3703 145.472 74.371Z" fill="#F0F0F0"/>
<path d="M145.472 85.1776H107.349C106.682 85.1768 106.041 84.9112 105.569 84.4391C105.097 83.9669 104.831 83.3267 104.831 82.659V81.4054C104.831 80.7376 105.097 80.0974 105.569 79.6253C106.041 79.1531 106.682 78.8875 107.349 78.8868H145.472C146.14 78.8875 146.78 79.1531 147.252 79.6253C147.725 80.0974 147.99 80.7376 147.991 81.4054V82.659C147.99 83.3267 147.725 83.9669 147.252 84.4391C146.78 84.9112 146.14 85.1768 145.472 85.1776Z" fill="#F0F0F0"/>
<path d="M147.379 71.9541H109.256C108.555 71.9533 107.883 71.6745 107.387 71.1787C106.891 70.6829 106.613 70.0108 106.612 69.3097V68.056C106.613 67.3549 106.891 66.6827 107.387 66.187C107.883 65.6912 108.555 65.4123 109.256 65.4115H147.379C148.081 65.4123 148.753 65.6912 149.248 66.187C149.744 66.6827 150.023 67.3549 150.024 68.056V69.3097C150.023 70.0108 149.744 70.6829 149.248 71.1787C148.753 71.6745 148.081 71.9533 147.379 71.9541ZM109.256 65.9152C108.689 65.9159 108.145 66.1416 107.743 66.543C107.342 66.9443 107.116 67.4884 107.115 68.056V69.3097C107.116 69.8772 107.342 70.4214 107.743 70.8227C108.145 71.2241 108.689 71.4498 109.256 71.4504H147.379C147.947 71.4498 148.491 71.2241 148.892 70.8227C149.294 70.4214 149.52 69.8772 149.52 69.3097V68.056C149.52 67.4884 149.294 66.9443 148.892 66.543C148.491 66.1416 147.947 65.9159 147.379 65.9152H109.256Z" fill="#3F3D56"/>
<path d="M147.379 82.7607H109.256C108.555 82.7599 107.883 82.481 107.387 81.9853C106.891 81.4895 106.613 80.8173 106.612 80.1162V78.8626C106.613 78.1614 106.891 77.4892 107.387 76.9935C107.883 76.4977 108.555 76.2188 109.256 76.218H147.379C148.081 76.2188 148.753 76.4977 149.248 76.9935C149.744 77.4892 150.023 78.1614 150.024 78.8626V80.1162C150.023 80.8173 149.744 81.4895 149.248 81.9853C148.753 82.481 148.081 82.7599 147.379 82.7607ZM109.256 76.7218C108.689 76.7224 108.145 76.9481 107.743 77.3495C107.342 77.7508 107.116 78.295 107.115 78.8626V80.1162C107.116 80.6838 107.342 81.2279 107.743 81.6293C108.145 82.0306 108.689 82.2564 109.256 82.257H147.379C147.947 82.2564 148.491 82.0306 148.892 81.6293C149.294 81.2279 149.52 80.6838 149.52 80.1162V78.8626C149.52 78.295 149.294 77.7508 148.892 77.3495C148.491 76.9481 147.947 76.7224 147.379 76.7218H109.256Z" fill="#3F3D56"/>
<path d="M158.964 16.3728V40.6493C155.107 41.6642 151.068 41.7806 147.158 40.9897C143.249 40.1987 139.573 38.5215 136.413 36.0871C133.253 33.6526 130.694 30.5257 128.933 26.9471C127.171 23.3685 126.254 19.4334 126.252 15.4447C126.252 14.7328 126.28 14.0282 126.338 13.3311H140.65C141.336 13.3318 142.012 13.1635 142.618 12.8412C143.224 12.5189 143.741 12.0524 144.124 11.483C144.507 10.9135 144.743 10.2586 144.813 9.57594C144.883 8.8933 144.784 8.20394 144.525 7.5687H150.157C151.313 7.56828 152.458 7.79569 153.527 8.23795C154.595 8.68022 155.566 9.32866 156.384 10.1462C157.202 10.9638 157.851 11.9345 158.293 13.0029C158.736 14.0713 158.964 15.2164 158.964 16.3728Z" fill="#F0F0F0"/>
<path d="M119.895 135.27C119.895 135.782 119.876 136.287 119.835 136.786H106.784C105.628 136.786 104.483 136.559 103.415 136.116C102.347 135.674 101.376 135.025 100.559 134.208C99.7409 133.39 99.0924 132.42 98.65 131.351C98.2076 130.283 97.9799 129.138 97.98 127.982V116.044C100.716 115.688 103.496 115.92 106.135 116.723C108.774 117.526 111.211 118.882 113.285 120.702C115.359 122.521 117.021 124.761 118.161 127.273C119.301 129.785 119.892 132.512 119.895 135.27H119.895Z" fill="#FFC900"/>
<path d="M14.6384 114.323C15.0051 114.485 15.4208 114.494 15.7943 114.349C16.1678 114.204 16.4687 113.917 16.6308 113.551L28.3874 86.9058C28.6565 86.296 28.7387 85.6202 28.6237 84.9637C28.5086 84.3072 28.2015 83.6996 27.7411 83.2177C27.2807 82.7357 26.6877 82.4012 26.0372 82.2563C25.3866 82.1114 24.7077 82.1626 24.0863 82.4036H24.0863C23.3684 82.6778 22.7676 83.1922 22.3862 83.8594C22.3256 83.9649 22.2705 84.0736 22.2214 84.185L10.4648 110.83C10.3847 111.012 10.3411 111.207 10.3366 111.406C10.332 111.604 10.3666 111.801 10.4383 111.986C10.5101 112.171 10.6176 112.341 10.7547 112.484C10.8918 112.628 11.0558 112.743 11.2374 112.823L14.6384 114.323Z" fill="#FFC900"/>
<path d="M27.9048 97.8448L16.276 95.2605L19.1543 87.6464C19.6446 85.7853 20.7857 84.1616 22.3706 83.0699C23.9555 81.9781 25.8792 81.4904 27.7928 81.6955L27.9048 81.7079L27.9048 97.8448Z" fill="#2F2E41"/>
<path d="M51.3931 114.704C51.051 114.704 50.7165 114.604 50.4299 114.417C50.1433 114.231 49.9169 113.965 49.7782 113.652L38.0216 87.0074C37.6477 86.1596 37.6129 85.2007 37.9245 84.3281C38.236 83.4555 38.8701 82.7354 39.6964 82.3161C40.5226 81.8968 41.4782 81.8101 42.3664 82.0738C43.2546 82.3375 44.008 82.9317 44.4716 83.7339V83.7338C44.5367 83.8471 44.5958 83.9638 44.6485 84.0834L56.4051 110.729C56.5938 111.156 56.6049 111.642 56.4359 112.078C56.2669 112.513 55.9316 112.864 55.5038 113.053L51.9875 114.605L51.9857 114.601C51.7956 114.669 51.5951 114.704 51.3931 114.704Z" fill="#FFC900"/>
<path d="M35.1307 105.555C34.73 105.555 34.3459 105.714 34.0626 105.998C33.7793 106.281 33.62 106.665 33.6195 107.066V138.048C33.62 138.449 33.7793 138.833 34.0626 139.116C34.3459 139.399 34.73 139.559 35.1307 139.559H38.848C39.2486 139.559 39.6327 139.399 39.916 139.116C40.1993 138.833 40.3587 138.449 40.3591 138.048V107.066C40.3587 106.665 40.1993 106.281 39.916 105.998C39.6327 105.714 39.2486 105.555 38.848 105.555H35.1307Z" fill="#FFC900"/>
<path d="M27.7783 105.555C27.3777 105.555 26.9935 105.714 26.7102 105.998C26.4269 106.281 26.2676 106.665 26.2672 107.066V138.048C26.2676 138.449 26.4269 138.833 26.7102 139.116C26.9935 139.399 27.3777 139.559 27.7783 139.559H31.4957C31.8963 139.559 32.2804 139.399 32.5637 139.116C32.847 138.833 33.0064 138.449 33.0068 138.048V107.066C33.0064 106.665 32.847 106.281 32.5637 105.998C32.2804 105.714 31.8963 105.555 31.4957 105.555H27.7783Z" fill="#FFC900"/>
<path d="M33.2021 73.0954C40.2961 73.0954 46.0469 67.3446 46.0469 60.2506C46.0469 53.1567 40.2961 47.4059 33.2021 47.4059C26.1081 47.4059 20.3573 53.1567 20.3573 60.2506C20.3573 67.3446 26.1081 73.0954 33.2021 73.0954Z" fill="#FFC900"/>
<path d="M37.4766 65.6427C38.3092 65.6196 39.3454 65.5907 40.1438 65.0075C40.3815 64.8268 40.5768 64.5962 40.716 64.332C40.8552 64.0678 40.935 63.7763 40.9497 63.4781C40.9642 63.2661 40.9294 63.0536 40.8481 62.8573C40.7668 62.661 40.6412 62.4861 40.4812 62.3464C40.0642 61.9941 39.4554 61.9114 38.7992 62.1043L39.479 57.1361L38.98 57.0678L38.1808 62.9084L38.5975 62.7172C39.0807 62.4956 39.7439 62.3828 40.156 62.7311C40.2572 62.8221 40.3361 62.9353 40.3864 63.0618C40.4368 63.1883 40.4573 63.3247 40.4463 63.4603C40.4341 63.6823 40.3742 63.8991 40.2707 64.0959C40.1673 64.2927 40.0226 64.4649 39.8466 64.6007C39.2254 65.0545 38.3994 65.1131 37.4626 65.1393L37.4766 65.6427Z" fill="#2F2E41"/>
<path d="M44.66 57.5646H41.9471V58.0684H44.66V57.5646Z" fill="#2F2E41"/>
<path d="M36.0968 57.5646H33.3839V58.0684H36.0968V57.5646Z" fill="#2F2E41"/>
<path d="M45.9294 114.861L41.3063 81.1118C41.2567 80.7499 41.0777 80.4183 40.8025 80.1782C40.5272 79.9381 40.1743 79.8058 39.809 79.8058H36.3194C36.334 79.7226 36.3415 79.6384 36.3421 79.5539V78.2946C36.342 77.8939 36.1828 77.5095 35.8994 77.2261C35.616 76.9427 35.2317 76.7835 34.8309 76.7835H31.8086C31.4078 76.7835 31.0234 76.9427 30.7401 77.2261C30.4567 77.5095 30.2974 77.8939 30.2974 78.2946V79.5539C30.298 79.6384 30.3055 79.7226 30.3201 79.8058H26.8304C26.4652 79.8058 26.1123 79.9381 25.837 80.1782C25.5618 80.4183 25.3828 80.75 25.3332 81.1118L20.7101 114.861C20.6808 115.075 20.6976 115.292 20.7594 115.499C20.8213 115.706 20.9266 115.897 21.0685 116.059C21.2103 116.222 21.3853 116.352 21.5817 116.441C21.7782 116.531 21.9914 116.577 22.2072 116.577H44.4323C44.648 116.577 44.8613 116.531 45.0577 116.441C45.2541 116.352 45.4292 116.222 45.571 116.059C45.7128 115.897 45.8182 115.706 45.88 115.499C45.9419 115.292 45.9587 115.075 45.9294 114.861Z" fill="#2F2E41"/>
<path d="M38.7347 97.8448V81.7079L38.8467 81.6955C40.7627 81.4906 42.6885 81.9798 44.2744 83.0742C45.8603 84.1686 47.0011 85.7956 47.4894 87.6595L50.3634 95.2606L38.7347 97.8448Z" fill="#2F2E41"/>
<path d="M32.5553 73.4963L23.6708 70.0478C22.218 69.4839 20.7571 68.9372 19.312 68.3539C18.693 68.1382 18.1228 67.8021 17.6343 67.3651C17.2089 66.9148 16.919 66.3538 16.7978 65.7464C16.4897 64.4439 16.5454 63.02 16.5674 61.6908C16.5844 60.2368 16.7041 58.7858 16.9254 57.3486C17.3134 54.6479 18.2246 52.0488 19.6078 49.697C22.0994 45.609 26.3922 42.5333 31.3301 42.7787C33.6161 42.8924 35.9153 43.7127 37.6138 45.2757C37.791 45.4874 37.9897 45.6801 38.2069 45.8505C38.3579 45.9071 38.5221 45.9182 38.6793 45.8822C38.8866 45.8689 39.094 45.8587 39.3016 45.8517C40.022 45.8213 40.7436 45.8516 41.4589 45.9422C42.7625 46.083 43.9979 46.596 45.0178 47.4199C45.8666 48.1501 46.5572 49.1809 46.6283 50.3264C46.6626 50.8522 46.5757 51.3789 46.3742 51.8658C46.1727 52.3528 45.862 52.7869 45.4662 53.1347C44.4062 54.028 42.8939 53.7141 41.6224 53.6467L36.9646 53.3999L34.6047 53.2749C34.1187 53.2492 34.1202 54.0048 34.6047 54.0305L40.8772 54.3628C41.8852 54.4162 42.924 54.5471 43.9328 54.4866C44.708 54.4515 45.4481 54.1538 46.0316 53.6423C46.5645 53.1528 46.9615 52.5335 47.1838 51.8449C47.4061 51.1562 47.4462 50.4217 47.3002 49.713C46.9768 48.1672 45.8263 46.8885 44.4777 46.1278C42.6426 45.0927 40.4509 44.9935 38.3976 45.1465L38.6647 45.2572C36.342 42.7643 32.7842 41.7117 29.4441 42.08C25.9175 42.469 22.7809 44.4364 20.5273 47.1267C18.0146 50.1262 16.6454 53.8663 16.1131 57.7122C15.8361 59.7887 15.7449 61.8857 15.8406 63.9784C15.8366 64.9013 15.9945 65.8178 16.3071 66.6862C16.6637 67.5313 17.3085 68.2226 18.1268 68.6371C19.0649 69.09 20.0294 69.4862 21.0151 69.8236L24.2883 71.094L30.7178 73.5896L32.3544 74.2248C32.808 74.4009 33.0045 73.6706 32.5553 73.4963Z" fill="#2F2E41"/>
<path d="M18.586 47.8197C17.8139 47.8197 17.0591 47.5908 16.4172 47.1618C15.7752 46.7329 15.2748 46.1232 14.9794 45.4099C14.6839 44.6965 14.6066 43.9116 14.7572 43.1543C14.9078 42.3971 15.2796 41.7015 15.8256 41.1555C16.3715 40.6096 17.0671 40.2378 17.8244 40.0871C18.5817 39.9365 19.3666 40.0138 20.0799 40.3093C20.7933 40.6048 21.4029 41.1051 21.8319 41.7471C22.2609 42.3891 22.4898 43.1438 22.4898 43.9159C22.4887 44.9509 22.077 45.9432 21.3451 46.6751C20.6133 47.4069 19.621 47.8186 18.586 47.8197ZM18.586 40.7677C17.9633 40.7677 17.3547 40.9523 16.8369 41.2983C16.3192 41.6442 15.9157 42.1359 15.6774 42.7112C15.4391 43.2864 15.3768 43.9194 15.4983 44.5301C15.6197 45.1408 15.9196 45.7018 16.3599 46.1421C16.8002 46.5824 17.3611 46.8822 17.9718 47.0037C18.5825 47.1252 19.2155 47.0628 19.7908 46.8245C20.366 46.5862 20.8577 46.1827 21.2037 45.665C21.5496 45.1473 21.7342 44.5386 21.7342 43.9159C21.7333 43.0813 21.4013 42.281 20.8111 41.6908C20.2209 41.1006 19.4207 40.7686 18.586 40.7677Z" fill="#2F2E41"/>
<path d="M83.8437 72.012L75.394 65.5495L68.9315 73.9991L77.3812 80.4616L83.8437 72.012Z" fill="#F0F0F0"/>
<path d="M36.0902 14.3225C37.4252 14.3215 38.742 14.6331 39.935 15.2324C41.1279 15.8316 42.164 16.7019 42.9602 17.7736L47.8941 11.3225L33.0901 0L21.7677 14.804L28.1481 19.684C28.7867 18.1004 29.8839 16.7438 31.2991 15.7885C32.7143 14.8332 34.3827 14.3227 36.0902 14.3225Z" fill="#F0F0F0"/>
<path d="M178.064 140H0.251859C0.185062 140 0.121 139.973 0.0737676 139.926C0.0265349 139.879 0 139.815 0 139.748C0 139.681 0.0265349 139.617 0.0737676 139.57C0.121 139.523 0.185062 139.496 0.251859 139.496H178.064C178.131 139.496 178.195 139.523 178.242 139.57C178.29 139.617 178.316 139.681 178.316 139.748C178.316 139.815 178.29 139.879 178.242 139.926C178.195 139.973 178.131 140 178.064 140Z" fill="#3F3D56"/>
<path d="M134.666 98.2089H116.567C115.899 98.2082 115.259 97.9426 114.787 97.4704C114.314 96.9983 114.049 96.3581 114.048 95.6904V94.4367C114.049 93.769 114.314 93.1288 114.787 92.6567C115.259 92.1845 115.899 91.9189 116.567 91.9182H134.666C135.334 91.9189 135.974 92.1845 136.446 92.6567C136.918 93.1288 137.184 93.769 137.184 94.4367V95.6904C137.184 96.3581 136.918 96.9983 136.446 97.4704C135.974 97.9426 135.334 98.2082 134.666 98.2089Z" fill="#FFC900"/>
<path d="M136.573 95.7922H118.474C117.773 95.7914 117.1 95.5125 116.605 95.0168C116.109 94.521 115.83 93.8488 115.829 93.1477V91.894C115.83 91.1929 116.109 90.5207 116.605 90.025C117.1 89.5292 117.773 89.2503 118.474 89.2495H136.573C137.274 89.2503 137.946 89.5292 138.442 90.025C138.938 90.5207 139.217 91.1929 139.217 91.894V93.1477C139.217 93.8488 138.938 94.521 138.442 95.0168C137.946 95.5125 137.274 95.7914 136.573 95.7922ZM118.474 89.7532C117.906 89.7539 117.362 89.9796 116.961 90.381C116.559 90.7823 116.334 91.3265 116.333 91.894V93.1477C116.334 93.7153 116.559 94.2594 116.961 94.6608C117.362 95.0621 117.906 95.2878 118.474 95.2885H136.573C137.14 95.2878 137.685 95.0621 138.086 94.6608C138.487 94.2594 138.713 93.7153 138.714 93.1477V91.894C138.713 91.3265 138.487 90.7823 138.086 90.381C137.685 89.9796 137.14 89.7539 136.573 89.7532H118.474Z" fill="#3F3D56"/>
</g>
<defs>
<clipPath id="clip0_21_5">
<rect width="178.316" height="140" fill="white"/>
</clipPath>
</defs>
</svg>
