<svg width="41" height="40" viewBox="0 0 41 40" fill="none" xmlns="http://www.w3.org/2000/svg">
<g clip-path="url(#clip0_30_12)">
<path d="M5.93887 25.5172C9.21882 25.5172 11.8777 22.8583 11.8777 19.5783C11.8777 16.2984 9.21882 13.6395 5.93887 13.6395C2.65892 13.6395 0 16.2984 0 19.5783C0 22.8583 2.65892 25.5172 5.93887 25.5172Z" fill="#F2F2F2"/>
<path d="M5.99193 19.8259C7.29987 19.8259 8.36017 18.7656 8.36017 17.4577C8.36017 16.1497 7.29987 15.0894 5.99193 15.0894C4.684 15.0894 3.6237 16.1497 3.6237 17.4577C3.6237 18.7656 4.684 19.8259 5.99193 19.8259Z" fill="#2F2E41"/>
<path d="M11.9099 5.9494C11.9078 7.124 11.5575 8.2716 10.9032 9.24708C10.2489 10.2226 9.32002 10.9821 8.23404 11.4297C7.14806 11.8773 5.95374 11.9928 4.80212 11.7616C3.6505 11.5304 2.5933 10.9629 1.7642 10.1308C0.935112 9.2988 0.371366 8.23959 0.144256 7.08716C-0.0828539 5.93472 0.036873 4.74083 0.488296 3.65644C0.939719 2.57205 1.70256 1.64588 2.68036 0.995038C3.65816 0.344199 4.80699 -0.00207315 5.98159 9.33808e-06C6.76207 -0.000632232 7.53498 0.152969 8.2559 0.451987C8.97682 0.751004 9.63155 1.18954 10.1824 1.7424C10.7333 2.29526 11.1696 2.95153 11.466 3.67351C11.7625 4.39549 11.9133 5.16893 11.9099 5.9494Z" fill="#F2F2F2"/>
<path d="M20.0317 25.5172C23.3116 25.5172 25.9705 22.8583 25.9705 19.5783C25.9705 16.2984 23.3116 13.6395 20.0317 13.6395C16.7517 13.6395 14.0928 16.2984 14.0928 19.5783C14.0928 22.8583 16.7517 25.5172 20.0317 25.5172Z" fill="#F2F2F2"/>
<path d="M20.0144 11.8778C23.2943 11.8778 25.9533 9.21883 25.9533 5.93888C25.9533 2.65893 23.2943 0 20.0144 0C16.7344 0 14.0755 2.65893 14.0755 5.93888C14.0755 9.21883 16.7344 11.8778 20.0144 11.8778Z" fill="#F2F2F2"/>
<path d="M34.4888 11.8778C37.7688 11.8778 40.4277 9.21883 40.4277 5.93888C40.4277 2.65893 37.7688 0 34.4888 0C31.2089 0 28.5499 2.65893 28.5499 5.93888C28.5499 9.21883 31.2089 11.8778 34.4888 11.8778Z" fill="#F2F2F2"/>
<path d="M34.7035 25.5172C37.9834 25.5172 40.6423 22.8583 40.6423 19.5783C40.6423 16.2984 37.9834 13.6395 34.7035 13.6395C31.4235 13.6395 28.7646 16.2984 28.7646 19.5783C28.7646 22.8583 31.4235 25.5172 34.7035 25.5172Z" fill="#F2F2F2"/>
<path d="M11.9099 34.0611C11.9099 35.2357 11.5616 36.3839 10.9091 37.3605C10.2565 38.3372 9.32896 39.0984 8.24377 39.5479C7.15859 39.9974 5.96447 40.115 4.81245 39.8858C3.66042 39.6567 2.60221 39.091 1.77164 38.2605C0.941077 37.4299 0.375454 36.3717 0.146301 35.2197C-0.0828519 34.0677 0.0347583 32.8735 0.484258 31.7884C0.933757 30.7032 1.69496 29.7756 2.6716 29.1231C3.64824 28.4705 4.79646 28.1222 5.97106 28.1222C6.75194 28.1187 7.52577 28.27 8.24788 28.5672C8.96998 28.8644 9.62606 29.3017 10.1782 29.8539C10.7304 30.4061 11.1677 31.0621 11.4649 31.7843C11.7622 32.5064 11.9134 33.2802 11.9099 34.0611Z" fill="#F2F2F2"/>
<path d="M20.396 40C23.676 40 26.3349 37.3411 26.3349 34.0611C26.3349 30.7812 23.676 28.1223 20.396 28.1223C17.1161 28.1223 14.4572 30.7812 14.4572 34.0611C14.4572 37.3411 17.1161 40 20.396 40Z" fill="#F2F2F2"/>
<path d="M3.21845 4.00694C3.46402 3.22432 4.02245 2.50652 4.79475 2.24195C5.5671 1.97738 6.69801 2.38041 7.27864 2.95908C8.34073 4.01758 8.59992 7.65391 7.87022 8.80303C7.72508 8.79535 7.22426 8.78967 7.07736 8.78416L6.86956 8.09156V8.77733C6.63553 8.7701 6.39967 8.76511 6.16198 8.76235C5.36504 8.75247 4.60298 8.434 4.03599 7.87388C3.469 7.31377 3.14126 6.55565 3.12165 5.75889C3.10264 4.99668 3.12167 4.31535 3.21845 4.00694Z" fill="#2F2E41"/>
<path d="M5.88298 6.60077C6.81774 6.60077 7.57551 5.843 7.57551 4.90824C7.57551 3.97347 6.81774 3.2157 5.88298 3.2157C4.94822 3.2157 4.19044 3.97347 4.19044 4.90824C4.19044 5.843 4.94822 6.60077 5.88298 6.60077Z" fill="#9E616A"/>
<path d="M4.42227 3.42179L6.37106 2.44598C6.76948 2.62552 7.11261 2.90838 7.36488 3.26522C7.61714 3.62206 7.76934 4.03989 7.80569 4.47538L7.85427 5.05722L7.03821 4.84948L6.9488 4.10549L6.81022 4.79145L6.43362 4.69562L6.4372 3.54058L6.06036 4.6948L4.71528 4.38577L4.42227 3.42179Z" fill="#2F2E41"/>
<path d="M18.4008 17.3499C18.8639 17.3499 19.2393 16.9745 19.2393 16.5114C19.2393 16.0483 18.8639 15.6729 18.4008 15.6729C17.9378 15.6729 17.5624 16.0483 17.5624 16.5114C17.5624 16.9745 17.9378 17.3499 18.4008 17.3499Z" fill="#2F2E41"/>
<path d="M19.7424 20.536C20.9155 20.536 21.8665 19.585 21.8665 18.4119C21.8665 17.2388 20.9155 16.2878 19.7424 16.2878C18.5692 16.2878 17.6182 17.2388 17.6182 18.4119C17.6182 19.585 18.5692 20.536 19.7424 20.536Z" fill="#2F2E41"/>
<path d="M19.9181 20.5355C20.8714 20.5355 21.6442 19.7627 21.6442 18.8094C21.6442 17.8561 20.8714 17.0833 19.9181 17.0833C18.9648 17.0833 18.192 17.8561 18.192 18.8094C18.192 19.7627 18.9648 20.5355 19.9181 20.5355Z" fill="#9E616A"/>
<path d="M21.0903 17.0499C20.7879 16.8655 20.4414 16.7658 20.0872 16.7611C19.733 16.7564 19.384 16.847 19.0768 17.0234C18.7696 17.1997 18.5154 17.4554 18.3408 17.7636C18.1662 18.0718 18.0776 18.4213 18.0843 18.7755C18.9638 18.9963 19.8878 19.1653 20.8258 18.8283L21.0473 18.2862L21.1779 18.8287C21.4635 18.9454 21.7499 19.0442 22.0363 18.8275C22.048 18.4744 21.9668 18.1243 21.8008 17.8124C21.6348 17.5004 21.3898 17.2375 21.0903 17.0499Z" fill="#2F2E41"/>
<path d="M17.6202 14.2353C17.0404 13.9694 16.3129 14.0942 15.8301 14.511C15.3473 14.9279 15.1178 15.6063 15.211 16.2373C15.3061 16.881 15.6974 17.4353 16.0581 17.9769C16.4189 18.5185 16.7713 19.1119 16.7709 19.7626C16.7706 20.2312 16.5844 20.6807 16.2533 21.0123C15.9221 21.3439 15.4729 21.5307 15.0043 21.5316C15.5543 21.7684 16.1284 22.0098 16.7266 21.9818C17.3248 21.9537 17.9518 21.5691 18.0494 20.9783C18.1197 20.5525 17.9109 20.1374 17.7367 19.7426C17.4529 19.0993 17.2478 18.4242 17.1258 17.7318C17.0676 17.4013 17.0297 17.0539 17.1375 16.7361C17.2233 16.5006 17.3825 16.2989 17.5916 16.1608C17.8007 16.0227 18.0487 15.9554 18.299 15.9689L18.4966 15.791C18.5845 15.1593 18.2 14.5011 17.6202 14.2353Z" fill="#2F2E41"/>
<path d="M32.0651 3.61589C31.9836 4.05382 31.8499 4.48041 31.667 4.88656C30.6193 7.1028 33.6028 6.38042 34.6689 6.38042C35.8346 6.38042 36.95 6.9934 36.7796 4.26971C36.7069 3.10627 35.8346 2.159 34.6689 2.159C33.6732 2.159 32.2733 2.60157 32.0651 3.61589Z" fill="#2F2E41"/>
<path d="M34.4943 6.3799C35.4416 6.3799 36.2095 5.61199 36.2095 4.66471C36.2095 3.71744 35.4416 2.94952 34.4943 2.94952C33.547 2.94952 32.7791 3.71744 32.7791 4.66471C32.7791 5.61199 33.547 6.3799 34.4943 6.3799Z" fill="#FFB6B6"/>
<path d="M33.3295 2.91631C33.63 2.73308 33.9743 2.63396 34.3263 2.62932C34.6782 2.62468 35.025 2.71469 35.3303 2.88993C35.6356 3.06517 35.8882 3.31921 36.0617 3.62549C36.2351 3.93176 36.3232 4.27903 36.3165 4.63097C35.4425 4.8504 34.5244 5.01832 33.5923 4.68345L33.3722 4.14476L33.2425 4.68385C32.9586 4.79987 32.6741 4.89803 32.3895 4.68273C32.3779 4.33178 32.4586 3.98393 32.6235 3.67395C32.7885 3.36397 33.0319 3.10272 33.3295 2.91631Z" fill="#2F2E41"/>
<path d="M5.9929 20.137C7.16134 20.137 8.10854 19.1898 8.10854 18.0214C8.10854 16.853 7.16134 15.9058 5.9929 15.9058C4.82446 15.9058 3.87725 16.853 3.87725 18.0214C3.87725 19.1898 4.82446 20.137 5.9929 20.137Z" fill="#FFB8B8"/>
<path d="M20.2653 34.6771C21.2603 34.6771 22.067 33.8705 22.067 32.8754C22.067 31.8804 21.2603 31.0737 20.2653 31.0737C19.2702 31.0737 18.4636 31.8804 18.4636 32.8754C18.4636 33.8705 19.2702 34.6771 20.2653 34.6771Z" fill="#9E616A"/>
<path d="M20.2564 6.54469C21.326 6.54469 22.193 5.67766 22.193 4.60813C22.193 3.5386 21.326 2.67157 20.2564 2.67157C19.1869 2.67157 18.3199 3.5386 18.3199 4.60813C18.3199 5.67766 19.1869 6.54469 20.2564 6.54469Z" fill="#FFB8B8"/>
<path d="M21.9615 3.3288C21.9615 3.3288 22.4657 2.36489 21.3564 2.27726C21.3564 2.27726 20.4108 1.41942 19.4469 2.12044C19.4469 2.12044 18.9211 2.12044 18.6336 2.7154C18.6336 2.7154 18.2201 2.55857 18.1292 2.97828C18.1292 2.97828 17.8266 3.85456 18.1292 4.64321C18.4318 5.43186 18.5323 5.51949 18.5323 5.51949C18.5323 5.51949 18.32 4.54082 19.5302 4.45319C20.7405 4.36556 21.8507 3.6074 21.9516 4.57131C22.0524 5.53521 22.1633 5.09978 22.1633 5.09978C22.1633 5.09978 23.1213 3.72312 21.9615 3.3288Z" fill="#2F2E41"/>
<path d="M34.5395 20.314C35.5865 20.314 36.4353 19.4653 36.4353 18.4183C36.4353 17.3713 35.5865 16.5225 34.5395 16.5225C33.4926 16.5225 32.6438 17.3713 32.6438 18.4183C32.6438 19.4653 33.4926 20.314 34.5395 20.314Z" fill="#FFB6B6"/>
<path d="M8.39993 32.6401V32.6401L8.37054 32.6931C8.6321 32.0485 8.39426 31.2542 7.92767 30.7681C7.4611 30.2821 6.81246 30.0599 6.17376 29.9717C5.69962 29.9063 5.20747 29.9082 4.75664 30.0818C4.10377 30.3333 3.60497 30.9156 3.18851 31.5212C2.99802 31.7982 2.81072 32.1141 2.8297 32.4603C2.84732 32.7816 3.03804 33.0543 3.19424 33.3269C3.35044 33.5995 3.48088 33.9377 3.36878 34.2353C3.30198 34.4126 3.16079 34.5403 3.04623 34.6853C2.93168 34.8304 2.83744 35.0264 2.89278 35.2084C2.91735 35.278 2.95956 35.3401 3.01528 35.3885C3.07101 35.4369 3.13835 35.4701 3.21072 35.4847C3.34921 35.517 3.49288 35.4959 3.63314 35.4747L7.27372 34.9247C7.5211 34.8873 7.75577 34.7906 7.95773 34.643C8.15969 34.4953 8.32294 34.301 8.43356 34.0766C8.54419 33.8522 8.5989 33.6043 8.59305 33.3542C8.58719 33.1041 8.52094 32.8591 8.39993 32.6401Z" fill="#2F2E41"/>
<path d="M7.44897 33.4045C7.60644 32.4341 6.94747 31.5198 5.97713 31.3624C5.00678 31.2049 4.09251 31.8639 3.93504 32.8342C3.77758 33.8046 4.43655 34.7188 5.40689 34.8763C6.37724 35.0338 7.29151 34.3748 7.44897 33.4045Z" fill="#FFB9B9"/>
<path d="M10.4304 37.9823C9.40156 39.153 7.95355 39.8722 6.39901 39.9845C4.84448 40.0969 3.30811 39.5934 2.12158 38.5828L2.63097 37.1614C2.74608 36.909 2.92774 36.6926 3.15647 36.5355C3.38519 36.3785 3.65236 36.2866 3.92931 36.2699L4.25337 36.25L5.02609 35.5835C5.02609 35.5835 7.10816 35.5092 7.07727 35.4736L8.33844 36.2322L8.33739 36.2269L8.83317 36.2573C9.11014 36.274 9.37734 36.3658 9.60607 36.5229C9.83481 36.68 10.0165 36.8964 10.1315 37.1489L10.4304 37.9823Z" fill="#FFC900"/>
<path d="M24.7751 37.9823C23.7462 39.153 22.2982 39.8722 20.7436 39.9845C19.1891 40.0969 17.6527 39.5934 16.4662 38.5828L16.9756 37.1614C17.0907 36.909 17.2723 36.6926 17.5011 36.5355C17.7298 36.3785 17.997 36.2866 18.2739 36.2699L18.598 36.25L19.3707 35.5835C19.3707 35.5835 21.4528 35.5092 21.4219 35.4736L22.683 36.2322L22.682 36.2269L23.1778 36.2573C23.4547 36.274 23.7219 36.3658 23.9507 36.5229C24.1794 36.68 24.3611 36.8964 24.4761 37.1489L24.7751 37.9823Z" fill="#FFC900"/>
<path d="M7.38033 31.4673C7.33439 31.2243 7.08648 31.1131 6.87407 31.0592C6.25798 30.902 5.61709 30.8668 4.98748 30.9556C4.52851 31.0211 4.05865 31.1654 3.72562 31.5236C3.45709 31.8253 3.30494 32.2128 3.2965 32.6166C3.28292 32.858 3.33687 33.0985 3.45228 33.3109C3.57213 33.5138 3.7764 33.6609 3.98727 33.6558L4.00862 33.73C4.90228 33.6055 5.7324 33.0495 6.25522 32.2252C6.1571 32.5756 5.96183 32.891 5.69198 33.1351C6.29532 32.8937 6.81978 32.4895 7.20692 31.9676C7.31264 31.8272 7.41528 31.6523 7.38033 31.4673Z" fill="#2F2E41"/>
<path d="M10.3781 23.4807C9.34921 24.6514 7.9012 25.3705 6.34666 25.4829C4.79213 25.5952 3.25576 25.0918 2.06923 24.0811L2.57861 22.6598C2.69373 22.4073 2.87539 22.191 3.10411 22.0339C3.33284 21.8768 3.60001 21.785 3.87696 21.7682L4.20102 21.7483L4.97374 21.0819C4.97374 21.0819 7.05581 21.0075 7.02492 20.9719L8.28609 21.7305L8.28504 21.7253L8.78082 21.7556C9.05779 21.7723 9.32499 21.8642 9.55373 22.0212C9.78247 22.1783 9.96411 22.3947 10.0792 22.6472L10.3781 23.4807Z" fill="#FFC900"/>
<path d="M24.5002 23.5519C23.4713 24.7226 22.0233 25.4418 20.4688 25.5541C18.9142 25.6665 17.3779 25.163 16.1913 24.1524L16.7007 22.731C16.8158 22.4785 16.9975 22.2622 17.2262 22.1051C17.455 21.9481 17.7221 21.8562 17.9991 21.8394L18.3231 21.8195L19.0959 21.1531C19.0959 21.1531 21.1779 21.0787 21.147 21.0432L22.4082 21.8017L22.4072 21.7965L22.9029 21.8269C23.1799 21.8436 23.4471 21.9354 23.6758 22.0925C23.9046 22.2495 24.0862 22.4659 24.2013 22.7184L24.5002 23.5519Z" fill="#FFC900"/>
<path d="M39.1589 23.5519C38.13 24.7226 36.682 25.4418 35.1275 25.5541C33.573 25.6665 32.0366 25.163 30.8501 24.1524L31.3594 22.731C31.4746 22.4785 31.6562 22.2622 31.8849 22.1051C32.1137 21.9481 32.3808 21.8562 32.6578 21.8394L32.9819 21.8195L33.7546 21.1531C33.7546 21.1531 35.8366 21.0787 35.8057 21.0432L37.0669 21.8017L37.0659 21.7965L37.5617 21.8269C37.8386 21.8436 38.1058 21.9354 38.3346 22.0925C38.5633 22.2495 38.7449 22.4659 38.86 22.7184L39.1589 23.5519Z" fill="#FFC900"/>
<path d="M10.3781 9.86896C9.34921 11.0397 7.9012 11.7588 6.34666 11.8712C4.79213 11.9835 3.25576 11.4801 2.06923 10.4694L2.57861 9.04808C2.69373 8.79562 2.87539 8.57926 3.10411 8.4222C3.33284 8.26513 3.60001 8.17329 3.87696 8.15651L4.20102 8.13662L4.97374 7.47017C4.97374 7.47017 7.05581 7.39583 7.02492 7.36023L8.28609 8.11882L8.28504 8.11358L8.78082 8.14395C9.05779 8.16065 9.32499 8.25247 9.55373 8.40954C9.78247 8.56661 9.96411 8.78301 10.0792 9.03551L10.3781 9.86896Z" fill="#FFC900"/>
<path d="M24.4479 9.88788C23.419 11.0586 21.971 11.7778 20.4164 11.8901C18.8619 12.0025 17.3255 11.499 16.139 10.4884L16.6484 9.067C16.7635 8.81454 16.9451 8.59818 17.1739 8.44112C17.4026 8.28405 17.6698 8.19221 17.9467 8.17543L18.2708 8.15554L19.0435 7.48909C19.0435 7.48909 21.1256 7.41475 21.0947 7.37915L22.3559 8.13774L22.3548 8.1325L22.8506 8.16287C23.1276 8.17957 23.3948 8.27139 23.6235 8.42846C23.8522 8.58553 24.0339 8.80193 24.1489 9.05443L24.4479 9.88788Z" fill="#FFC900"/>
<path d="M39.1066 9.88788C38.0777 11.0586 36.6297 11.7778 35.0751 11.8901C33.5206 12.0025 31.9842 11.499 30.7977 10.4884L31.3071 9.067C31.4222 8.81454 31.6039 8.59818 31.8326 8.44112C32.0613 8.28405 32.3285 8.19221 32.6054 8.17543L32.9295 8.15554L33.7022 7.48909C33.7022 7.48909 35.7843 7.41475 35.7534 7.37915L37.0146 8.13774L37.0135 8.1325L37.5093 8.16287C37.7863 8.17957 38.0535 8.27139 38.2822 8.42846C38.5109 8.58553 38.6926 8.80193 38.8076 9.05443L39.1066 9.88788Z" fill="#FFC900"/>
<path d="M36.5389 17.2426C36.3787 16.6692 36.0148 16.174 35.5154 15.8499C35.1173 15.5954 34.6207 15.4654 34.1698 15.6C33.7189 15.7347 33.3456 16.1772 33.3751 16.6553C33.2124 16.5999 33.0273 16.6736 32.9082 16.7994C32.7891 16.9253 32.725 17.0947 32.6791 17.2633C32.5344 17.7993 32.544 18.3653 32.7068 18.8961L32.6978 18.9723C32.9178 18.9359 33.0847 18.7472 33.1884 18.5461C33.2922 18.345 33.3519 18.1219 33.4643 17.9257C33.5768 17.7295 33.7635 17.5545 33.9863 17.5484L33.9667 17.889C34.1583 17.7902 34.35 17.6915 34.5417 17.5927C34.4961 17.7018 34.4505 17.8108 34.4049 17.9199C34.5723 17.8499 34.7397 17.78 34.9071 17.71C34.8883 17.8149 34.8696 17.9197 34.8509 18.0246C35.0169 17.6468 35.5303 17.4808 35.8795 17.692C36.0824 17.8147 36.2154 18.0334 36.2854 18.263C36.3554 18.4926 36.3692 18.7355 36.3826 18.9756C36.6413 18.4355 36.6967 17.8203 36.5389 17.2426Z" fill="#2F2E41"/>
<path d="M18.6287 33.7088C18.6251 33.6988 18.6218 33.6887 18.6182 33.6787C18.6112 33.6849 18.6045 33.6913 18.5969 33.6971L18.6287 33.7088Z" fill="#2F2E41"/>
<path d="M22.4236 32.2345C22.4143 32.0517 22.3664 31.8729 22.2831 31.7099C22.1997 31.547 22.0827 31.4035 21.9399 31.2891C21.8349 31.206 21.7134 31.1359 21.6439 31.0215C21.6042 30.9405 21.5706 30.8567 21.5433 30.7708C21.405 30.4416 21.0108 30.2666 20.6573 30.3164C20.3037 30.3663 19.9977 30.6041 19.7916 30.8957C19.69 30.8471 19.5766 30.8285 19.4649 30.8423C19.3531 30.8561 19.2476 30.9016 19.1609 30.9734C19.0742 31.0453 19.0099 31.1405 18.9757 31.2478C18.9414 31.355 18.9386 31.4699 18.9675 31.5787C18.7844 31.4312 18.4883 31.5492 18.374 31.7547C18.2597 31.9601 18.2778 32.2116 18.3118 32.4442C18.3733 32.8647 18.4759 33.2782 18.618 33.6787C18.7963 33.5217 18.7853 33.2358 18.7635 32.9941C18.7409 32.743 18.7544 32.4365 18.974 32.3126C19.1861 32.1929 19.4436 32.3243 19.6775 32.3923C19.8624 32.4446 20.0565 32.4563 20.2464 32.4264C20.4363 32.3966 20.6174 32.3259 20.7773 32.2193C20.8992 32.1368 21.0077 32.0336 21.139 31.9673C21.2704 31.901 21.4375 31.878 21.5598 31.9598C21.6715 32.0345 21.7169 32.1738 21.7549 32.3027C21.8449 32.6081 21.935 32.9135 22.0251 33.2189C22.1573 33.0923 22.2611 32.9391 22.3298 32.7694C22.3985 32.5997 22.4305 32.4174 22.4236 32.2345Z" fill="#2F2E41"/>
<path d="M8.22494 17.2794C8.23978 17.1215 8.24658 16.9629 8.24532 16.8042C8.25396 16.4905 8.19647 16.1784 8.07659 15.8883C7.92915 15.5671 7.66627 15.3132 7.34019 15.1769C7.01698 15.0465 6.65577 15.0468 6.33279 15.1778C6.04118 14.9935 5.71719 14.8475 5.37598 14.8294C5.03476 14.8113 4.674 14.9379 4.46373 15.2165C4.41677 15.2901 4.36344 15.3594 4.30435 15.4236C4.13533 15.5801 3.87846 15.5575 3.65379 15.5255C3.75456 15.6119 3.85535 15.6983 3.95617 15.7846C3.83419 15.8165 3.71221 15.8484 3.59021 15.8802C3.73256 15.9666 3.8749 16.0529 4.01723 16.1392C3.60399 16.3873 3.41617 16.9286 3.46579 17.4203C3.51272 17.8858 3.73746 18.3115 4.00612 18.6898C4.11328 18.4637 4.09019 18.193 4.08842 17.9383C4.08744 17.8557 4.09248 17.7731 4.10351 17.6912C5.01144 17.9089 5.96011 18.0486 6.92218 17.7029L7.11525 17.2304C7.14235 17.2332 7.16946 17.2358 7.19654 17.2387L7.30839 17.7033C7.56199 17.807 7.81611 17.8976 8.07034 17.8024C8.08271 17.8742 8.09015 17.9474 8.09588 18.0178C8.11769 17.9336 8.13662 17.8488 8.15369 17.7636C8.18729 17.7456 8.21947 17.725 8.24995 17.7021C8.25609 17.5607 8.24771 17.4191 8.22494 17.2794Z" fill="#2F2E41"/>
</g>
<defs>
<clipPath id="clip0_30_12">
<rect width="40.6423" height="40" fill="white"/>
</clipPath>
</defs>
</svg>
