<svg width="185" height="180" viewBox="0 0 185 180" fill="none" xmlns="http://www.w3.org/2000/svg">
<g clip-path="url(#clip0_174_811)">
<path d="M117.066 40.4814H67.3778C66.2455 40.4828 65.16 40.9332 64.3593 41.7339C63.5586 42.5345 63.1082 43.6201 63.1068 44.7524V155.186L62.5374 155.359L50.348 159.092C49.7703 159.268 49.1463 159.208 48.6131 158.925C48.0798 158.641 47.6808 158.158 47.5036 157.58L11.2458 39.146C11.0693 38.5683 11.1294 37.9442 11.413 37.4108C11.6965 36.8775 12.1801 36.4785 12.7577 36.3015L31.5415 30.55L85.9965 13.8818L104.78 8.13018C105.066 8.0422 105.366 8.01146 105.664 8.03971C105.962 8.06796 106.251 8.15465 106.515 8.29482C106.78 8.43499 107.014 8.62588 107.204 8.85658C107.394 9.08727 107.537 9.35324 107.625 9.63926L116.893 39.9119L117.066 40.4814Z" fill="#F2F2F2"/>
<path d="M127.909 39.912L116.739 3.42642C116.553 2.8185 116.249 2.25316 115.845 1.7627C115.44 1.27224 114.943 0.866283 114.382 0.568014C113.821 0.269746 113.206 0.0850131 112.573 0.0243798C111.94 -0.0362535 111.302 0.0284007 110.694 0.214641L84.2851 8.29818L29.8331 24.9692L3.42424 33.0556C2.19743 33.4323 1.1702 34.2804 0.568028 35.4137C-0.0341402 36.547 -0.162049 37.873 0.212382 39.1005L38.3892 163.793C38.6934 164.784 39.3072 165.651 40.1404 166.268C40.9737 166.884 41.9826 167.217 43.0191 167.218C43.4988 167.219 43.9758 167.147 44.4341 167.005L62.5374 161.464L63.1068 161.287V160.692L62.5374 160.866L44.2662 166.461C43.1833 166.791 42.0136 166.678 41.0139 166.147C40.0141 165.616 39.2658 164.71 38.9331 163.628L0.759184 38.9325C0.59435 38.3963 0.536901 37.8329 0.590125 37.2745C0.643348 36.7161 0.806195 36.1736 1.06935 35.6783C1.3325 35.1829 1.6908 34.7443 2.1237 34.3876C2.55661 34.0309 3.05563 33.763 3.59218 33.5995L30.0011 25.5131L84.4532 8.84487L110.862 0.758485C111.269 0.634284 111.692 0.570957 112.118 0.57056C113.031 0.572611 113.919 0.867011 114.653 1.41064C115.387 1.95427 115.927 2.71856 116.195 3.59157L127.314 39.912L127.49 40.4814H128.083L127.909 39.912Z" fill="#3F3D56"/>
<path d="M34.9312 36.3947C34.3824 36.3943 33.8482 36.2181 33.4069 35.8918C32.9656 35.5655 32.6405 35.1065 32.4792 34.5819L28.8118 22.6027C28.7132 22.2809 28.679 21.9429 28.7112 21.6079C28.7433 21.2729 28.8411 20.9475 28.9989 20.6503C29.1568 20.3531 29.3717 20.0899 29.6313 19.8758C29.8909 19.6616 30.1902 19.5007 30.512 19.4023L80.6074 4.06554C81.2573 3.86724 81.9593 3.93487 82.5593 4.2536C83.1594 4.57233 83.6085 5.11611 83.808 5.76559L87.4755 17.7449C87.6737 18.3948 87.606 19.0967 87.2872 19.6967C86.9685 20.2967 86.4248 20.7458 85.7754 20.9455L35.6798 36.2822C35.4372 36.3567 35.1849 36.3946 34.9312 36.3947Z" fill="#FFC900"/>
<path d="M54.1428 12.8C57.2878 12.8 59.8374 10.2505 59.8374 7.1054C59.8374 3.96034 57.2878 1.41077 54.1428 1.41077C50.9977 1.41077 48.4481 3.96034 48.4481 7.1054C48.4481 10.2505 50.9977 12.8 54.1428 12.8Z" fill="#FFC900"/>
<path d="M54.1428 10.7114C56.1343 10.7114 57.7488 9.09696 57.7488 7.10541C57.7488 5.11386 56.1343 3.49939 54.1428 3.49939C52.1512 3.49939 50.5367 5.11386 50.5367 7.10541C50.5367 9.09696 52.1512 10.7114 54.1428 10.7114Z" fill="white"/>
<path d="M171.59 165.763H75.3504C74.7087 165.763 74.0936 165.507 73.6399 165.054C73.1861 164.6 72.9309 163.985 72.9302 163.343V48.0268C72.9309 47.3851 73.1861 46.7699 73.6398 46.3162C74.0936 45.8625 74.7087 45.6073 75.3504 45.6066H171.59C172.231 45.6073 172.847 45.8625 173.3 46.3163C173.754 46.77 174.009 47.3851 174.01 48.0268V163.343C174.009 163.985 173.754 164.6 173.3 165.054C172.847 165.507 172.231 165.763 171.59 165.763Z" fill="#E6E6E6"/>
<path d="M127.314 39.912H67.3779C66.0947 39.9138 64.8646 40.4244 63.9572 41.3317C63.0499 42.2391 62.5393 43.4692 62.5375 44.7524V160.866L63.1069 160.692V44.7524C63.1083 43.6201 63.5587 42.5346 64.3594 41.7339C65.1601 40.9332 66.2456 40.4828 67.3779 40.4815H127.491L127.314 39.912ZM179.562 39.912H67.3779C66.0947 39.9138 64.8646 40.4244 63.9572 41.3317C63.0499 42.2391 62.5393 43.4692 62.5375 44.7524V175.16C62.5393 176.443 63.0499 177.673 63.9572 178.58C64.8646 179.488 66.0947 179.998 67.3779 180H179.562C180.846 179.998 182.076 179.488 182.983 178.58C183.89 177.673 184.401 176.443 184.403 175.16V44.7524C184.401 43.4692 183.89 42.2391 182.983 41.3317C182.076 40.4244 180.846 39.9138 179.562 39.912ZM183.833 175.16C183.832 176.292 183.381 177.377 182.581 178.178C181.78 178.979 180.695 179.429 179.562 179.431H67.3779C66.2456 179.429 65.1601 178.979 64.3594 178.178C63.5587 177.377 63.1083 176.292 63.1069 175.16V44.7524C63.1083 43.6201 63.5587 42.5346 64.3594 41.7339C65.1601 40.9332 66.2456 40.4828 67.3779 40.4815H179.562C180.695 40.4828 181.78 40.9332 182.581 41.7339C183.381 42.5346 183.832 43.6201 183.833 44.7524V175.16Z" fill="#3F3D56"/>
<path d="M149.665 52.4401H97.2747C96.5953 52.4393 95.944 52.1691 95.4636 51.6887C94.9831 51.2083 94.7129 50.5569 94.7122 49.8775V37.3493C94.7129 36.6699 94.9832 36.0186 95.4636 35.5382C95.944 35.0577 96.5953 34.7875 97.2747 34.7867H149.665C150.345 34.7875 150.996 35.0577 151.477 35.5382C151.957 36.0186 152.227 36.6699 152.228 37.3493V49.8775C152.227 50.5569 151.957 51.2083 151.477 51.6887C150.996 52.1691 150.345 52.4393 149.665 52.4401Z" fill="#FFC900"/>
<path d="M123.47 35.641C126.615 35.641 129.165 33.0914 129.165 29.9463C129.165 26.8013 126.615 24.2517 123.47 24.2517C120.325 24.2517 117.775 26.8013 117.775 29.9463C117.775 33.0914 120.325 35.641 123.47 35.641Z" fill="#FFC900"/>
<path d="M123.47 33.4149C125.386 33.4149 126.939 31.862 126.939 29.9463C126.939 28.0307 125.386 26.4778 123.47 26.4778C121.554 26.4778 120.001 28.0307 120.001 29.9463C120.001 31.862 121.554 33.4149 123.47 33.4149Z" fill="white"/>
<line x1="81" y1="67" x2="167" y2="67" stroke="#FFC900" stroke-width="2"/>
<line x1="21.2505" y1="47.3991" x2="103.558" y2="22.4706" stroke="#FFC900" stroke-width="2"/>
<line x1="24.2505" y1="57.3991" x2="57.7479" y2="47.2538" stroke="#FFC900" stroke-width="2"/>
<line x1="28.2505" y1="68.3991" x2="56.0055" y2="59.993" stroke="#FFC900" stroke-width="2"/>
<line x1="81" y1="83" x2="167" y2="83" stroke="#FFC900" stroke-width="2"/>
<line x1="81" y1="97" x2="167" y2="97" stroke="#FFC900" stroke-width="2"/>
<line x1="81" y1="111" x2="167" y2="111" stroke="#FFC900" stroke-width="2"/>
<line x1="81" y1="126" x2="123" y2="126" stroke="#FFC900" stroke-width="2"/>
<line x1="102" y1="150" x2="123" y2="150" stroke="#FFC900" stroke-width="2"/>
<line x1="32.1609" y1="80.0865" x2="52.2593" y2="73.9993" stroke="#FFC900" stroke-width="2"/>
<path d="M178.342 110.598L177.69 113.214L167.287 110.621L167.94 108.005L178.342 110.598ZM175.595 105.54L172.841 116.589L169.995 115.879L172.75 104.831L175.595 105.54Z" fill="#1572A1"/>
</g>
<defs>
<clipPath id="clip0_174_811">
<rect width="184.403" height="180" fill="white"/>
</clipPath>
</defs>
</svg>
