<svg width="61" height="42" viewBox="0 0 61 42" fill="none" xmlns="http://www.w3.org/2000/svg">
<g clip-path="url(#clip0_55_261)">
<path d="M50.4156 6.45813L45.7609 6.50348C45.5421 5.42639 44.807 2.60027 45.469 1.82942C45.4992 1.53929 45.6401 1.27198 45.8624 1.08313C46.0847 0.894279 46.3713 0.798444 46.6625 0.815573C47.3839 -0.313736 48.5856 -0.144178 49.3978 0.561125C50.2152 0.843167 50.5234 1.34423 50.4156 2.0242C51.0209 2.55407 51.1326 3.19873 50.8609 3.93255L50.4156 6.45813Z" fill="#2F2E41"/>
<path d="M49.9675 9.32553L46.6093 8.86055L45.9376 7.87891C46.8628 7.2652 47.1902 6.40801 46.7643 5.24399L49.0892 5.19232C48.9803 6.2289 49.323 7.03149 50.2775 7.51725L49.9675 9.32553Z" fill="#FFB9B9"/>
<path d="M45.8153 39.6159L45.6869 41.3713C45.6811 41.4508 45.6923 41.5306 45.7199 41.6053C45.7474 41.6801 45.7906 41.7481 45.8466 41.8048C45.9026 41.8615 45.9701 41.9055 46.0445 41.934C46.1189 41.9625 46.1985 41.9747 46.278 41.9699L47.1797 41.9153C47.2215 41.9128 47.2622 41.901 47.299 41.881C47.3357 41.861 47.3676 41.8331 47.3923 41.7993C47.4171 41.7655 47.4341 41.7268 47.4421 41.6857C47.4502 41.6446 47.4491 41.6023 47.439 41.5617L46.9385 39.5597L45.8153 39.6159Z" fill="#E6E6E6"/>
<path d="M48.7345 39.5597L48.2339 41.5617C48.2238 41.6023 48.2227 41.6446 48.2308 41.6857C48.2388 41.7268 48.2558 41.7656 48.2806 41.7993C48.3053 41.8331 48.3372 41.861 48.374 41.881C48.4107 41.9011 48.4514 41.9128 48.4932 41.9153L49.3949 41.9699C49.4744 41.9747 49.5541 41.9625 49.6285 41.934C49.7029 41.9055 49.7703 41.8615 49.8263 41.8048C49.8823 41.7481 49.9255 41.6801 49.9531 41.6053C49.9806 41.5306 49.9919 41.4508 49.986 41.3713L49.8576 39.6159L48.7345 39.5597Z" fill="#E6E6E6"/>
<path d="M49.9159 39.8596L48.699 39.7375L47.4876 26.7883L47.0298 39.6957L45.8343 39.6529L43.8194 21.7768H51.5174L49.9159 39.8596Z" fill="#1572A1"/>
<path d="M48.0559 6.07064C49.3399 6.07064 50.3808 5.02973 50.3808 3.74571C50.3808 2.46168 49.3399 1.42078 48.0559 1.42078C46.7719 1.42078 45.731 2.46168 45.731 3.74571C45.731 5.02973 46.7719 6.07064 48.0559 6.07064Z" fill="#FFB9B9"/>
<path d="M52.6541 22.1901L43.251 22.2935C44.6465 16.9811 45.4812 12.0464 44.026 8.6539L46.3509 7.51727C47.472 8.68653 48.7204 8.56599 50.0708 7.41394L52.2924 7.98226C51.9119 12.431 52.0825 17.1956 52.6541 22.1901Z" fill="#1572A1"/>
<path d="M40.6678 16.7136L46.5059 19.0386L47.8112 19.4225C47.8696 19.4396 47.9308 19.4448 47.9913 19.4377C48.0517 19.4306 48.1101 19.4114 48.1629 19.3812C48.2157 19.3509 48.2619 19.3103 48.2986 19.2618C48.3354 19.2133 48.3619 19.1578 48.3767 19.0988C48.4025 18.9953 48.3909 18.8859 48.3439 18.7902C48.2968 18.6944 48.2174 18.6184 48.1196 18.5756L46.7643 18.1603L42.6827 15.7837L43.5352 13.5362L41.7528 12.5804L40.6678 16.7136Z" fill="#FFB9B9"/>
<path d="M40.7195 12.4771C41.8302 12.9104 42.7137 13.65 43.406 14.647L45.576 11.4954L44.026 8.65387L40.7195 12.4771Z" fill="#1572A1"/>
<path d="M50.6762 3.36891C49.7326 3.12578 48.8048 3.09239 47.903 3.40078C47.3285 3.67902 46.6386 3.65339 45.8714 3.42414V1.10455L50.0135 1.21501L50.6762 3.36891Z" fill="#2F2E41"/>
<path d="M46.4866 14.0048C46.304 14.005 46.129 14.0776 45.9999 14.2067C45.8708 14.3358 45.7982 14.5108 45.798 14.6934L46.0698 20.383C46.07 20.5656 46.1426 20.7406 46.2717 20.8697C46.4008 20.9988 46.5758 21.0714 46.7584 21.0716H49.8659C50.0484 21.0714 50.2234 20.9988 50.3525 20.8697C50.4816 20.7406 50.5542 20.5656 50.5544 20.383L50.8262 14.6934C50.826 14.5108 50.7534 14.3358 50.6243 14.2067C50.4952 14.0776 50.3202 14.005 50.1377 14.0048H46.4866Z" fill="#3F3D56"/>
<path d="M55.3034 16.2838L50.2147 18.3101L49.8308 18.463C49.8185 18.4677 49.8063 18.4718 49.7934 18.4759L48.5071 18.8544C48.3427 18.9026 48.1151 18.6811 47.9819 18.5282C47.9159 18.4545 47.8786 18.3597 47.8766 18.2608C47.8746 18.1619 47.9081 18.0656 47.971 17.9894C47.9888 17.9689 48.0083 17.95 48.0294 17.933C48.079 17.8944 48.1374 17.8687 48.1993 17.8582L49.4842 17.6055C49.5303 17.5964 49.5746 17.5799 49.6154 17.5565L50.2147 17.2073L53.3261 15.3957C53.4126 15.3454 53.4785 15.2661 53.512 15.1717C53.5454 15.0774 53.5444 14.9743 53.5089 14.8807L52.915 13.3144C52.8786 13.2186 52.8783 13.1128 52.9142 13.0168C52.9501 12.9207 53.0197 12.8411 53.11 12.7926L54.0939 12.2653C54.1501 12.2351 54.2125 12.2181 54.2762 12.2155C54.34 12.2129 54.4035 12.2248 54.462 12.2503C54.5205 12.2758 54.5724 12.3143 54.6139 12.3628C54.6554 12.4113 54.6853 12.4686 54.7014 12.5303L55.5555 15.7837C55.5818 15.8835 55.5706 15.9894 55.5242 16.0815C55.4778 16.1737 55.3992 16.2456 55.3034 16.2838Z" fill="#FFB9B9"/>
<path d="M55.599 11.9088C54.4882 12.3421 53.6048 13.0817 52.9124 14.0787L50.7425 10.9272L52.2924 7.98224L55.599 11.9088Z" fill="#1572A1"/>
<path d="M49.6031 5.81499C48.5861 6.23806 47.5196 6.22088 46.4095 5.81499C46.7325 5.26365 46.2497 4.83184 46.0018 4.27528L50.1467 4.1521C49.8298 4.6356 49.3621 5.20685 49.6031 5.81499Z" fill="white"/>
<path d="M50.1028 4.24415L50.0547 4.19611L50.1227 4.12816L50.5286 3.65442L50.5803 3.69859L50.1726 4.17423L50.1028 4.24415Z" fill="white"/>
<path d="M45.7178 3.95614L45.6743 4.00836L46.082 4.34811L46.1255 4.29588L45.7178 3.95614Z" fill="white"/>
<path d="M50.22 4.64358L49.5063 5.76465L49.5637 5.80114L50.2773 4.68008L50.22 4.64358Z" fill="white"/>
<path d="M45.7927 4.6435L45.7353 4.67999L46.4488 5.80116L46.5061 5.76467L45.7927 4.6435Z" fill="white"/>
<path d="M50.3506 17.1111V18.3422L49.9221 18.5128C49.9084 18.5181 49.8948 18.5227 49.8804 18.5272L48.4445 18.9497C48.261 19.0035 48.0069 18.7563 47.8582 18.5856C47.7846 18.5034 47.7429 18.3975 47.7407 18.2871C47.7385 18.1768 47.7759 18.0693 47.8461 17.9842C47.8659 17.9613 47.8878 17.9402 47.9113 17.9212C47.9667 17.8781 48.0318 17.8495 48.101 17.8378L49.5353 17.5556C49.5867 17.5455 49.6362 17.5271 49.6816 17.501L50.3506 17.1111Z" fill="white"/>
<path d="M50.9716 12.7203H50.7261C50.7261 9.24734 50.011 6.82709 49.3142 6.82709L49.2528 6.58154C49.8777 6.58154 50.2761 7.58883 50.5003 8.43386C50.8043 9.57945 50.9716 11.1017 50.9716 12.7203Z" fill="#3F3D56"/>
<path d="M45.324 11.8609H45.0785C45.0785 8.68022 45.7985 6.70435 46.8587 6.70435L46.7973 6.9499C46.064 6.9499 45.324 8.46842 45.324 11.8609Z" fill="#3F3D56"/>
<path d="M50.8489 13.3955C51.1879 13.3955 51.4627 13.1207 51.4627 12.7817C51.4627 12.4426 51.1879 12.1678 50.8489 12.1678C50.5098 12.1678 50.235 12.4426 50.235 12.7817C50.235 13.1207 50.5098 13.3955 50.8489 13.3955Z" fill="#3F3D56"/>
<path d="M44.3418 13.3342H44.0963C44.0963 12.4541 44.5919 11.7381 45.2012 11.7381V11.9836C44.7273 11.9836 44.3418 12.5895 44.3418 13.3342Z" fill="#3F3D56"/>
<path d="M46.3062 13.3342H46.0606C46.0606 12.5895 45.6751 11.9836 45.2012 11.9836V11.7381C45.8105 11.7381 46.3062 12.4541 46.3062 13.3342Z" fill="#3F3D56"/>
<path d="M46.1834 13.6411C46.319 13.6411 46.429 13.5311 46.429 13.3955C46.429 13.2599 46.319 13.15 46.1834 13.15C46.0478 13.15 45.9379 13.2599 45.9379 13.3955C45.9379 13.5311 46.0478 13.6411 46.1834 13.6411Z" fill="#3F3D56"/>
<path d="M44.219 13.6411C44.3546 13.6411 44.4646 13.5311 44.4646 13.3955C44.4646 13.2599 44.3546 13.15 44.219 13.15C44.0834 13.15 43.9735 13.2599 43.9735 13.3955C43.9735 13.5311 44.0834 13.6411 44.219 13.6411Z" fill="#3F3D56"/>
<path d="M14.6275 5.1436L10.315 5.87389C10.2085 5.89206 10.099 5.87008 10.0078 5.81218C9.91651 5.75428 9.84998 5.66459 9.82104 5.56046C9.50947 4.43593 8.85807 2.96895 9.49052 2.23252C9.52274 1.92271 9.6732 1.63727 9.91059 1.4356C10.148 1.23394 10.454 1.1316 10.7649 1.14989C11.5353 -0.0560293 12.8185 0.125033 13.6858 0.878185C14.5586 1.17936 14.8877 1.71442 14.7726 2.44051C15.1497 2.77057 15.3474 3.14234 15.3891 3.55039C15.4088 3.77747 15.38 4.00614 15.3043 4.22117C15.2287 4.43619 15.1081 4.63261 14.9506 4.79732L14.6275 5.1436Z" fill="#2F2E41"/>
<path d="M13.9571 8.53871L10.6139 8.34205C10.9415 7.59006 11.0724 6.86593 10.9417 6.17883H13.4326C13.427 6.70638 13.6895 7.61895 13.9571 8.53871Z" fill="#9F616A"/>
<path d="M9.93283 39.4303L9.79571 41.3049C9.78951 41.3897 9.80151 41.4749 9.83093 41.5548C9.86035 41.6346 9.9065 41.7072 9.96628 41.7677C10.0261 41.8283 10.0981 41.8753 10.1776 41.9057C10.257 41.9361 10.342 41.9492 10.427 41.9441L11.3898 41.8858C11.4344 41.883 11.4779 41.8705 11.5171 41.8491C11.5564 41.8277 11.5904 41.7979 11.6168 41.7619C11.6433 41.7259 11.6614 41.6844 11.67 41.6406C11.6787 41.5967 11.6775 41.5515 11.6667 41.5081L11.1322 39.3704L9.93283 39.4303Z" fill="#E6E6E6"/>
<path d="M13.05 39.3704L12.5156 41.5081C12.5047 41.5515 12.5036 41.5967 12.5122 41.6406C12.5208 41.6844 12.5389 41.7259 12.5654 41.7619C12.5918 41.7979 12.6258 41.8277 12.6651 41.8491C12.7043 41.8705 12.7478 41.883 12.7924 41.8858L13.7553 41.9441C13.8402 41.9492 13.9252 41.9361 14.0047 41.9057C14.0841 41.8753 14.1562 41.8283 14.2159 41.7677C14.2757 41.7072 14.3219 41.6346 14.3513 41.5548C14.3807 41.4749 14.3927 41.3897 14.3865 41.3049L14.2494 39.4303L13.05 39.3704Z" fill="#E6E6E6"/>
<path d="M14.3115 39.6906L13.0122 39.5602L11.7186 25.7325L11.2297 39.5156L9.95311 39.4699L7.80149 20.381H16.0218L14.3115 39.6906Z" fill="#1572A1"/>
<path d="M12.2529 6.97459C13.624 6.97459 14.7355 5.86306 14.7355 4.49193C14.7355 3.1208 13.624 2.00928 12.2529 2.00928C10.8817 2.00928 9.77021 3.1208 9.77021 4.49193C9.77021 5.86306 10.8817 6.97459 12.2529 6.97459Z" fill="#9F616A"/>
<path d="M15.051 3.30597C14.0433 3.13048 13.0526 3.10639 12.0896 3.32897C11.4761 3.5298 10.7394 3.51129 9.92013 3.34583V1.67163L14.3433 1.75135L15.051 3.30597Z" fill="#2F2E41"/>
<path d="M13.9051 6.48396C12.819 6.93572 11.6802 6.91738 10.4948 6.48396C10.8397 5.89521 10.3241 5.43411 10.0595 4.83979L14.4856 4.70825C14.1471 5.22456 13.6477 5.83456 13.9051 6.48396Z" fill="white"/>
<path d="M9.7547 4.50075L9.71118 4.55298L10.1465 4.91575L10.19 4.86352L9.7547 4.50075Z" fill="white"/>
<path d="M14.5658 5.23427L13.8037 6.4314L13.8611 6.46789L14.6231 5.27076L14.5658 5.23427Z" fill="white"/>
<path d="M9.83406 5.2342L9.77673 5.27069L10.5386 6.46793L10.5959 6.43144L9.83406 5.2342Z" fill="white"/>
<path d="M7.53297 15.815L5.63196 14.635L7.25319 9.88679C7.434 9.39683 7.78034 8.98545 8.23232 8.72378L8.77845 8.40759L8.82594 13.1977L7.53297 15.815Z" fill="#1572A1"/>
<path d="M15.7499 18.1211L15.4687 15.7121C15.4537 14.4406 15.67 13.2112 16.1858 12.0785L16.448 8.5387L13.5637 7.35876C13.5549 7.41754 13.5474 7.47628 13.5389 7.53505L12.1871 8.21094L10.8688 7.91132L10.8761 7.48987L8.25404 8.66981C9.12116 12.7011 8.64821 16.8875 7.15708 21.8323L10.6114 22.7768L10.6401 21.1181L13.7187 20.8982C13.7504 21.4364 13.7759 21.9649 13.7907 22.4818C15.5278 23.1214 15.5875 23.1108 17.1702 22.1951C16.5399 20.8698 16.0409 19.4908 15.7499 18.1211Z" fill="#1572A1"/>
<path d="M20.1845 15.225L18.4146 14.635L15.5835 11.3393L16.448 8.53876L20.3811 14.0451L20.1845 15.225Z" fill="#1572A1"/>
<path d="M14.6376 17.7765C14.6666 17.9036 14.7448 18.014 14.855 18.0835C14.9653 18.1531 15.0986 18.1761 15.2257 18.1474L16.7282 17.8072L16.511 16.8482L15.0086 17.1884C14.8814 17.2172 14.7709 17.2953 14.7013 17.4056C14.6318 17.5159 14.6089 17.6493 14.6376 17.7765V17.7765Z" fill="#E6E6E6"/>
<path d="M15.9892 16.6671L16.8413 18.2404C18.2747 17.8406 19.5169 16.5803 20.7089 15.0939L20.3811 14.045L18.349 14.5695L15.9892 16.6671Z" fill="#1572A1"/>
<path d="M4.8781 11.7322L6.51405 12.0244L10.2534 17.3412L8.26687 16.8738L4.8781 11.7322Z" fill="#E6E6E6"/>
<path d="M4.58793 11.6671C4.56301 11.6675 4.53863 11.6746 4.51737 11.6876C4.49611 11.7006 4.47873 11.7191 4.46706 11.7411C4.4554 11.7632 4.44986 11.7879 4.45104 11.8128C4.45222 11.8377 4.46007 11.8619 4.47376 11.8827L7.96904 17.1859C7.98854 17.2155 8.01867 17.2366 8.05322 17.2447L9.67947 17.6273C9.70689 17.6338 9.73562 17.6317 9.76186 17.6215C9.78809 17.6112 9.81059 17.5932 9.82637 17.5699C9.84215 17.5466 9.85046 17.519 9.8502 17.4908C9.84993 17.4627 9.84111 17.4352 9.82491 17.4122L5.98731 11.9556C5.9769 11.9407 5.96367 11.9281 5.94836 11.9183C5.93306 11.9086 5.91598 11.9019 5.89811 11.8988L4.61415 11.6695C4.6055 11.6679 4.59673 11.6671 4.58793 11.6671Z" fill="#3F3D56"/>
<path d="M6.7683 15.4589L6.86545 16.4374L8.39837 16.2852C8.52812 16.2723 8.64745 16.2084 8.73009 16.1076C8.81274 16.0067 8.85193 15.8772 8.83905 15.7474C8.82618 15.6177 8.76228 15.4983 8.66142 15.4157C8.56057 15.333 8.43101 15.2938 8.30126 15.3067L6.7683 15.4589Z" fill="#E6E6E6"/>
<path d="M5.43534 15.3456C5.43757 15.6792 5.57157 15.9984 5.80814 16.2337C6.04471 16.469 6.36469 16.6012 6.69833 16.6016H6.95039L7.1339 15.0724L5.61452 14.5254L5.43534 15.3456Z" fill="#1572A1"/>
<path d="M14.3645 4.87742L14.3164 4.82938L14.389 4.75681L14.8226 4.25079L14.8742 4.29496L14.4388 4.80288L14.3645 4.87742Z" fill="white"/>
<path d="M60.3392 41.8641H0V42H60.3392V41.8641Z" fill="#3F3D56"/>
<path d="M23.0349 41.7962H37.3043V24.4883C37.3043 23.5718 36.4016 22.8262 35.292 22.8262H25.0472C23.9376 22.8262 23.0349 23.5718 23.0349 24.4883V41.7962Z" fill="#FFC900"/>
<path d="M24.1221 41.0804H36.2171V26.41C36.2171 25.6331 35.4519 25.0012 34.5114 25.0012H25.8277C24.8872 25.0012 24.1221 25.6331 24.1221 26.41V41.0804Z" fill="white"/>
<path d="M22.9271 21.4792C22.5744 21.4792 22.2874 21.7163 22.2874 22.0076V23.5326C22.2874 23.8239 22.5744 24.061 22.9271 24.061H37.4121C37.7648 24.061 38.0517 23.8239 38.0517 23.5326V22.0076C38.0517 21.7163 37.7648 21.4792 37.4121 21.4792H22.9271Z" fill="#F90716"/>
<path d="M25.9011 39.1993C25.7355 39.1998 25.5768 39.2658 25.4597 39.3828C25.3426 39.4999 25.2766 39.6586 25.2761 39.8242C25.2766 39.9898 25.3426 40.1484 25.4597 40.2655C25.5768 40.3826 25.7355 40.4486 25.9011 40.4491H27.0707V39.1993H25.9011Z" fill="#3F3D56"/>
<path d="M28.1443 39.1993H27.0067V40.4491H28.1443C28.3099 40.4486 28.4686 40.3826 28.5857 40.2655C28.7027 40.1484 28.7687 39.9898 28.7692 39.8242C28.7687 39.6586 28.7027 39.4999 28.5857 39.3828C28.4686 39.2658 28.3099 39.1998 28.1443 39.1993Z" fill="#1572A1"/>
<path opacity="0.2" d="M28.5521 39.3524C28.6506 39.4654 28.705 39.6102 28.7051 39.7601C28.7046 39.9257 28.6386 40.0844 28.5216 40.2015C28.4045 40.3186 28.2458 40.3846 28.0802 40.385H27.0067V40.4491H28.1443C28.3099 40.4486 28.4686 40.3827 28.5857 40.2656C28.7027 40.1485 28.7687 39.9898 28.7692 39.8242C28.7691 39.7346 28.7496 39.646 28.7121 39.5646C28.6747 39.4832 28.6201 39.4108 28.5521 39.3524Z" fill="black"/>
<path d="M31.1794 29.7865C31.0655 29.6664 30.9086 29.5962 30.7431 29.5913C30.5776 29.5864 30.4169 29.6472 30.296 29.7604C30.1759 29.8744 30.1057 30.0312 30.1008 30.1967C30.0959 30.3623 30.1567 30.523 30.27 30.6438L31.0723 31.4949L31.9817 30.6377L31.1794 29.7865Z" fill="#3F3D56"/>
<path d="M32.7182 31.4189L31.9378 30.5911L31.0283 31.4483L31.8087 32.2762C31.9226 32.3963 32.0795 32.4665 32.245 32.4714C32.4105 32.4763 32.5712 32.4155 32.6921 32.3023C32.8122 32.1883 32.8824 32.0315 32.8873 31.866C32.8922 31.7004 32.8314 31.5397 32.7182 31.4189Z" fill="#1572A1"/>
<path opacity="0.2" d="M32.8865 31.8206C32.8719 31.9698 32.8038 32.1087 32.6947 32.2116C32.5739 32.3248 32.4132 32.3857 32.2477 32.3808C32.0822 32.3759 31.9253 32.3057 31.8114 32.1855L31.075 31.4044L31.0283 31.4483L31.8087 32.2761C31.9226 32.3963 32.0795 32.4665 32.245 32.4714C32.4105 32.4763 32.5712 32.4155 32.6921 32.3022C32.7572 32.2406 32.8083 32.1657 32.8418 32.0826C32.8754 31.9995 32.8906 31.9101 32.8865 31.8206Z" fill="black"/>
<path d="M27.8499 31.757C27.736 31.6369 27.5791 31.5667 27.4136 31.5618C27.2481 31.5569 27.0873 31.6177 26.9665 31.731C26.8464 31.8449 26.7762 32.0017 26.7713 32.1673C26.7664 32.3328 26.8272 32.4935 26.9404 32.6143L27.7428 33.4655L28.6522 32.6082L27.8499 31.757Z" fill="#3F3D56"/>
<path d="M29.3886 33.3894L28.6083 32.5616L27.6988 33.4189L28.4792 34.2467C28.5931 34.3669 28.7499 34.4371 28.9155 34.4419C29.081 34.4468 29.2417 34.386 29.3625 34.2728C29.4827 34.1589 29.5529 34.002 29.5578 33.8365C29.5627 33.671 29.5018 33.5102 29.3886 33.3894Z" fill="#1572A1"/>
<path opacity="0.2" d="M29.557 33.7911C29.5423 33.9403 29.4742 34.0792 29.3652 34.1821C29.2444 34.2954 29.0837 34.3562 28.9182 34.3513C28.7526 34.3464 28.5958 34.2762 28.4818 34.1561L27.7454 33.3749L27.6988 33.4188L28.4792 34.2467C28.5931 34.3668 28.75 34.437 28.9155 34.4419C29.081 34.4468 29.2417 34.386 29.3625 34.2727C29.4277 34.2112 29.4788 34.1362 29.5123 34.0531C29.5459 33.97 29.5611 33.8806 29.557 33.7911Z" fill="black"/>
<path d="M31.1794 33.5917C31.0655 33.4715 30.9086 33.4013 30.7431 33.3965C30.5776 33.3916 30.4169 33.4524 30.296 33.5656C30.1759 33.6795 30.1057 33.8364 30.1008 34.0019C30.0959 34.1674 30.1567 34.3282 30.27 34.449L31.0723 35.3002L31.9817 34.4429L31.1794 33.5917Z" fill="#3F3D56"/>
<path d="M32.7182 35.2241L31.9378 34.3962L31.0283 35.2535L31.8087 36.0814C31.9226 36.2015 32.0795 36.2717 32.245 36.2766C32.4105 36.2815 32.5712 36.2207 32.6921 36.1075C32.8122 35.9935 32.8824 35.8367 32.8873 35.6712C32.8922 35.5056 32.8314 35.3449 32.7182 35.2241Z" fill="#1572A1"/>
<path opacity="0.2" d="M32.8865 35.6257C32.8719 35.775 32.8038 35.9139 32.6947 36.0168C32.5739 36.13 32.4132 36.1908 32.2477 36.186C32.0822 36.1811 31.9253 36.1109 31.8114 35.9907L31.075 35.2095L31.0283 35.2535L31.8087 36.0813C31.9226 36.2015 32.0795 36.2717 32.245 36.2766C32.4105 36.2814 32.5712 36.2206 32.6921 36.1074C32.7572 36.0458 32.8083 35.9709 32.8418 35.8878C32.8754 35.8047 32.8906 35.7153 32.8865 35.6257Z" fill="black"/>
<path d="M33.2106 37.4965C33.3294 37.3812 33.3977 37.2235 33.4005 37.0579C33.4034 36.8923 33.3406 36.7324 33.226 36.6129C33.1106 36.4942 32.9529 36.4259 32.7873 36.423C32.6217 36.4201 32.4618 36.4829 32.3423 36.5976L31.501 37.4102L32.3693 38.3092L33.2106 37.4965Z" fill="#3F3D56"/>
<path d="M31.5971 39.055L32.4154 38.2646L31.5471 37.3657L30.7288 38.156C30.61 38.2714 30.5417 38.4291 30.5388 38.5947C30.536 38.7602 30.5987 38.9202 30.7134 39.0396C30.8288 39.1584 30.9865 39.2267 31.1521 39.2295C31.3176 39.2324 31.4776 39.1697 31.5971 39.055Z" fill="#1572A1"/>
<path opacity="0.2" d="M31.1974 39.2282C31.048 39.2154 30.9083 39.1489 30.8041 39.0412C30.6894 38.9218 30.6266 38.7618 30.6295 38.5962C30.6324 38.4307 30.7006 38.273 30.8194 38.1576L31.5916 37.4118L31.5471 37.3657L30.7288 38.156C30.61 38.2714 30.5417 38.4291 30.5388 38.5947C30.536 38.7602 30.5987 38.9202 30.7134 39.0396C30.7758 39.104 30.8513 39.1542 30.9349 39.1867C31.0184 39.2192 31.1079 39.2334 31.1974 39.2282Z" fill="black"/>
<path d="M28.7259 35.526C28.8447 35.4107 28.913 35.253 28.9158 35.0874C28.9187 34.9218 28.856 34.7618 28.7413 34.6424C28.6259 34.5236 28.4682 34.4554 28.3026 34.4525C28.1371 34.4496 27.9771 34.5124 27.8577 34.6271L27.0163 35.4397L27.8846 36.3387L28.7259 35.526Z" fill="#3F3D56"/>
<path d="M27.1124 37.0845L27.9307 36.2941L27.0624 35.3951L26.2441 36.1855C26.1254 36.3009 26.0571 36.4586 26.0542 36.6241C26.0513 36.7897 26.1141 36.9497 26.2288 37.0691C26.3442 37.1879 26.5019 37.2562 26.6674 37.259C26.833 37.2619 26.993 37.1992 27.1124 37.0845Z" fill="#1572A1"/>
<path opacity="0.2" d="M26.7128 37.2577C26.5634 37.2448 26.4237 37.1784 26.3194 37.0707C26.2047 36.9513 26.142 36.7913 26.1448 36.6257C26.1477 36.4602 26.216 36.3025 26.3348 36.1871L27.1069 35.4412L27.0624 35.3951L26.2441 36.1855C26.1254 36.3009 26.0571 36.4586 26.0542 36.6241C26.0513 36.7897 26.1141 36.9497 26.2288 37.0691C26.2912 37.1335 26.3667 37.1837 26.4502 37.2162C26.5337 37.2487 26.6233 37.2629 26.7128 37.2577Z" fill="black"/>
<path d="M35.1132 33.1478C35.232 33.0324 35.3002 32.8747 35.3031 32.7092C35.306 32.5436 35.2432 32.3836 35.1285 32.2642C35.0131 32.1454 34.8554 32.0771 34.6899 32.0743C34.5243 32.0714 34.3644 32.1341 34.2449 32.2488L33.4036 33.0615L34.2719 33.9604L35.1132 33.1478Z" fill="#3F3D56"/>
<path d="M33.4996 34.7062L34.3179 33.9159L33.4497 33.0169L32.6314 33.8073C32.5126 33.9227 32.4443 34.0804 32.4415 34.2459C32.4386 34.4115 32.5013 34.5715 32.616 34.6909C32.7314 34.8097 32.8891 34.8779 33.0547 34.8808C33.2202 34.8837 33.3802 34.8209 33.4996 34.7062Z" fill="#1572A1"/>
<path opacity="0.2" d="M33.1 34.8794C32.9506 34.8666 32.8109 34.8002 32.7067 34.6924C32.592 34.573 32.5292 34.413 32.5321 34.2475C32.535 34.0819 32.6032 33.9242 32.722 33.8088L33.4942 33.063L33.4497 33.0169L32.6314 33.8073C32.5126 33.9226 32.4443 34.0803 32.4415 34.2459C32.4386 34.4115 32.5013 34.5714 32.616 34.6909C32.6784 34.7552 32.7539 34.8054 32.8375 34.8379C32.921 34.8705 33.0105 34.8846 33.1 34.8794Z" fill="black"/>
<path d="M33.6935 38.0764C33.5796 37.9562 33.4227 37.886 33.2572 37.8811C33.0917 37.8762 32.931 37.9371 32.8101 38.0503C32.69 38.1642 32.6198 38.3211 32.6149 38.4866C32.61 38.6521 32.6708 38.8128 32.7841 38.9337L33.5864 39.7848L34.4959 38.9275L33.6935 38.0764Z" fill="#3F3D56"/>
<path d="M35.2323 39.7087L34.4519 38.8809L33.5425 39.7381L34.3228 40.566C34.4368 40.6861 34.5936 40.7563 34.7591 40.7612C34.9246 40.7661 35.0854 40.7053 35.2062 40.5921C35.3263 40.4781 35.3965 40.3213 35.4014 40.1558C35.4063 39.9902 35.3455 39.8295 35.2323 39.7087Z" fill="#1572A1"/>
<path opacity="0.2" d="M35.4006 40.1104C35.386 40.2596 35.3179 40.3985 35.2089 40.5015C35.088 40.6147 34.9273 40.6755 34.7618 40.6706C34.5963 40.6658 34.4394 40.5956 34.3255 40.4754L33.5891 39.6942L33.5425 39.7382L34.3228 40.566C34.4367 40.6862 34.5936 40.7564 34.7591 40.7612C34.9246 40.7661 35.0854 40.7053 35.2062 40.5921C35.2713 40.5305 35.3224 40.4556 35.3559 40.3725C35.3895 40.2893 35.4047 40.2 35.4006 40.1104Z" fill="black"/>
<path d="M29.2768 38.0084C29.1629 37.8883 29.006 37.8181 28.8405 37.8132C28.675 37.8083 28.5143 37.8691 28.3935 37.9824C28.2733 38.0963 28.2031 38.2531 28.1982 38.4187C28.1933 38.5842 28.2541 38.7449 28.3674 38.8657L29.1697 39.7169L30.0792 38.8596L29.2768 38.0084Z" fill="#3F3D56"/>
<path d="M30.8155 39.6408L30.0352 38.8129L29.1257 39.6702L29.9061 40.498C30.02 40.6182 30.1769 40.6884 30.3424 40.6933C30.5079 40.6982 30.6686 40.6374 30.7895 40.5241C30.9096 40.4102 30.9798 40.2533 30.9847 40.0878C30.9896 39.9223 30.9288 39.7616 30.8155 39.6408Z" fill="#1572A1"/>
<path opacity="0.2" d="M30.9839 40.0425C30.9693 40.1917 30.9012 40.3306 30.7922 40.4335C30.6713 40.5468 30.5106 40.6076 30.3451 40.6027C30.1796 40.5978 30.0227 40.5276 29.9088 40.4075L29.1724 39.6263L29.1257 39.6702L29.9061 40.4981C30.02 40.6182 30.1769 40.6884 30.3424 40.6933C30.5079 40.6982 30.6687 40.6374 30.7895 40.5241C30.8546 40.4626 30.9057 40.3876 30.9392 40.3045C30.9728 40.2214 30.988 40.132 30.9839 40.0425Z" fill="black"/>
<path d="M30.52 35.7665C30.5201 35.9743 30.4483 36.1757 30.317 36.3366C30.1856 36.4976 30.0026 36.6082 29.7991 36.6497C29.6801 36.6737 29.5575 36.6737 29.4386 36.6497C29.235 36.6081 29.0521 36.4975 28.9207 36.3366C28.7894 36.1756 28.7176 35.9743 28.7176 35.7665C28.7176 35.5588 28.7894 35.3574 28.9207 35.1965C29.0521 35.0355 29.235 34.9249 29.4386 34.8833C29.5575 34.8593 29.6801 34.8593 29.7991 34.8833C30.0026 34.9249 30.1856 35.0355 30.317 35.1964C30.4483 35.3574 30.5201 35.5588 30.52 35.7665Z" fill="#1572A1"/>
<path opacity="0.2" d="M29.7991 34.8833V36.6497C29.6801 36.6737 29.5576 36.6737 29.4386 36.6497V34.8833C29.5576 34.8593 29.6801 34.8593 29.7991 34.8833Z" fill="black"/>
<path d="M30.9278 32.1652C30.9278 32.373 30.8561 32.5744 30.7247 32.7353C30.5933 32.8962 30.4103 33.0069 30.2068 33.0484C30.0878 33.0724 29.9653 33.0724 29.8463 33.0484C29.6427 33.0068 29.4598 32.8962 29.3284 32.7353C29.1971 32.5743 29.1253 32.3729 29.1253 32.1652C29.1253 31.9575 29.1971 31.7561 29.3284 31.5951C29.4598 31.4342 29.6427 31.3236 29.8463 31.282C29.9653 31.258 30.0878 31.258 30.2068 31.282C30.4103 31.3236 30.5933 31.4342 30.7247 31.5951C30.8561 31.7561 30.9278 31.9574 30.9278 32.1652Z" fill="#1572A1"/>
<path opacity="0.2" d="M30.2068 31.282V33.0484C30.0878 33.0724 29.9653 33.0724 29.8463 33.0484V31.282C29.9653 31.258 30.0878 31.258 30.2068 31.282Z" fill="black"/>
<path d="M30.9278 37.3294C30.9278 37.5372 30.8561 37.7385 30.7247 37.8995C30.5933 38.0604 30.4103 38.171 30.2068 38.2126C30.0878 38.2366 29.9653 38.2366 29.8463 38.2126C29.6427 38.171 29.4598 38.0604 29.3284 37.8994C29.1971 37.7385 29.1253 37.5371 29.1253 37.3294C29.1253 37.1216 29.1971 36.9203 29.3284 36.7593C29.4598 36.5984 29.6427 36.4878 29.8463 36.4462C29.9653 36.4222 30.0878 36.4222 30.2068 36.4462C30.4103 36.4877 30.5933 36.5983 30.7247 36.7593C30.8561 36.9202 30.9278 37.1216 30.9278 37.3294Z" fill="#1572A1"/>
<path opacity="0.2" d="M30.2068 36.4462V38.2126C30.0878 38.2366 29.9653 38.2366 29.8463 38.2126V36.4462C29.9653 36.4222 30.0878 36.4222 30.2068 36.4462Z" fill="black"/>
<path d="M33.1701 39.8435C33.1701 40.0512 33.0984 40.2526 32.967 40.4136C32.8356 40.5745 32.6527 40.6851 32.4491 40.7267C32.3301 40.7507 32.2076 40.7507 32.0886 40.7267C31.8851 40.6851 31.7021 40.5745 31.5708 40.4135C31.4394 40.2526 31.3676 40.0512 31.3676 39.8435C31.3676 39.6357 31.4394 39.4344 31.5708 39.2734C31.7021 39.1125 31.8851 39.0019 32.0886 38.9603C32.2076 38.9363 32.3301 38.9363 32.4491 38.9603C32.6527 39.0018 32.8356 39.1124 32.967 39.2734C33.0984 39.4343 33.1701 39.6357 33.1701 39.8435Z" fill="#1572A1"/>
<path opacity="0.2" d="M32.4491 38.9603V40.7267C32.3302 40.7507 32.2076 40.7507 32.0886 40.7267V38.9603C32.2076 38.9363 32.3302 38.9363 32.4491 38.9603Z" fill="black"/>
<path d="M35.151 35.2178C35.3006 35.362 35.3958 35.5534 35.4205 35.7596C35.4452 35.9659 35.3979 36.1744 35.2865 36.3498C35.2213 36.4521 35.1362 36.5404 35.0363 36.6094C34.8651 36.727 34.6586 36.782 34.4515 36.7649C34.2445 36.7478 34.0497 36.6597 33.9001 36.5156C33.7505 36.3714 33.6553 36.18 33.6306 35.9737C33.6059 35.7674 33.6532 35.559 33.7645 35.3835C33.8298 35.2812 33.9149 35.193 34.0147 35.124C34.1859 35.0063 34.3925 34.9513 34.5996 34.9684C34.8066 34.9855 35.0014 35.0736 35.151 35.2178Z" fill="#1572A1"/>
<path opacity="0.2" d="M34.0147 35.124L35.2865 36.3498C35.2212 36.4521 35.1362 36.5404 35.0363 36.6094L33.7645 35.3835C33.8298 35.2812 33.9148 35.1929 34.0147 35.124Z" fill="black"/>
<path d="M35.4228 37.1883C35.5724 37.3325 35.6676 37.5239 35.6923 37.7302C35.717 37.9365 35.6697 38.145 35.5583 38.3204C35.4931 38.4227 35.408 38.511 35.3081 38.5799C35.1369 38.6976 34.9304 38.7526 34.7233 38.7355C34.5163 38.7184 34.3215 38.6303 34.1719 38.4861C34.0223 38.3419 33.9271 38.1505 33.9024 37.9442C33.8777 37.738 33.925 37.5295 34.0363 37.3541C34.1016 37.2517 34.1867 37.1635 34.2865 37.0945C34.4577 36.9768 34.6643 36.9218 34.8714 36.9389C35.0784 36.956 35.2732 37.0441 35.4228 37.1883Z" fill="#1572A1"/>
<path opacity="0.2" d="M34.2865 37.0945L35.5583 38.3203C35.493 38.4226 35.408 38.5109 35.3081 38.5799L34.0363 37.354C34.1016 37.2517 34.1866 37.1635 34.2865 37.0945Z" fill="black"/>
<path d="M27.3367 37.664C27.4864 37.8081 27.5816 37.9995 27.6063 38.2058C27.631 38.4121 27.5836 38.6206 27.4723 38.796C27.407 38.8983 27.322 38.9865 27.2221 39.0555C27.0509 39.1732 26.8443 39.2281 26.6373 39.2111C26.4302 39.194 26.2355 39.1059 26.0859 38.9617C25.9363 38.8175 25.8411 38.6261 25.8164 38.4199C25.7917 38.2136 25.839 38.0051 25.9503 37.8297C26.0156 37.7274 26.1006 37.6391 26.2005 37.5702C26.3717 37.4524 26.5783 37.3975 26.7853 37.4146C26.9924 37.4317 27.1872 37.5198 27.3367 37.664Z" fill="#1572A1"/>
<path opacity="0.2" d="M26.2005 37.5701L27.4723 38.796C27.4071 38.8983 27.322 38.9865 27.2221 39.0555L25.9503 37.8297C26.0156 37.7274 26.1006 37.6391 26.2005 37.5701Z" fill="black"/>
<path opacity="0.2" d="M24.4279 21.4792H24.0881V23.9934H24.4279V21.4792Z" fill="black"/>
<path opacity="0.2" d="M26.3984 21.4792H26.0586V23.9934H26.3984V21.4792Z" fill="black"/>
<path opacity="0.2" d="M28.3689 21.4792H28.0292V23.9934H28.3689V21.4792Z" fill="black"/>
<path opacity="0.2" d="M30.3395 21.4792H29.9997V23.9934H30.3395V21.4792Z" fill="black"/>
<path opacity="0.2" d="M32.31 21.4792H31.9703V23.9934H32.31V21.4792Z" fill="black"/>
<path opacity="0.2" d="M34.2806 21.4792H33.9408V23.9934H34.2806V21.4792Z" fill="black"/>
<path opacity="0.2" d="M36.2511 21.4792H35.9113V23.9934H36.2511V21.4792Z" fill="black"/>
</g>
<defs>
<clipPath id="clip0_55_261">
<rect width="60.3392" height="42" fill="white"/>
</clipPath>
</defs>
</svg>
