<svg width="62" height="34" viewBox="0 0 62 34" fill="none" xmlns="http://www.w3.org/2000/svg">
<g clip-path="url(#clip0_55_362)">
<path d="M52.4784 22.5721H36.0692C34.9514 22.5721 33.8794 23.0161 33.089 23.8065C32.2986 24.5969 31.8546 25.6689 31.8546 26.7867V33.8107H33.1768V29.9349C33.1768 28.8171 33.6208 27.7451 34.4112 26.9547C35.2016 26.1643 36.2736 25.7203 37.3914 25.7203H51.1562C52.274 25.7203 53.346 26.1643 54.1364 26.9547C54.9268 27.7451 55.3708 28.8171 55.3708 29.9349V33.8107H56.693V26.7867C56.693 25.6689 56.249 24.5969 55.4586 23.8065C54.6682 23.0161 53.5962 22.5721 52.4784 22.5721Z" fill="#CECECE"/>
<path d="M47.8626 23.7054C50.2359 23.7054 52.1598 23.4306 52.1598 23.0915C52.1598 22.7525 50.2359 22.4777 47.8626 22.4777C45.4894 22.4777 43.5655 22.7525 43.5655 23.0915C43.5655 23.4306 45.4894 23.7054 47.8626 23.7054Z" fill="#E6E6E6"/>
<path d="M51.1111 23.2455H45.3875C43.9746 21.8914 42.9643 20.5864 43.7732 19.5031C43.7732 19.1917 43.8969 18.8931 44.117 18.6729C44.3372 18.4527 44.6358 18.329 44.9472 18.329H51.5514C51.8628 18.329 52.1614 18.4527 52.3816 18.6729C52.6018 18.8931 52.7255 19.1917 52.7255 19.5031C53.0334 20.7374 52.4833 21.9851 51.1111 23.2455Z" fill="#FFC900"/>
<path d="M50.0832 16.851C50.0289 16.8535 49.9751 16.8392 49.9292 16.8101C49.8833 16.781 49.8474 16.7386 49.8264 16.6884C49.8054 16.6382 49.8004 16.5828 49.812 16.5297C49.8235 16.4766 49.8511 16.4283 49.891 16.3914L49.9092 16.3192C49.9068 16.3134 49.9044 16.3076 49.902 16.3019C49.8473 16.1726 49.7556 16.0625 49.6385 15.9852C49.5214 15.9079 49.384 15.8669 49.2437 15.8674C49.1034 15.868 48.9663 15.9099 48.8498 15.9881C48.7332 16.0663 48.6424 16.1771 48.5886 16.3067C48.3738 16.8241 48.1003 17.3423 48.033 17.8894C48.0033 18.1312 48.0158 18.3763 48.07 18.6138C47.5654 17.5132 47.3034 16.317 47.3018 15.1063C47.3016 14.8025 47.3185 14.4989 47.3523 14.197C47.3802 13.9495 47.419 13.7037 47.4685 13.4597C47.7389 12.1359 48.3195 10.895 49.1626 9.83907C49.5707 9.61642 49.9007 9.27404 50.1082 8.85806C50.1833 8.70853 50.2364 8.54891 50.2659 8.38416C50.2198 8.39019 50.0923 7.68915 50.127 7.64613C50.0629 7.54879 49.9481 7.5004 49.878 7.40541C49.5296 6.933 49.0495 7.01549 48.7989 7.65746C48.2635 7.92766 48.2584 8.37577 48.5869 8.80675C48.7958 9.08094 48.8246 9.45195 49.0079 9.74549C48.9891 9.76964 48.9694 9.79304 48.9506 9.81719C48.6057 10.2606 48.3051 10.7368 48.0532 11.2389C48.1145 10.6764 48.0413 10.1074 47.8398 9.57873C47.6355 9.08599 47.2527 8.67102 46.9156 8.24505C46.5106 7.7334 45.6803 7.9567 45.6089 8.60529C45.6082 8.61157 45.6075 8.61785 45.6069 8.62413C45.657 8.65237 45.706 8.68236 45.7539 8.71408C45.8142 8.75433 45.8609 8.81185 45.8879 8.87909C45.9149 8.94633 45.921 9.02017 45.9053 9.09091C45.8896 9.16166 45.8529 9.22602 45.8 9.27556C45.7472 9.32511 45.6806 9.35752 45.6089 9.36856L45.6016 9.36969C45.6194 9.55017 45.651 9.72903 45.6959 9.90472C45.2634 11.5773 46.1972 12.1865 47.5304 12.2139C47.5598 12.229 47.5885 12.244 47.6179 12.2584C47.3648 12.9758 47.206 13.7231 47.1456 14.4815C47.1113 14.9289 47.1134 15.3784 47.1516 15.8255L47.1493 15.8096C47.0527 15.3125 46.7875 14.8639 46.3985 14.5396C45.8207 14.0649 45.0043 13.8902 44.381 13.5086C44.3147 13.4661 44.2377 13.4434 44.1589 13.4432C44.0802 13.443 44.0031 13.4653 43.9366 13.5075C43.8702 13.5498 43.8172 13.6101 43.7839 13.6814C43.7506 13.7528 43.7384 13.8322 43.7487 13.9102C43.7496 13.9157 43.7504 13.9213 43.7513 13.9269C43.8442 13.9647 43.9347 14.0083 44.0222 14.0574C44.0723 14.0857 44.1213 14.1156 44.1692 14.1474C44.2295 14.1876 44.2762 14.2451 44.3032 14.3124C44.3302 14.3796 44.3363 14.4534 44.3206 14.5242C44.3049 14.5949 44.2682 14.6593 44.2154 14.7088C44.1625 14.7584 44.0959 14.7908 44.0242 14.8018L44.0169 14.803C44.0116 14.8037 44.0071 14.8045 44.0018 14.8052C44.1606 15.1843 44.3834 15.5333 44.6606 15.8368C44.931 17.2969 46.0925 17.4354 47.335 17.0102H47.3357C47.472 17.6026 47.6695 18.1792 47.9251 18.7308H50.0304C50.038 18.7074 50.0448 18.6832 50.0516 18.6598C49.8567 18.6721 49.661 18.6604 49.469 18.6251C49.6252 18.4335 49.7814 18.2403 49.9376 18.0486C49.9411 18.045 49.9444 18.0412 49.9474 18.0373C50.0267 17.9392 50.1067 17.8418 50.1859 17.7437L50.1859 17.7436C50.1902 17.4429 50.1557 17.1429 50.0833 16.851L50.0832 16.851Z" fill="#F90716"/>
<path d="M33.4003 23.2305L34.1554 22.5118L31.7427 19.2573L30.6283 20.318L33.4003 23.2305Z" fill="#FFB6B6"/>
<path d="M32.6617 22.9478L33.7995 21.7277L34.2914 22.2445L36.1922 21.945C36.2861 21.9302 36.3822 21.9458 36.4666 21.9895C36.551 22.0332 36.6192 22.1028 36.6613 22.188C36.7033 22.2732 36.7171 22.3697 36.7004 22.4632C36.6838 22.5568 36.6377 22.6426 36.5689 22.7081L35.1327 24.0751L34.3985 23.7994L34.7885 24.4027L34.247 24.9181L32.6617 22.9478Z" fill="#2F2E41"/>
<path d="M33.2713 20.7777L32.2324 22.1944C31.3531 21.7259 28.5468 19.8672 26.3973 18.8935C25.0081 18.2626 23.9362 17.7828 23.9362 17.7828C23.9362 17.7828 23.7917 17.9878 23.5612 18.3098C22.7179 19.4904 20.7261 22.2377 20.5362 22.1357C20.2954 22.0063 20.0225 22.2377 20.0565 22.7118C20.081 23.0575 19.4964 23.3096 19.1772 23.422C19.0573 23.4636 18.9751 23.4862 18.9751 23.4862C18.9203 23.5212 18.8655 23.5561 18.8117 23.5892C17.0636 24.6573 15.0151 24.356 13.6079 23.2114C13.1039 22.8048 12.6928 22.2949 12.4023 21.7161C12.1119 21.1373 11.9488 20.503 11.924 19.8558L11.7984 16.9281L16.0483 16.7392L16.8048 18.1757L18.1468 17.0821L21.0849 14.688L22.1578 13.8134C22.1578 13.8134 22.1295 13.8096 22.1635 13.6812C22.2979 13.6084 22.4385 13.5477 22.5837 13.4999C22.6083 13.4914 22.6329 13.4838 22.6574 13.4772C24.041 13.0692 25.0903 14.1307 25.0903 14.1307C25.0903 14.1307 31.508 18.4705 31.7602 18.5111C32.0123 18.5527 32.1574 18.9577 32.1876 19.054C32.2169 19.1447 32.6187 19.6567 32.799 19.6444C33.3619 19.6076 33.2713 20.7777 33.2713 20.7777Z" fill="#2F2E41"/>
<path d="M20.5306 12.0098C20.4122 12.0491 20.3039 12.1141 20.2135 12.2C20.123 12.286 20.0527 12.3909 20.0074 12.5072L16.1104 12.4858L14.0373 9.61835L12.4964 10.3006L15.0044 14.8447L20.4945 13.6199L20.4912 13.6084C20.6184 13.6579 20.7556 13.6759 20.8912 13.6612C21.0268 13.6464 21.1569 13.5992 21.2704 13.5235C21.3839 13.4479 21.4776 13.346 21.5434 13.2266C21.6093 13.1071 21.6454 12.9735 21.6488 12.8372C21.6522 12.7008 21.6226 12.5656 21.5628 12.443C21.5029 12.3205 21.4143 12.2141 21.3047 12.133C21.195 12.0518 21.0674 11.9983 20.9327 11.9768C20.798 11.9554 20.6601 11.9667 20.5306 12.0098L20.5306 12.0098Z" fill="#FFB6B6"/>
<path d="M13.3092 7.66446L13.2283 7.67631C12.8056 7.73778 12.4238 7.96229 12.1646 8.30178C11.9054 8.64128 11.7894 9.06877 11.8414 9.49272C11.904 9.99413 11.9405 10.4429 11.8857 10.5321C11.7508 10.7518 11.6992 10.9359 11.9638 10.9634C12.2285 10.9909 11.6769 10.8289 12.5201 10.9699C13.3633 11.1109 13.2142 10.6628 13.9011 10.6332C14.588 10.6037 15.0515 10.7809 15.2679 10.3938C15.4842 10.0067 16.0876 9.99086 15.7562 9.61053C15.4248 9.2302 15.3351 9.55869 15.0666 8.75221C15.064 8.74414 15.0613 8.73612 15.0586 8.72813C14.9374 8.37425 14.696 8.07404 14.3764 7.87971C14.0568 7.68537 13.6792 7.60921 13.3092 7.66446Z" fill="#1572A1"/>
<path d="M11.034 6.66329C10.9338 6.76097 10.8271 6.85184 10.7148 6.93528C10.6817 6.96078 10.6487 6.98439 10.6156 7.00612C9.65702 7.65494 8.7107 7.37728 7.97311 6.70012C6.83319 5.65181 6.19287 3.64679 6.78408 2.6287C8.10816 1.01374 9.82702 1.36034 10.8716 2.45776C11.8859 3.52213 12.2655 5.29387 11.034 6.66329Z" fill="#F90716"/>
<path d="M15.1955 8.008C15.1143 7.95606 15.0331 7.90601 14.9499 7.85784C14.9131 7.80779 14.8753 7.75868 14.8366 7.71051L15.1955 8.008Z" fill="#F2F2F2"/>
<path d="M12.8798 3.72407C14.1375 4.68084 15.5382 5.4423 15.8022 6.49522C15.8022 6.49522 15.644 4.84085 16.3818 5.15443C17.6213 5.68131 17.2019 2.81593 16.8543 2.34738C16.275 1.56646 14.3214 1.12274 14.3214 1.12274L12.9356 1.8835L12.8798 3.72407Z" fill="#2F2E41"/>
<path d="M18.6717 33.6067C18.6974 33.6816 18.7462 33.7465 18.8111 33.7919C18.876 33.8374 18.9536 33.8611 19.0328 33.8597L20.5802 33.8198C20.66 33.8183 20.7371 33.791 20.8001 33.7419C20.8631 33.6929 20.9085 33.6248 20.9295 33.5478L21.1485 31.2063C21.2262 31.2415 21.3108 31.2589 21.3961 31.2572C21.4702 31.2554 21.5432 31.239 21.611 31.209C21.6788 31.179 21.7401 31.1359 21.7912 31.0821C21.8423 31.0284 21.8824 30.9652 21.909 30.896C21.9357 30.8268 21.9485 30.753 21.9466 30.6789C21.9448 30.6047 21.9283 30.5317 21.8982 30.4639C21.8681 30.3962 21.8249 30.335 21.7712 30.2839C21.7174 30.2328 21.6541 30.1929 21.5849 30.1663C21.5156 30.1397 21.4419 30.127 21.3677 30.1289C21.3336 30.1288 21.2997 30.1323 21.2663 30.1395C21.2301 30.1002 21.186 30.069 21.137 30.0479C21.0879 30.0267 21.035 30.0161 20.9816 30.0166L18.6014 30.0781C18.5817 30.0788 18.562 30.0813 18.5427 30.0854C18.4905 30.0951 18.441 30.1159 18.3975 30.1464C18.354 30.1768 18.3176 30.2163 18.2906 30.262C18.2636 30.3077 18.2468 30.3587 18.2412 30.4115C18.2355 30.4643 18.2413 30.5177 18.2581 30.5681L18.6717 33.6067ZM21.1934 31.0473L21.3492 30.4894C21.367 30.4249 21.3674 30.3569 21.3504 30.2923C21.358 30.2922 21.3647 30.2887 21.3722 30.2886C21.479 30.2865 21.5824 30.3267 21.6596 30.4006C21.7368 30.4745 21.7815 30.5759 21.784 30.6827C21.7865 30.7896 21.7466 30.893 21.6729 30.9704C21.5993 31.0478 21.4979 31.0929 21.3911 31.0957C21.322 31.0979 21.2537 31.0811 21.1934 31.0473Z" fill="#CCCCCC"/>
<path d="M18.5427 30.0854C18.5934 30.3753 19.1635 30.5791 19.8491 30.5437C20.4795 30.5147 20.9949 30.2933 21.0894 30.031C21.0544 30.0207 21.0181 30.0158 20.9816 30.0166L18.6014 30.0781C18.5817 30.0788 18.562 30.0813 18.5427 30.0854Z" fill="white"/>
<path d="M15.0699 4.88513C16.2695 4.88513 17.242 3.91261 17.242 2.71295C17.242 1.51329 16.2695 0.540771 15.0699 0.540771C13.8702 0.540771 12.8977 1.51329 12.8977 2.71295C12.8977 3.91261 13.8702 4.88513 15.0699 4.88513Z" fill="#FFB6B6"/>
<path d="M14.2876 1.88182L14.204 2.24895L15.6652 2.5816C15.6665 2.50735 15.6831 2.43417 15.714 2.36665C15.7449 2.29913 15.7895 2.23873 15.8448 2.18924C15.8133 2.33319 15.8169 2.48262 15.8553 2.62489C16.6434 3.06708 16.5981 3.22374 17.235 3.11098C17.3212 3.13062 17.4118 3.11519 17.4867 3.06806C17.5616 3.02094 17.6147 2.94599 17.6344 2.85971C17.8906 1.73409 17.9748 0.583634 16.8547 0.304237C16.5825 0.236162 16.2993 0.22313 16.022 0.265904C15.7446 0.308678 15.4786 0.406395 15.2395 0.55333C15.0004 0.700265 14.793 0.893461 14.6296 1.12159C14.4661 1.34971 14.3498 1.60817 14.2876 1.88182Z" fill="#2F2E41"/>
<path d="M25.3797 15.5389C25.3745 15.5327 25.3685 15.5272 25.3619 15.5226C25.3457 15.5038 25.3259 15.4883 25.3037 15.4771L25.1447 15.392L24.0895 14.2204C24.0284 14.1886 23.9573 14.1818 23.8913 14.2015L23.8886 14.2023L23.4366 14.3421L23.0478 14.4627L22.5047 14.6311L18.8058 15.7764L16.3744 16.5292C16.3086 16.55 16.2537 16.5958 16.2214 16.6567C16.1891 16.7176 16.182 16.7888 16.2016 16.8549C16.213 16.8913 16.2319 16.9249 16.2571 16.9535L16.3345 17.0396L16.4968 17.2204L16.8728 17.9996L16.9771 18.116C17.0103 18.1531 17.0534 18.1799 17.1014 18.1934C17.1493 18.2068 17.2001 18.2063 17.2477 18.192L25.2579 15.9646C25.2995 15.9511 25.3371 15.9276 25.3675 15.8961C25.3979 15.8647 25.4201 15.8262 25.4321 15.7842C25.4442 15.7421 25.4457 15.6978 25.4365 15.655C25.4274 15.6122 25.4078 15.5724 25.3796 15.5389L25.3797 15.5389Z" fill="#CCCCCC"/>
<path d="M24.9041 3.95029L24.749 3.97544C24.7064 3.98249 24.6684 4.00607 24.6432 4.04104L24.5749 4.13661L23.9584 5.67808C23.9333 5.71333 23.9233 5.75709 23.9304 5.79976L24.0026 6.23896L23.7297 14.0782C23.7366 14.1188 23.7583 14.1553 23.7907 14.1806L24.9876 15.7816L25.0156 15.8038L25.0758 15.851C25.1067 15.8749 25.1451 15.8871 25.1841 15.8854L25.2858 15.8806C25.3089 15.8795 25.3315 15.8735 25.3521 15.8629C25.3727 15.8524 25.3909 15.8377 25.4054 15.8196C25.42 15.8018 25.4305 15.781 25.4364 15.7587C25.4423 15.7363 25.4432 15.713 25.4393 15.6903L25.0921 4.08442C25.0851 4.04179 25.0614 4.0037 25.0263 3.97852C24.9912 3.95334 24.9475 3.94314 24.9049 3.95016L24.9041 3.95029Z" fill="#CCCCCC"/>
<path d="M24.6443 4.55939L24.0983 6.2229L23.8871 12.8672L24.7371 13.6228L24.6443 4.55939Z" fill="#1572A1"/>
<path d="M13.7992 5.42238L13.1012 5.09528L12.4141 6.29098C12.4141 6.29098 10.5685 8.92467 10.5417 10.8247C10.5149 12.7247 10.8425 13.2897 10.8425 13.2897C10.8425 13.2897 10.0467 13.8846 10.4446 14.2483C10.8425 14.6119 11.7233 14.7688 11.0468 14.9265C10.3703 15.0841 10.5417 16.6801 11.2973 16.9634C12.0528 17.2468 16.1104 17.2443 16.1104 17.2443C16.074 17.1206 16.0713 16.9893 16.1027 16.8642C16.134 16.739 16.1984 16.6246 16.2889 16.5327C16.6035 16.2174 16.8868 16.4437 16.6035 15.9528C16.3201 15.4619 15.8479 15.7452 16.2257 15.0841C16.6035 14.423 16.6033 14.2254 16.6033 14.2254C16.6033 14.2254 16.4008 9.56401 15.2408 7.974L15.2655 7.93026C15.3041 7.41288 15.1845 6.89601 14.9226 6.44814C14.6607 6.00027 14.2689 5.64255 13.7992 5.42238Z" fill="#1572A1"/>
<path d="M14.645 3.34659C14.7165 3.03303 14.8567 2.73925 15.0556 2.48646C15.2544 2.23367 15.5069 2.02816 15.7947 1.88476C16.0826 1.74136 16.3987 1.66364 16.7203 1.65722C17.0418 1.65079 17.3608 1.71581 17.6542 1.8476C17.5526 1.54767 17.3469 1.29405 17.0744 1.13266L15.4297 0.418596C14.6184 0.233907 13.3342 -0.290294 12.7482 0.211698C12.2083 0.672849 12.4711 1.57554 11.9739 2.08109C11.4291 2.63513 11.3828 3.29024 11.5373 3.66704C11.7161 4.10296 12.0737 4.69768 12.52 4.82641C12.5432 4.67299 12.6197 4.53267 12.7361 4.43006C12.7039 4.57627 12.7011 4.72741 12.7279 4.87471L15.4297 7.02957C15.1774 6.81009 14.9624 6.24458 14.8143 5.60763C14.7267 5.23061 14.2037 5.09829 14.6278 4.45841C15.0519 3.81853 14.5874 3.59955 14.645 3.34659Z" fill="#2F2E41"/>
<path d="M13.6353 25.0681H14.5797V32.5291C14.5797 32.6543 14.53 32.7744 14.4414 32.863C14.3529 32.9515 14.2328 33.0013 14.1075 33.0013C13.9823 33.0013 13.8622 32.9515 13.7736 32.863C13.6851 32.7744 13.6353 32.6543 13.6353 32.5291V25.0681Z" fill="#F2F2F2"/>
<path d="M10.8945 33.7779L12.216 32.0252C12.6353 31.4691 13.0373 30.8908 13.4803 30.3544C13.6377 30.1638 13.8205 29.9668 14.0533 29.9092C14.145 29.8857 14.2416 29.8898 14.331 29.921C14.4366 29.9579 14.5341 30.015 14.6179 30.089C14.8126 30.2694 14.976 30.4809 15.1013 30.7148C15.2663 31.0013 15.4188 31.2953 15.5608 31.5938C15.8826 32.274 16.1443 32.9809 16.3429 33.7066C16.4398 34.0577 16.9867 33.9086 16.8893 33.556C16.6927 32.8461 16.4395 32.1532 16.1322 31.4837C15.9825 31.1569 15.8197 30.8365 15.6437 30.5227C15.4971 30.244 15.3124 29.9871 15.0948 29.7595C14.8747 29.5269 14.5815 29.377 14.2641 29.3347C13.9236 29.2976 13.6078 29.4511 13.355 29.6666C13.101 29.8831 12.9102 30.1695 12.7108 30.434L12.0078 31.3663L10.4052 33.4919C10.313 33.6142 10.3857 33.8087 10.5068 33.8795C10.5721 33.9157 10.6488 33.9253 10.721 33.9064C10.7932 33.8874 10.8553 33.8414 10.8945 33.7779H10.8945Z" fill="#F2F2F2"/>
<path d="M19.9629 14.8683C19.8382 14.8682 19.7149 14.8956 19.6019 14.9486C19.4889 15.0016 19.3891 15.0789 19.3094 15.175L15.6186 13.9239L14.5573 10.5485L12.8798 10.7091L13.8242 15.8127L19.4201 16.3846L19.4206 16.3727C19.5257 16.4597 19.6501 16.5202 19.7835 16.549C19.9168 16.5778 20.0551 16.5741 20.1867 16.5382C20.3184 16.5023 20.4394 16.4352 20.5396 16.3427C20.6398 16.2501 20.7163 16.1348 20.7626 16.0065C20.8088 15.8781 20.8235 15.7405 20.8054 15.6053C20.7873 15.4701 20.7369 15.3413 20.6585 15.2296C20.58 15.118 20.4759 15.0269 20.3548 14.964C20.2338 14.9011 20.0994 14.8683 19.963 14.8683L19.9629 14.8683Z" fill="#FFB6B6"/>
<path d="M14.4836 8.46463L14.403 8.45033C13.9826 8.37514 13.5494 8.46757 13.1962 8.70782C12.843 8.94807 12.598 9.31705 12.5135 9.73574C12.4145 10.2313 12.3073 10.6685 12.2272 10.7359C12.0298 10.9017 11.9227 11.0601 12.1651 11.1698C12.4075 11.2795 11.9353 10.9516 12.6909 11.3516C13.4464 11.7517 13.4464 11.2795 14.1075 11.4684C14.7686 11.6573 15.1524 11.9718 15.4799 11.6729C15.8075 11.374 16.385 11.5495 16.1907 11.0839C15.9964 10.6184 15.8075 10.9017 15.8075 10.0518C15.8075 10.0433 15.8075 10.0348 15.8074 10.0264C15.8042 9.65232 15.67 9.29124 15.4281 9.00591C15.1863 8.72058 14.852 8.52905 14.4836 8.46463Z" fill="#1572A1"/>
<path d="M40.4961 24.5554C42.5564 24.5554 44.2266 24.2805 44.2266 23.9415C44.2266 23.6025 42.5564 23.3276 40.4961 23.3276C38.4358 23.3276 36.7656 23.6025 36.7656 23.9415C36.7656 24.2805 38.4358 24.5554 40.4961 24.5554Z" fill="#E6E6E6"/>
<path d="M44.2459 20.3961C44.2474 21.2975 43.9215 22.1688 43.3288 22.848C43.1811 23.0184 43.0179 23.1747 42.8414 23.315C42.5735 23.5301 42.2771 23.7069 41.9605 23.8404H39.0592C38.7426 23.7069 38.4461 23.5301 38.1783 23.315C38.0017 23.1747 37.8385 23.0184 37.6908 22.848C37.5173 22.6483 37.3653 22.4309 37.2372 22.1994C36.9704 21.7151 36.8144 21.1777 36.7804 20.6258C36.7465 20.0739 36.8355 19.5214 37.0409 19.0081C37.2464 18.4947 37.5632 18.0334 37.9685 17.6574C38.3738 17.2813 38.8576 16.9999 39.3848 16.8334C39.9121 16.6669 40.4697 16.6196 41.0175 16.6947C41.5653 16.7698 42.0896 16.9656 42.5525 17.2679C43.0155 17.5702 43.4056 17.9714 43.6947 18.4428C43.9838 18.9141 44.1647 19.4437 44.2243 19.9933C44.2389 20.1271 44.2461 20.2616 44.2459 20.3961Z" fill="#3F3D56"/>
<path d="M43.3288 22.848C43.1811 23.0184 43.018 23.1747 42.8414 23.315H38.1783C38.0017 23.1747 37.8385 23.0184 37.6908 22.848H43.3288Z" fill="#1572A1"/>
<path d="M44.2244 19.9933C43.4439 21.2047 42.0072 22.1445 40.2582 22.43C39.2475 22.6019 38.2101 22.5227 37.2372 22.1994C36.9704 21.7151 36.8144 21.1777 36.7804 20.6258C36.7465 20.0739 36.8355 19.5214 37.0409 19.0081C37.2464 18.4947 37.5632 18.0334 37.9685 17.6574C38.3738 17.2813 38.8576 16.9999 39.3848 16.8334C39.9121 16.6669 40.4697 16.6196 41.0175 16.6947C41.5653 16.7698 42.0896 16.9656 42.5525 17.2679C43.0155 17.5702 43.4056 17.9714 43.6947 18.4428C43.9838 18.9141 44.1647 19.4437 44.2244 19.9933Z" fill="#1572A1"/>
<path d="M32.06 25.6992L32.8878 25.0657L30.8382 21.5712L29.6163 22.5062L32.06 25.6992Z" fill="#FFB6B6"/>
<path d="M31.3559 25.339L32.618 24.2479L33.0517 24.8146L34.9736 24.7207C35.0685 24.716 35.1625 24.7419 35.2417 24.7944C35.3209 24.8469 35.3812 24.9233 35.4139 25.0126C35.4466 25.1018 35.4499 25.1992 35.4233 25.2904C35.3968 25.3817 35.3417 25.462 35.2663 25.5198L33.6917 26.7248L32.9914 26.372L33.3144 27.0136L32.7207 27.4679L31.3559 25.339Z" fill="#2F2E41"/>
<path d="M32.1948 23.2468L31.0099 24.5438C30.186 23.9837 27.5953 21.8347 25.5626 20.6361C24.249 19.8598 23.2348 19.2678 23.2348 19.2678C23.2348 19.2678 23.0691 19.4561 22.8054 19.7516C21.8403 20.8348 19.5653 23.3527 19.3875 23.2309C19.162 23.0764 18.8658 23.2772 18.8487 23.7522C18.8361 24.0985 18.2278 24.2865 17.8984 24.364C17.7747 24.3925 17.6905 24.4062 17.6905 24.4062C17.6323 24.435 17.5741 24.4639 17.5171 24.491C15.6644 25.3655 13.6601 24.8462 12.3838 23.5572C11.9263 23.0989 11.5723 22.5479 11.3456 21.9413C11.1189 21.3346 11.0248 20.6865 11.0695 20.0404L11.2587 17.1161L15.5044 17.3842L16.1024 18.8935L17.554 17.9501L20.7319 15.885L21.8924 15.1306C21.8924 15.1306 21.8647 15.1238 21.9122 14.9997C22.0537 14.9417 22.2 14.8965 22.3495 14.8645C22.3749 14.8587 22.4001 14.8538 22.4252 14.8499C23.8446 14.5926 24.7739 15.7606 24.7739 15.7606C24.7739 15.7606 30.6892 20.7637 30.9355 20.8311C31.1818 20.8995 31.2825 21.3178 31.3022 21.4168C31.3216 21.5101 31.6662 22.0622 31.8468 22.0693C32.4104 22.0931 32.1948 23.2468 32.1948 23.2468Z" fill="#2F2E41"/>
<path d="M13.0711 26.57C12.1824 24.6679 5.70177 26.5067 5.27583 22.3503C5.15872 21.1404 6.06537 20.095 6.92669 19.2374C13.0532 15.0007 1.09108 11.87 5.7386 7.6871C6.4444 7.27602 7.19387 6.94499 7.97311 6.70018C9.04881 6.3838 9.85157 6.44235 10.4598 6.7729C10.5483 6.82124 10.6335 6.87551 10.7148 6.93534C13.3799 8.90447 11.7678 16.8603 14.5652 19.3309C15.6305 20.1715 20.3422 21.7997 21.0987 23.069C21.1187 23.1031 21.1367 23.1385 21.1526 23.1747C21.4115 23.6729 15.5722 25.03 16.0527 26.1969C16.7138 27.8024 13.014 30.1432 13.0711 26.57Z" fill="#FFC900"/>
<path d="M4.97674e-07 33.8876C-4.35191e-05 33.9024 0.00283268 33.917 0.0084654 33.9307C0.0140981 33.9443 0.0223742 33.9567 0.0328197 33.9672C0.0432651 33.9776 0.0556749 33.9859 0.0693308 33.9915C0.0829867 33.9972 0.0976215 34 0.112393 34H61.7164C61.7462 34 61.7748 33.9881 61.7958 33.9671C61.8169 33.946 61.8288 33.9174 61.8288 33.8876C61.8288 33.8578 61.8169 33.8292 61.7958 33.8081C61.7748 33.787 61.7462 33.7752 61.7164 33.7752H0.112387C0.0976164 33.7752 0.0829801 33.778 0.0693251 33.7837C0.0556701 33.7893 0.0432644 33.7976 0.0328197 33.808C0.0223749 33.8185 0.0140979 33.8309 0.0084654 33.8445C0.00283285 33.8582 -4.30141e-05 33.8728 4.97674e-07 33.8876Z" fill="#CCCCCC"/>
<path d="M18.2248 16.6067C18.2248 17.2065 18.7313 18.3582 15.7693 18.3582C12.8073 18.3582 7.49855 17.2065 7.49855 16.6067C7.49855 16.0069 9.89971 15.5206 12.8617 15.5206C15.8237 15.5206 18.2248 16.0069 18.2248 16.6067Z" fill="#F90716"/>
</g>
<defs>
<clipPath id="clip0_55_362">
<rect width="61.8287" height="34" fill="white"/>
</clipPath>
</defs>
</svg>
