<svg width="100" height="18" viewBox="0 0 100 18" fill="none" xmlns="http://www.w3.org/2000/svg">
<g filter="url(#filter0_i_146_147)">
<path d="M15 9.5C15 13.6421 11.6421 17 7.5 17C3.35786 17 0 13.6421 0 9.5C0 5.35786 3.35786 2 7.5 2C11.6421 2 15 5.35786 15 9.5Z" fill="url(#paint0_linear_146_147)" fill-opacity="0.77"/>
</g>
<g filter="url(#filter1_i_146_147)">
<path d="M25 9.5C25 13.6421 21.6421 17 17.5 17C13.3579 17 10 13.6421 10 9.5C10 5.35786 13.3579 2 17.5 2C21.6421 2 25 5.35786 25 9.5Z" fill="#F90716"/>
</g>
<path d="M39.684 4.66V13H38.316V7.288L35.772 13H34.824L32.268 7.288V13H30.9V4.66H32.376L35.304 11.2L38.22 4.66H39.684ZM41.026 9.664C41.026 9 41.162 8.412 41.434 7.9C41.714 7.388 42.09 6.992 42.562 6.712C43.042 6.424 43.57 6.28 44.146 6.28C44.666 6.28 45.118 6.384 45.502 6.592C45.894 6.792 46.206 7.044 46.438 7.348V6.388H47.818V13H46.438V12.016C46.206 12.328 45.89 12.588 45.49 12.796C45.09 13.004 44.634 13.108 44.122 13.108C43.554 13.108 43.034 12.964 42.562 12.676C42.09 12.38 41.714 11.972 41.434 11.452C41.162 10.924 41.026 10.328 41.026 9.664ZM46.438 9.688C46.438 9.232 46.342 8.836 46.15 8.5C45.966 8.164 45.722 7.908 45.418 7.732C45.114 7.556 44.786 7.468 44.434 7.468C44.082 7.468 43.754 7.556 43.45 7.732C43.146 7.9 42.898 8.152 42.706 8.488C42.522 8.816 42.43 9.208 42.43 9.664C42.43 10.12 42.522 10.52 42.706 10.864C42.898 11.208 43.146 11.472 43.45 11.656C43.762 11.832 44.09 11.92 44.434 11.92C44.786 11.92 45.114 11.832 45.418 11.656C45.722 11.48 45.966 11.224 46.15 10.888C46.342 10.544 46.438 10.144 46.438 9.688ZM52.0148 13.108C51.4948 13.108 51.0268 13.016 50.6108 12.832C50.2028 12.64 49.8788 12.384 49.6388 12.064C49.3988 11.736 49.2708 11.372 49.2548 10.972H50.6708C50.6948 11.252 50.8268 11.488 51.0668 11.68C51.3148 11.864 51.6228 11.956 51.9908 11.956C52.3748 11.956 52.6708 11.884 52.8788 11.74C53.0948 11.588 53.2028 11.396 53.2028 11.164C53.2028 10.916 53.0828 10.732 52.8428 10.612C52.6108 10.492 52.2388 10.36 51.7268 10.216C51.2308 10.08 50.8268 9.948 50.5148 9.82C50.2028 9.692 49.9308 9.496 49.6988 9.232C49.4748 8.968 49.3628 8.62 49.3628 8.188C49.3628 7.836 49.4668 7.516 49.6748 7.228C49.8828 6.932 50.1788 6.7 50.5628 6.532C50.9548 6.364 51.4028 6.28 51.9068 6.28C52.6588 6.28 53.2628 6.472 53.7188 6.856C54.1828 7.232 54.4308 7.748 54.4628 8.404H53.0948C53.0708 8.108 52.9508 7.872 52.7348 7.696C52.5188 7.52 52.2268 7.432 51.8588 7.432C51.4988 7.432 51.2228 7.5 51.0308 7.636C50.8388 7.772 50.7428 7.952 50.7428 8.176C50.7428 8.352 50.8068 8.5 50.9348 8.62C51.0628 8.74 51.2188 8.836 51.4028 8.908C51.5868 8.972 51.8588 9.056 52.2188 9.16C52.6988 9.288 53.0908 9.42 53.3948 9.556C53.7068 9.684 53.9748 9.876 54.1988 10.132C54.4228 10.388 54.5388 10.728 54.5468 11.152C54.5468 11.528 54.4428 11.864 54.2348 12.16C54.0268 12.456 53.7308 12.688 53.3468 12.856C52.9708 13.024 52.5268 13.108 52.0148 13.108ZM57.621 7.504V11.164C57.621 11.412 57.677 11.592 57.789 11.704C57.909 11.808 58.109 11.86 58.389 11.86H59.229V13H58.149C57.533 13 57.061 12.856 56.733 12.568C56.405 12.28 56.241 11.812 56.241 11.164V7.504H55.461V6.388H56.241V4.744H57.621V6.388H59.229V7.504H57.621ZM66.5498 9.532C66.5498 9.78 66.5338 10.004 66.5018 10.204H61.4498C61.4898 10.732 61.6858 11.156 62.0378 11.476C62.3898 11.796 62.8218 11.956 63.3338 11.956C64.0698 11.956 64.5898 11.648 64.8938 11.032H66.3698C66.1698 11.64 65.8058 12.14 65.2778 12.532C64.7578 12.916 64.1098 13.108 63.3338 13.108C62.7018 13.108 62.1338 12.968 61.6298 12.688C61.1338 12.4 60.7418 12 60.4538 11.488C60.1738 10.968 60.0338 10.368 60.0338 9.688C60.0338 9.008 60.1698 8.412 60.4418 7.9C60.7218 7.38 61.1098 6.98 61.6058 6.7C62.1098 6.42 62.6858 6.28 63.3338 6.28C63.9578 6.28 64.5138 6.416 65.0018 6.688C65.4898 6.96 65.8698 7.344 66.1418 7.84C66.4138 8.328 66.5498 8.892 66.5498 9.532ZM65.1218 9.1C65.1138 8.596 64.9338 8.192 64.5818 7.888C64.2298 7.584 63.7938 7.432 63.2738 7.432C62.8018 7.432 62.3978 7.584 62.0618 7.888C61.7258 8.184 61.5258 8.588 61.4618 9.1H65.1218ZM69.2641 7.348C69.4641 7.012 69.7281 6.752 70.0561 6.568C70.3921 6.376 70.7881 6.28 71.2441 6.28V7.696H70.8961C70.3601 7.696 69.9521 7.832 69.6721 8.104C69.4001 8.376 69.2641 8.848 69.2641 9.52V13H67.8961V6.388H69.2641V7.348ZM72.0456 9.688C72.0456 9.008 72.1816 8.412 72.4536 7.9C72.7336 7.38 73.1176 6.98 73.6056 6.7C74.0936 6.42 74.6536 6.28 75.2856 6.28C76.0856 6.28 76.7456 6.472 77.2656 6.856C77.7936 7.232 78.1496 7.772 78.3336 8.476H76.8576C76.7376 8.148 76.5456 7.892 76.2816 7.708C76.0176 7.524 75.6856 7.432 75.2856 7.432C74.7256 7.432 74.2776 7.632 73.9416 8.032C73.6136 8.424 73.4496 8.976 73.4496 9.688C73.4496 10.4 73.6136 10.956 73.9416 11.356C74.2776 11.756 74.7256 11.956 75.2856 11.956C76.0776 11.956 76.6016 11.608 76.8576 10.912H78.3336C78.1416 11.584 77.7816 12.12 77.2536 12.52C76.7256 12.912 76.0696 13.108 75.2856 13.108C74.6536 13.108 74.0936 12.968 73.6056 12.688C73.1176 12.4 72.7336 12 72.4536 11.488C72.1816 10.968 72.0456 10.368 72.0456 9.688ZM79.2409 9.664C79.2409 9 79.3769 8.412 79.6489 7.9C79.9289 7.388 80.3049 6.992 80.7769 6.712C81.2569 6.424 81.7849 6.28 82.3609 6.28C82.8809 6.28 83.3329 6.384 83.7169 6.592C84.1089 6.792 84.4209 7.044 84.6529 7.348V6.388H86.0329V13H84.6529V12.016C84.4209 12.328 84.1049 12.588 83.7049 12.796C83.3049 13.004 82.8489 13.108 82.3369 13.108C81.7689 13.108 81.2489 12.964 80.7769 12.676C80.3049 12.38 79.9289 11.972 79.6489 11.452C79.3769 10.924 79.2409 10.328 79.2409 9.664ZM84.6529 9.688C84.6529 9.232 84.5569 8.836 84.3649 8.5C84.1809 8.164 83.9369 7.908 83.6329 7.732C83.3289 7.556 83.0009 7.468 82.6489 7.468C82.2969 7.468 81.9689 7.556 81.6649 7.732C81.3609 7.9 81.1129 8.152 80.9209 8.488C80.7369 8.816 80.6449 9.208 80.6449 9.664C80.6449 10.12 80.7369 10.52 80.9209 10.864C81.1129 11.208 81.3609 11.472 81.6649 11.656C81.9769 11.832 82.3049 11.92 82.6489 11.92C83.0009 11.92 83.3289 11.832 83.6329 11.656C83.9369 11.48 84.1809 11.224 84.3649 10.888C84.5569 10.544 84.6529 10.144 84.6529 9.688ZM89.1977 7.348C89.3977 7.012 89.6617 6.752 89.9897 6.568C90.3257 6.376 90.7217 6.28 91.1777 6.28V7.696H90.8297C90.2937 7.696 89.8857 7.832 89.6057 8.104C89.3337 8.376 89.1977 8.848 89.1977 9.52V13H87.8297V6.388H89.1977V7.348ZM91.9792 9.664C91.9792 9 92.1152 8.412 92.3872 7.9C92.6672 7.388 93.0432 6.992 93.5152 6.712C93.9952 6.424 94.5272 6.28 95.1112 6.28C95.5432 6.28 95.9672 6.376 96.3832 6.568C96.8072 6.752 97.1432 7 97.3912 7.312V4.12H98.7712V13H97.3912V12.004C97.1672 12.324 96.8552 12.588 96.4552 12.796C96.0632 13.004 95.6112 13.108 95.0992 13.108C94.5232 13.108 93.9952 12.964 93.5152 12.676C93.0432 12.38 92.6672 11.972 92.3872 11.452C92.1152 10.924 91.9792 10.328 91.9792 9.664ZM97.3912 9.688C97.3912 9.232 97.2952 8.836 97.1032 8.5C96.9192 8.164 96.6752 7.908 96.3712 7.732C96.0672 7.556 95.7392 7.468 95.3872 7.468C95.0352 7.468 94.7072 7.556 94.4032 7.732C94.0992 7.9 93.8512 8.152 93.6592 8.488C93.4752 8.816 93.3832 9.208 93.3832 9.664C93.3832 10.12 93.4752 10.52 93.6592 10.864C93.8512 11.208 94.0992 11.472 94.4032 11.656C94.7152 11.832 95.0432 11.92 95.3872 11.92C95.7392 11.92 96.0672 11.832 96.3712 11.656C96.6752 11.48 96.9192 11.224 97.1032 10.888C97.2952 10.544 97.3912 10.144 97.3912 9.688Z" fill="#FFC900"/>
<defs>
<filter id="filter0_i_146_147" x="0" y="2" width="15" height="15" filterUnits="userSpaceOnUse" color-interpolation-filters="sRGB">
<feFlood flood-opacity="0" result="BackgroundImageFix"/>
<feBlend mode="normal" in="SourceGraphic" in2="BackgroundImageFix" result="shape"/>
<feColorMatrix in="SourceAlpha" type="matrix" values="0 0 0 0 0 0 0 0 0 0 0 0 0 0 0 0 0 0 127 0" result="hardAlpha"/>
<feOffset/>
<feGaussianBlur stdDeviation="20"/>
<feComposite in2="hardAlpha" operator="arithmetic" k2="-1" k3="1"/>
<feColorMatrix type="matrix" values="0 0 0 0 0 0 0 0 0 0 0 0 0 0 0 0 0 0 0.25 0"/>
<feBlend mode="normal" in2="shape" result="effect1_innerShadow_146_147"/>
</filter>
<filter id="filter1_i_146_147" x="10" y="2" width="15" height="15" filterUnits="userSpaceOnUse" color-interpolation-filters="sRGB">
<feFlood flood-opacity="0" result="BackgroundImageFix"/>
<feBlend mode="normal" in="SourceGraphic" in2="BackgroundImageFix" result="shape"/>
<feColorMatrix in="SourceAlpha" type="matrix" values="0 0 0 0 0 0 0 0 0 0 0 0 0 0 0 0 0 0 127 0" result="hardAlpha"/>
<feOffset/>
<feGaussianBlur stdDeviation="20"/>
<feComposite in2="hardAlpha" operator="arithmetic" k2="-1" k3="1"/>
<feColorMatrix type="matrix" values="0 0 0 0 0 0 0 0 0 0 0 0 0 0 0 0 0 0 0.25 0"/>
<feBlend mode="normal" in2="shape" result="effect1_innerShadow_146_147"/>
</filter>
<linearGradient id="paint0_linear_146_147" x1="7.5" y1="2" x2="-3.82422" y2="13.0977" gradientUnits="userSpaceOnUse">
<stop stop-color="#FFCA03"/>
<stop offset="1" stop-color="#FFCA03" stop-opacity="0.77"/>
</linearGradient>
</defs>
</svg>
