<svg width="54" height="24" viewBox="0 0 54 24" fill="none" xmlns="http://www.w3.org/2000/svg">
<g clip-path="url(#clip0_53_219)">
<path fill-rule="evenodd" clip-rule="evenodd" d="M2.7977 3.81548H19.7399C20.8668 3.81548 21.7891 4.73776 21.7891 5.86472V17.7205C21.7891 18.8475 20.8668 19.7697 19.7399 19.7697H2.30497C1.17802 19.7697 0.255737 18.8475 0.255737 17.7205V3.07513C0.255737 2.54197 0.695401 2.17306 1.2235 2.10736L16.8467 0.113708C17.3799 0.113708 17.8145 0.548319 17.8145 1.08148V2.73906H1.81983C1.81983 3.43393 2.02702 3.81548 2.79517 3.81548H2.7977ZM12.2985 16.8058C10.8734 17.0787 9.04142 16.6036 8.04586 15.5323C7.59609 15.0497 8.32129 14.3194 8.77358 14.8071C9.44318 15.5298 10.6384 15.8658 11.6137 15.8431C12.8569 15.8153 13.9611 14.6858 13.2561 13.4224C12.2783 11.6738 9.87274 12.164 8.63461 10.7895C7.634 9.6802 8.10903 7.9367 9.284 7.16602C10.5095 6.35997 12.6244 6.3903 13.6326 7.54757C14.0672 8.04283 13.3395 8.77307 12.9049 8.27277C12.0913 7.34037 10.1684 7.46671 9.43308 8.4269C8.38951 9.79896 9.95107 10.5368 11.0426 10.8678C12.5436 11.3226 14.2087 12.1539 14.4816 13.8747C14.6989 15.2594 13.6276 16.5506 12.2985 16.8058Z" fill="#EE4E2C"/>
<path fill-rule="evenodd" clip-rule="evenodd" d="M12.2984 16.8058C10.8733 17.0787 9.0414 16.6037 8.04584 15.5323C7.59607 15.0497 8.32126 14.3194 8.77356 14.8071C9.44316 15.5298 10.6383 15.8658 11.6137 15.8431C12.8569 15.8153 13.9611 14.6858 13.2561 13.4224C12.2808 11.6739 9.87272 12.1641 8.63459 10.792C7.63397 9.68274 8.10901 7.93925 9.28398 7.16604C10.5095 6.35999 12.6244 6.39031 13.6326 7.54759C14.0672 8.04284 13.3395 8.77309 12.9049 8.27278C12.0913 7.34039 10.1684 7.46673 9.43558 8.42692C8.39201 9.79897 9.95358 10.5368 11.0452 10.8678C12.5461 11.3226 14.2112 12.154 14.4841 13.8747C14.7014 15.2594 13.6301 16.5506 12.301 16.8058H12.2984Z" fill="#FEFEFE"/>
<path d="M41.4779 3.08775C40.8715 3.08775 40.3282 3.34548 39.9543 3.7523V3.27979C39.9543 2.85276 39.267 2.85023 39.267 3.27979V8.87413C39.267 9.30369 39.9543 9.30369 39.9543 8.87413V6.3827C40.3282 6.78952 40.8715 7.04473 41.4779 7.04473C42.6024 7.04473 43.5171 6.15782 43.5171 5.06624C43.5171 3.97466 42.6024 3.08775 41.4779 3.08775ZM41.4779 6.32964C40.7578 6.32964 40.1741 5.76111 40.1741 5.06624C40.1741 4.43959 40.6466 3.91654 41.2682 3.818C41.2707 3.818 41.2758 3.81547 41.2783 3.81547C41.344 3.80536 41.4097 3.80031 41.4754 3.80031C42.006 3.80031 42.4659 4.11111 42.6681 4.55582C42.6681 4.55835 42.6706 4.56088 42.6706 4.56088C42.7413 4.71501 42.7792 4.88683 42.7792 5.06371C42.7792 5.76111 42.1955 6.32711 41.4779 6.32711V6.32964ZM36.4142 7.04473C35.2898 7.04473 34.3751 6.15782 34.3751 5.06624C34.3751 3.97466 35.2898 3.08775 36.4142 3.08775C37.5387 3.08775 38.4534 3.97466 38.4534 5.06624C38.4534 6.15782 37.5387 7.04473 36.4142 7.04473ZM36.4142 3.80283C35.6966 3.80283 35.1104 4.36884 35.1104 5.06624C35.1104 5.76364 35.6941 6.32964 36.4142 6.32964C37.1318 6.32964 37.7181 5.76364 37.7181 5.06624C37.7181 4.36884 37.1344 3.80283 36.4142 3.80283ZM52.8081 5.02834C52.7904 4.11869 52.3103 3.29747 51.3173 3.11554C50.4607 2.95888 49.4601 3.39602 49.0937 4.17428C48.7147 4.98285 48.8739 6.09212 49.6218 6.6556C50.4304 7.26456 51.6913 7.07758 52.5226 6.62528C52.9092 6.41555 52.563 5.84197 52.1764 6.04917C51.6508 6.33469 50.9635 6.4762 50.3748 6.28416C49.9351 6.14266 49.6875 5.77374 49.6117 5.35935H52.467C52.6489 5.35935 52.8132 5.20521 52.8106 5.02581L52.8081 5.02834ZM49.6344 4.6948C49.6395 4.66953 49.6471 4.64426 49.6547 4.62152C49.8189 4.07826 50.3798 3.76493 50.9484 3.74977C51.6028 3.73208 51.9692 4.16922 52.0829 4.6948H49.6344ZM48.2371 5.03339C48.2194 4.12374 47.7393 3.30253 46.7463 3.1206C45.8897 2.96394 44.8891 3.40107 44.5227 4.17933C44.1437 4.98791 44.3029 6.09717 45.0508 6.66065C45.8594 7.26961 47.1203 7.08263 47.9516 6.63033C48.3382 6.42061 47.992 5.84702 47.6054 6.05422C47.0798 6.33975 46.3926 6.48125 45.8038 6.28921C45.3641 6.14771 45.1165 5.7788 45.0407 5.3644H47.896C48.0779 5.3644 48.2422 5.21027 48.2396 5.03086L48.2371 5.03339ZM45.0635 4.69985C45.0685 4.67458 45.0761 4.64931 45.0837 4.62657C45.2479 4.08331 45.8089 3.76999 46.3774 3.75483C47.0318 3.73714 47.3982 4.17428 47.5119 4.69985H45.0635ZM33.5665 4.39158V6.70361C33.5665 7.14075 32.8792 7.14075 32.8792 6.70361V4.43706C32.8565 3.98982 32.4724 3.78262 32.4598 3.77757C31.9721 3.56532 31.0827 3.66386 30.5546 4.33346V6.70361C30.5546 7.14075 29.8673 7.14075 29.8673 6.70361V0.765614C29.8673 0.331003 30.5546 0.331003 30.5546 0.765614V3.43392C31.396 2.87297 32.4674 2.93614 32.9702 3.27979C32.9702 3.27979 33.5741 3.6108 33.564 4.39411L33.5665 4.39158ZM28.7454 1.03851C28.0733 0.295628 26.6608 0.27794 25.8421 0.795936C25.0588 1.29119 24.7404 2.41309 25.4075 3.12312C26.2337 4.00498 27.8408 3.69166 28.4952 4.81103C28.9677 5.62214 28.2274 6.34733 27.3986 6.36502C26.7492 6.37765 25.9507 6.16287 25.501 5.69794C25.2003 5.38714 24.7151 5.8546 25.0158 6.1654C25.6804 6.85269 26.9059 7.15843 27.856 6.98156C28.7429 6.81731 29.4605 5.98852 29.3139 5.09909C29.132 3.99487 28.0202 3.46172 27.0171 3.16861C26.2868 2.95635 25.2432 2.48132 25.9432 1.60199C26.4334 0.985446 27.717 0.902061 28.2602 1.50344C28.5508 1.82435 29.036 1.35689 28.7454 1.03598V1.03851Z" fill="#EE4E2C"/>
<path fill-rule="evenodd" clip-rule="evenodd" d="M46.6453 23.2163H44.4646L46.7969 18.807L42.9662 11.5703H45.3313L47.9794 16.5708L50.6275 11.5703H52.8081L46.6453 23.2163ZM24.9224 19.7672H26.7492V16.4268H29.2129C31.7675 16.4268 33.8394 14.6353 33.8394 12.4243C33.8394 10.2134 31.7675 8.42188 29.2129 8.42188H24.9224C24.9224 12.2045 24.9224 15.9846 24.9224 19.7672ZM26.7492 14.5999V10.2488H29.2129C30.6001 10.2488 31.727 11.2216 31.727 12.4243C31.727 13.6246 30.6026 14.5999 29.2129 14.5999H26.7492ZM40.682 11.6436H42.2865V19.6965H40.682V18.7919C39.9669 19.4008 39.0396 19.7672 38.0289 19.7672C35.7649 19.7672 33.9304 17.9328 33.9304 15.6688C33.9304 13.4047 35.7649 11.5703 38.0289 11.5703C39.0421 11.5703 39.9669 11.9367 40.682 12.5456V11.641V11.6436ZM38.0289 13.2986C39.3378 13.2986 40.399 14.3599 40.399 15.6688C40.399 16.9776 39.3378 18.0389 38.0289 18.0389C36.72 18.0389 35.6587 16.9776 35.6587 15.6688C35.6587 14.3599 36.72 13.2986 38.0289 13.2986Z" fill="#EE4E2C"/>
</g>
<defs>
<clipPath id="clip0_53_219">
<rect width="53.064" height="23.33" fill="white"/>
</clipPath>
</defs>
</svg>
