<svg width="76" height="25" viewBox="0 0 76 25" fill="none" xmlns="http://www.w3.org/2000/svg">
<g clip-path="url(#clip0_53_143)">
<path d="M41.2314 21.6165C41.1527 23.0849 40.4984 24.0906 39.2438 24.6994C38.8793 24.8762 38.5393 24.7364 38.3733 24.3628C38.2455 24.0749 38.3918 23.7471 38.7353 23.5941C39.6237 23.1978 40.0137 22.3856 39.997 21.6204C39.9767 20.6902 39.4193 19.9807 38.5427 19.6757C37.6986 19.3819 36.8169 19.6669 36.1943 20.4351C35.7159 21.0251 35.6747 22.0438 36.0945 22.727C36.3272 23.106 36.6352 23.3918 37.0396 23.5823C37.4204 23.7619 37.5548 24.0932 37.4009 24.4209C37.2435 24.7556 36.8709 24.8628 36.4966 24.6739C35.4916 24.1668 34.8333 23.3789 34.6319 22.2609C34.3134 20.4936 35.4173 18.9081 37.0079 18.4683C38.8878 17.9485 40.6937 19.1359 41.1138 20.855C41.1803 21.1265 41.2004 21.4091 41.2314 21.6165Z" fill="#00AA11"/>
<path d="M46.0318 19.8221C46.0418 19.6816 46.0496 19.5694 46.0584 19.4416C46.3837 19.4416 46.6968 19.4416 47.0292 19.4416C47.0366 19.5129 47.0496 19.5803 47.0496 19.6476C47.0505 20.795 47.0565 21.9421 47.0475 23.0895C47.0419 23.7975 46.7688 24.3792 46.1364 24.7366C45.3439 25.1845 44.1081 25.0431 43.3998 24.4482C43.3332 24.3922 43.2698 24.3325 43.1918 24.2628C43.4024 24.0556 43.6086 23.8524 43.8355 23.6293C44.1891 23.913 44.5854 24.0556 45.0483 24.0417C45.7622 24.0204 46.1138 23.6293 46.0207 22.8687C45.4233 23.3362 44.7639 23.3538 44.0947 23.1302C43.6954 22.9967 43.3797 22.7293 43.1563 22.3569C42.6844 21.5699 42.8059 20.5714 43.4593 19.9619C44.1597 19.3087 45.2189 19.2416 46.0318 19.8221ZM45.9913 21.3466C45.9913 20.682 45.6302 20.3196 44.9736 20.3256C44.3563 20.3311 43.9401 20.7357 43.9174 21.2993C43.8878 22.0333 44.3653 22.3641 44.9969 22.3553C45.6457 22.3467 45.9913 22.0032 45.9913 21.3466Z" fill="black"/>
<path d="M62.4928 19.4298C61.894 19.9946 61.3487 20.5089 60.7955 21.0306C61.3582 21.779 61.9086 22.5108 62.4965 23.293C62.0945 23.293 61.7619 23.3029 61.4306 23.2856C61.3533 23.2816 61.2619 23.1992 61.2091 23.1289C60.9036 22.7201 60.6078 22.3039 60.308 21.8908C60.2576 21.8211 60.2041 21.754 60.1141 21.6357C59.8981 21.8824 59.6233 22.0769 59.5298 22.3368C59.4317 22.6088 59.5078 22.9435 59.5078 23.2934C59.3285 23.2934 59.1731 23.2934 59.0178 23.2934C58.8695 23.2934 58.7213 23.2934 58.5486 23.2934C58.5419 23.1786 58.5317 23.0851 58.5317 22.9918C58.5306 21.5445 58.5387 20.0971 58.5241 18.6498C58.5213 18.3718 58.6067 18.2908 58.8702 18.3193C59.0688 18.3408 59.2715 18.3237 59.5039 18.3237C59.5039 19.2028 59.5039 20.0511 59.5039 20.9714C59.8083 20.6971 60.061 20.473 60.3096 20.2441C60.5622 20.0117 60.8082 19.7722 61.0624 19.5414C61.1175 19.4914 61.1943 19.4366 61.2624 19.4347C61.6464 19.4245 62.0308 19.4298 62.4928 19.4298Z" fill="black"/>
<path d="M55.0033 21.6901C55.0635 22.0986 55.4542 22.4104 55.9044 22.4465C56.2847 22.4771 56.6412 22.4215 56.952 22.1743C57.0015 22.1347 57.1087 22.1035 57.1515 22.1299C57.3594 22.2572 57.5543 22.4055 57.773 22.5604C57.0985 23.2319 56.3315 23.4168 55.4486 23.1988C54.7313 23.0215 54.2108 22.619 54.0423 21.8827C53.6759 20.2805 54.9098 19.2217 56.3359 19.4634C57.1633 19.6034 57.6788 20.0886 57.8728 20.8976C57.9306 21.1394 57.914 21.3994 57.9341 21.6901C57.4163 21.6901 56.9335 21.6901 56.4509 21.6901C55.9752 21.6901 55.4996 21.6901 55.0033 21.6901ZM56.9178 20.9515C56.8504 20.4712 56.4689 20.2418 55.8255 20.2719C55.3646 20.2937 55.0524 20.5557 55.0295 20.9515C55.6542 20.9515 56.2782 20.9515 56.9178 20.9515Z" fill="black"/>
<path d="M49.6804 19.3754C50.821 19.4208 51.6679 20.1309 51.7531 21.2364C51.8112 21.9905 51.4795 22.596 50.8159 23.0027C50.0563 23.4684 48.8515 23.3439 48.2083 22.7222C47.244 21.7901 47.5386 20.1455 48.7742 19.6291C49.0614 19.509 49.3776 19.4583 49.6804 19.3754ZM50.7173 21.3635C50.7155 20.7362 50.315 20.321 49.7093 20.3256C49.0297 20.3307 48.6749 20.7688 48.6522 21.366C48.6302 21.9396 49.1223 22.4002 49.6984 22.396C50.3136 22.3914 50.7194 21.9803 50.7173 21.3635Z" fill="black"/>
<path d="M52.3514 19.4328C52.7009 19.4328 53.0086 19.4328 53.3581 19.4328C53.3581 19.5184 53.3581 19.602 53.3581 19.6858C53.3581 21.0811 53.3588 22.4763 53.3574 23.8718C53.3569 24.5759 52.9463 24.9854 52.2424 24.9877C51.9709 24.9889 51.6994 24.988 51.3987 24.988C51.3987 24.8225 51.3987 24.6838 51.3987 24.5452C51.3987 24.4054 51.3987 24.2653 51.3987 24.0762C51.5806 24.0762 51.745 24.0827 51.9086 24.0748C52.281 24.0568 52.3514 23.9809 52.3514 23.6137C52.3516 22.3243 52.3514 21.035 52.3514 19.7455C52.3514 19.6501 52.3514 19.5548 52.3514 19.4328Z" fill="black"/>
<path d="M36.6698 21.6317C36.5936 21.0669 37.3091 20.3869 37.9171 20.4267C38.5895 20.4709 39.1467 20.9959 39.1423 21.6674C39.1381 22.3368 38.5571 22.9281 37.8873 22.9103C37.2177 22.8925 36.6302 22.362 36.6698 21.6317Z" fill="#00AA11"/>
<path d="M13.3831 19.8999H14.4223C14.9878 19.8999 15.3227 20.2193 15.3227 20.7311C15.3227 21.2507 14.9917 21.5546 14.4223 21.5546H13.6988V22.5939H13.3831V19.8999ZM14.4029 21.2547C14.8147 21.2547 15.0033 21.0892 15.0033 20.7311C15.0033 20.3732 14.807 20.2001 14.4029 20.2001H13.6988V21.2547H14.4029Z" fill="black"/>
<path d="M16.4391 20.4964C17.0164 20.4964 17.4013 20.9313 17.4013 21.5741C17.4013 22.2166 17.0164 22.6516 16.4391 22.6516C15.8658 22.6516 15.4808 22.2166 15.4808 21.5741C15.4808 20.9313 15.8658 20.4964 16.4391 20.4964ZM16.4391 20.7774C16.035 20.7774 15.781 21.0852 15.781 21.5741C15.781 22.0627 16.035 22.3708 16.4391 22.3708C16.8432 22.3708 17.1011 22.0627 17.1011 21.5741C17.1011 21.0852 16.8432 20.7774 16.4391 20.7774Z" fill="black"/>
<path d="M17.5941 20.5541H17.8904L18.2598 22.1399H18.2677L18.8142 20.5541H19.0873L19.6338 22.1399H19.6414L20.0111 20.5541H20.3073L19.8187 22.594H19.5338L18.9565 20.9274H18.9489L18.3677 22.594H18.0827L17.5941 20.5541Z" fill="black"/>
<path d="M21.4468 20.4964C21.9932 20.4964 22.3587 20.9082 22.3587 21.5086V21.6625H20.8079C20.8156 22.0551 21.0658 22.3784 21.4391 22.3784C21.7278 22.3784 21.8893 22.2745 22.0625 21.9704L22.3127 22.1206C22.1395 22.4708 21.8433 22.6516 21.4468 22.6516C20.8811 22.6516 20.5038 22.2166 20.5038 21.5741C20.5038 20.9313 20.8926 20.4964 21.4468 20.4964ZM22.0548 21.4199C22.0509 21.2315 21.9895 21.0776 21.8777 20.9545C21.7662 20.8311 21.6238 20.7698 21.4468 20.7698C21.1005 20.7698 20.8234 21.0776 20.8156 21.4199H22.0548Z" fill="black"/>
<path d="M22.7865 20.554H23.0712V20.7235H23.0788C23.1559 20.5966 23.3059 20.5195 23.5022 20.5195C23.5638 20.5195 23.6332 20.5311 23.7063 20.5503L23.6406 20.8619C23.5677 20.839 23.4983 20.8274 23.4406 20.8274C23.198 20.8274 23.0865 20.9892 23.0865 21.3702V22.5939H22.7865V20.554Z" fill="black"/>
<path d="M24.7877 20.4964C25.3344 20.4964 25.6999 20.9082 25.6999 21.5086V21.6625H24.1489C24.1565 22.0551 24.4067 22.3784 24.7801 22.3784C25.0687 22.3784 25.2305 22.2745 25.4034 21.9704L25.6536 22.1206C25.4805 22.4708 25.1842 22.6516 24.7877 22.6516C24.222 22.6516 23.845 22.2166 23.845 21.5741C23.845 20.9313 24.2336 20.4964 24.7877 20.4964ZM25.396 21.4199C25.3921 21.2315 25.3305 21.0776 25.2189 20.9545C25.1071 20.8311 24.9648 20.7698 24.7877 20.7698C24.4415 20.7698 24.1644 21.0776 24.1565 21.4199H25.396Z" fill="black"/>
<path d="M26.9663 20.4964C27.2126 20.4964 27.432 20.6003 27.5669 20.7698H27.5743V19.7844H27.8748V22.5939H27.5862V22.3898H27.5783C27.4436 22.5555 27.2165 22.6516 26.9663 22.6516C26.4353 22.6516 26.0504 22.209 26.0504 21.5741C26.0504 20.939 26.4353 20.4964 26.9663 20.4964ZM27.5743 21.3739C27.5743 21.0429 27.3052 20.7774 26.9663 20.7774C26.6008 20.7774 26.3506 21.0929 26.3506 21.5741C26.3506 22.0551 26.6008 22.3708 26.9857 22.3708C27.3091 22.3708 27.5743 22.1014 27.5743 21.7704V21.3739Z" fill="black"/>
<path d="M29.7108 22.3898V22.5939H29.4221V19.7844H29.7223V20.7698H29.73C29.8649 20.6003 30.0841 20.4964 30.3304 20.4964C30.8616 20.4964 31.2463 20.939 31.2463 21.5741C31.2463 22.209 30.8616 22.6516 30.3304 22.6516C30.0802 22.6516 29.8531 22.5555 29.7184 22.3898H29.7108ZM30.3304 20.7774C29.9918 20.7774 29.7223 21.0429 29.7223 21.3739V21.7704C29.7223 22.1014 29.9878 22.3708 30.3112 22.3708C30.6961 22.3708 30.9463 22.0551 30.9463 21.5741C30.9463 21.0929 30.6961 20.7774 30.3304 20.7774Z" fill="black"/>
<path d="M32.1319 22.4208L31.3468 20.5541H31.6662L32.2858 22.0743H32.2937L32.917 20.5541H33.2364L32.0127 23.4599H31.7009L32.1319 22.4208Z" fill="black"/>
<path d="M8.28065 0C12.8525 0 16.5587 3.57659 16.5587 7.98853C16.5587 12.4007 12.8525 15.9773 8.28065 15.9773C3.70901 15.9773 0.00280762 12.4007 0.00280762 7.98853C0.00280762 3.57659 3.70901 0 8.28065 0Z" fill="#00AED6"/>
<path fill-rule="evenodd" clip-rule="evenodd" d="M13.1095 7.74227C13.0465 6.72568 12.1496 5.94611 11.0953 5.99148H5.86651C5.67578 5.99148 5.5214 5.84241 5.5214 5.65863C5.5214 5.47485 5.67578 5.32579 5.86651 5.32579H11.1643C11.1333 4.63672 10.6458 4.04532 9.95695 3.86131C8.41262 3.5949 6.83149 3.5949 5.28692 3.86131C4.40921 4.0694 3.75255 4.77421 3.63126 5.63873C3.38984 7.20551 3.38984 8.79845 3.63126 10.3652C3.8162 11.28 4.56938 11.988 5.5214 12.1429C7.4363 12.3757 9.37366 12.3757 11.2883 12.1429C12.1415 11.976 12.7871 11.2994 12.8889 10.4652C13.0641 9.56784 13.138 8.65494 13.1095 7.74227ZM11.3851 8.86071V9.15375C11.3851 9.33753 11.2307 9.48659 11.0402 9.48659C10.8497 9.48659 10.6953 9.33753 10.6953 9.15375V8.86071C10.5838 8.76697 10.5208 8.63064 10.5226 8.48805C10.5226 8.21215 10.7543 7.98855 11.0402 7.98855C11.3258 7.98855 11.5575 8.21215 11.5575 8.48805C11.5559 8.62994 11.4934 8.76488 11.3851 8.86071Z" fill="white"/>
<path d="M40.1368 7.09001C40.1481 5.68919 38.9806 4.54483 37.5291 4.53372C36.0778 4.52284 34.8918 5.64937 34.8805 7.0502C34.8691 8.45102 36.0364 9.59538 37.4879 9.60626C37.5018 9.60649 37.5154 9.60649 37.5291 9.60626C38.9063 9.67755 40.0826 8.65795 40.1564 7.32888C40.1608 7.24926 40.1611 7.16963 40.1574 7.09001H40.1368ZM32.3279 7.09001C32.3279 4.42701 34.5078 2.39661 37.5291 2.39661C40.5506 2.39661 42.7303 4.44044 42.7303 7.09001C42.7303 9.73958 40.5712 11.7899 37.5291 11.7899C34.487 11.7899 32.3279 9.74629 32.3279 7.09001Z" fill="black"/>
<path d="M28.1889 7.57584C28.1889 8.67437 27.0302 9.57315 25.5609 9.57315C24.2115 9.70462 23.0069 8.75562 22.8706 7.4534C22.8567 7.32169 22.8544 7.18883 22.8636 7.05667C22.8636 5.60539 23.9673 4.60685 25.6644 4.60685C27.0439 4.60685 28.1889 5.51882 28.1889 6.55069V7.57584ZM28.2926 2.38989V3.44189C27.4529 2.70607 26.3409 2.32901 25.2091 2.3966C22.5326 2.42044 20.383 4.53371 20.4078 7.11662C20.4326 9.69953 22.6222 11.7739 25.2986 11.7501C26.4006 11.7975 27.4732 11.3994 28.2579 10.6515V11.5503C28.2579 12.7685 27.1682 13.6606 25.7333 13.6606C24.6373 13.737 23.558 13.3703 22.7532 12.6486L21.077 14.2066C22.3338 15.397 24.0423 16.0373 25.8023 15.9773C28.741 15.9773 30.7552 14.0733 30.7552 11.5369V2.38989H28.2926Z" fill="black"/>
<path d="M44.248 2.66299H46.7175V3.44835H46.752C47.5617 2.73613 48.6308 2.36278 49.7254 2.41C52.4132 2.50767 54.51 4.68946 54.4089 7.28348C54.3128 9.74025 52.2711 11.7107 49.7254 11.8033C48.6797 11.8267 47.6591 11.4943 46.8418 10.8645V15.3116H44.2689L44.248 2.66299ZM49.3252 4.60683C47.9455 4.60683 46.821 5.53222 46.821 6.53724V7.66239C46.821 8.7343 47.9318 9.61965 49.3391 9.61965C50.7735 9.69094 51.9961 8.62667 52.0702 7.24251C52.144 5.85812 51.0413 4.67812 49.6067 4.60683C49.5176 4.60243 49.4282 4.60243 49.3391 4.60683H49.3252Z" fill="black"/>
<path d="M59.3483 6.23128C61.0385 6.01138 61.5419 5.77853 61.5419 5.32579C61.5419 4.73995 60.9005 4.3872 59.9071 4.3872C58.8363 4.30248 57.8614 4.98345 57.6101 5.99148L55.1818 5.50564C55.5269 3.69489 57.4582 2.40332 59.8381 2.40332C62.5284 2.40332 64.198 3.7347 64.198 5.89172V11.5436H61.887V10.5583H61.8526C61.0684 11.4101 59.9191 11.8626 58.7414 11.7832C56.7064 11.7832 55.2922 10.7115 55.2922 9.12041C55.2922 7.52933 56.4511 6.61736 59.3483 6.23128ZM61.7491 7.16986H61.7146C61.4868 7.48928 61.0246 7.67584 59.7485 7.88879C58.2378 8.16169 57.679 8.44801 57.679 8.96718C57.679 9.48659 58.1274 9.73958 59.1 9.73958C60.5832 9.73958 61.7283 9.07389 61.7283 8.22835L61.7491 7.16986Z" fill="black"/>
<path d="M68.8543 11.0443L64.5979 2.66302H67.4331L70.2269 8.46792H70.2683L73.0276 2.66302H75.8767L69.5026 15.3116H66.6674L68.8543 11.0443Z" fill="black"/>
</g>
<defs>
<clipPath id="clip0_53_143">
<rect width="75.8796" height="25" fill="white"/>
</clipPath>
</defs>
</svg>
